<?xml version="1.0" encoding="UTF-8" standalone="no"?>
<svg
   viewBox="0 0 24 24"
   version="1.1"
   id="svg11"
   sodipodi:docname="user-dark.svg"
   inkscape:version="1.2.2 (b0a8486541, 2022-12-01)"
   xmlns:inkscape="http://www.inkscape.org/namespaces/inkscape"
   xmlns:sodipodi="http://sodipodi.sourceforge.net/DTD/sodipodi-0.dtd"
   xmlns="http://www.w3.org/2000/svg"
   xmlns:svg="http://www.w3.org/2000/svg"
   xmlns:rdf="http://www.w3.org/1999/02/22-rdf-syntax-ns#"
   xmlns:cc="http://creativecommons.org/ns#"
   xmlns:dc="http://purl.org/dc/elements/1.1/">
  <defs
     id="defs15" />
  <sodipodi:namedview
     id="namedview13"
     pagecolor="#505050"
     bordercolor="#eeeeee"
     borderopacity="1"
     inkscape:showpageshadow="0"
     inkscape:pageopacity="0"
     inkscape:pagecheckerboard="0"
     inkscape:deskcolor="#505050"
     showgrid="false"
     inkscape:zoom="23.541667"
     inkscape:cx="12.021239"
     inkscape:cy="12.042478"
     inkscape:window-width="674"
     inkscape:window-height="736"
     inkscape:window-x="4"
     inkscape:window-y="28"
     inkscape:window-maximized="0"
     inkscape:current-layer="svg11" />
  <title
     id="title2">60.User</title>
  <g
     id="_60.User"
     data-name="60.User"
     style="fill:#f2f2f2">
    <path
       d="M12,12a4,4,0,1,1,4-4A4,4,0,0,1,12,12Zm0-6a2,2,0,1,0,2,2A2,2,0,0,0,12,6Z"
       id="path4"
       style="fill:#f2f2f2" />
    <path
       d="M18.9,21.166l-1.972-.332a5,5,0,1,0-9.862,0L5.1,21.166a7,7,0,1,1,13.806,0Z"
       id="path6"
       style="fill:#f2f2f2" />
    <path
       d="M12,24A12,12,0,1,1,24,12,12.013,12.013,0,0,1,12,24ZM12,2A10,10,0,1,0,22,12,10.011,10.011,0,0,0,12,2Z"
       id="path8"
       style="fill:#f2f2f2" />
  </g>
  <metadata
     id="metadata191">
    <rdf:RDF>
      <cc:Work
         rdf:about="">
        <dc:title>60.User</dc:title>
      </cc:Work>
    </rdf:RDF>
  </metadata>
</svg>
