<?xml version="1.0" encoding="UTF-8" standalone="no"?>
<!-- Uploaded to: SVG Repo, www.svgrepo.com, Generator: SVG Repo Mixer Tools -->

<svg
   width="530.99829"
   height="532.39929"
   viewBox="0 0 15.929949 15.971979"
   fill="none"
   version="1.1"
   id="svg2"
   xmlns="http://www.w3.org/2000/svg"
   xmlns:svg="http://www.w3.org/2000/svg">
  <defs
     id="defs2" />
  <path
     fill-rule="evenodd"
     clip-rule="evenodd"
     d="M -0.03502655,-0.01401043 H 15.964973 V 15.98599 H -0.03502655 Z M 1.4649734,1.4859896 V 14.48599 H 14.464973 V 1.4859896 Z"
     fill="#1f2328"
     id="path1" />
  <path
     fill-rule="evenodd"
     clip-rule="evenodd"
     d="m 4.9649734,3.9859896 6e-5,8.0000004 h 1.41784 L 11.964973,8.7630896 v -1.5543 l -5.5820996,-3.2228 z m 5.3460996,4 L 6.4649734,10.20649 V 5.7654696 Z"
     fill="#1f2328"
     id="path2" />
  <path
     style="fill:#f2f2f2;stroke:none;stroke-width:0.158879;stroke-linecap:round"
     d="M -1.5029297e-7,7.9859896 V 7.0617676e-8 H 7.9649734 15.929947 V 7.9859896 15.971979 H 7.9649734 -1.5029297e-7 Z M 14.500875,7.9859896 V 1.4711035 H 7.9649734 1.4290714 v 6.5148861 6.5148864 h 6.535902 6.5359016 z"
     id="path3" />
  <path
     style="fill:#f2f2f2;stroke:none;stroke-width:0.158879;stroke-linecap:round"
     d="M 5.001751,7.9859896 V 3.992995 h 0.6783618 0.6783618 l 1.1395017,0.6586017 c 0.6267258,0.3622311 1.3869423,0.8019858 1.6893696,0.9772329 0.3024279,0.1752471 1.0444101,0.6023439 1.6488491,0.949104 l 1.098982,0.6304728 -1.2e-4,0.7775832 -1.2e-4,0.7775832 -1.711774,0.9848361 C 9.2816881,10.290068 8.0270689,11.013536 7.4351209,11.356115 L 6.358852,11.978984 H 5.6803048 5.0017576 Z M 8.4569617,9.0868132 C 9.4904278,8.4929191 10.335991,7.9975483 10.335991,7.9859896 c 0,-0.023133 -3.7133109,-2.1635883 -3.8316129,-2.2086483 -0.069482,-0.026465 -0.073555,0.09584 -0.073555,2.2086483 0,2.1128084 0.00407,2.2351134 0.073555,2.2086484 0.040455,-0.01541 0.9191178,-0.5139301 1.9525836,-1.1078248 z"
     id="path4" />
</svg>
