<?xml version="1.0" encoding="UTF-8" standalone="no"?>
<!-- Uploaded to: SVG Repo, www.svgrepo.com, Generator: SVG Repo Mixer Tools -->

<svg
   width="347.75827"
   height="399.22031"
   viewBox="0 0 10.432748 11.976609"
   fill="none"
   version="1.1"
   id="svg1"
   xmlns="http://www.w3.org/2000/svg"
   xmlns:svg="http://www.w3.org/2000/svg">
  <defs
     id="defs1" />
  <path
     fill-rule="evenodd"
     clip-rule="evenodd"
     d="m -0.03215362,-0.00778586 6e-5,11.99998986 H 1.3856964 L 10.467736,6.7654041 v -1.5542 L 1.3857064,-0.00778586 Z m 8.84589002,5.99608996 -7.34584,4.2243999 -3e-5,-8.4410099 z"
     fill="#1f2328"
     id="path1" />
  <path
     style="fill:#f2f2f2;stroke-width:0.176842;stroke-linecap:round"
     d="M -1.9995118e-8,5.9883041 V -6.1816407e-8 H 0.68084668 1.3616934 L 2.6106714,0.71978004 C 4.1206038,1.5899465 7.3571481,3.4505234 9.1345032,4.470104 L 10.432749,5.2148435 V 5.9905304 6.7662176 L 10.140351,6.9300242 C 9.877602,7.0772216 6.3341247,9.1147424 4.4210529,10.218655 c -0.411696,0.237564 -1.265754,0.730289 -1.8979068,1.094944 l -1.149369,0.663009 H 0.68688868 -1.9995117e-8 Z M 5.3900586,7.9904174 C 7.2867549,6.9021206 8.8385499,6.0011696 8.8384923,5.9883041 8.8383723,5.9598143 1.5985362,1.8073838 1.5117837,1.7860433 1.4613255,1.7736311 1.4502924,2.5318937 1.4502924,6.0121274 v 4.2412106 l 0.2456142,-0.1421 c 0.1350876,-0.07815 1.7974563,-1.0325235 3.694152,-2.1208206 z"
     id="path2" />
</svg>
