<?xml version="1.0" encoding="UTF-8" standalone="no"?>
<!-- Created with Inkscape (http://www.inkscape.org/) -->

<svg
   width="55.074371mm"
   height="11.800443mm"
   viewBox="0 0 55.074371 11.800443"
   version="1.1"
   id="svg1"
   xml:space="preserve"
   xmlns="http://www.w3.org/2000/svg"
   xmlns:svg="http://www.w3.org/2000/svg"><defs
     id="defs1" /><g
     id="layer1"
     transform="translate(-62.065748,-281.82253)"><rect
       style="fill:#ffffff;fill-opacity:1;stroke-width:6.02271;stroke-linecap:round"
       id="rect169"
       width="55.074368"
       height="11.800417"
       x="62.06575"
       y="281.82254"
       ry="1.3929124" /><path
       d="m 74.751489,288.81703 q 0,0.40989 -0.139072,0.68804 -0.139072,0.27082 -0.380619,0.43917 -0.234227,0.16104 -0.563608,0.23423 -0.322062,0.0659 -0.695361,0.0659 -0.300103,0 -0.622165,-0.0366 -0.322062,-0.0293 -0.636805,-0.0951 v -4.39908 q 0.256186,-0.0439 0.563609,-0.0732 0.307422,-0.0366 0.607526,-0.0366 0.512371,0 0.834433,0.10979 0.322062,0.10248 0.505052,0.27815 0.182989,0.16835 0.248866,0.38061 0.06588,0.21227 0.06588,0.42454 0,0.32206 -0.161031,0.57093 -0.153711,0.24886 -0.417217,0.39526 0.461135,0.16835 0.622166,0.45381 0.16835,0.28547 0.16835,0.60021 z m -2.13732,-0.61485 v 1.22969 q 0.09515,0.0146 0.204948,0.022 0.117114,0.007 0.226908,0.007 0.153711,0 0.300103,-0.022 0.146392,-0.0293 0.256185,-0.0951 0.117114,-0.0732 0.19031,-0.19763 0.0732,-0.13175 0.0732,-0.32938 0,-0.32938 -0.212268,-0.46846 -0.204949,-0.14639 -0.556289,-0.14639 z m 0.35134,-0.7466 q 0.344021,0 0.519691,-0.14639 0.17567,-0.15371 0.17567,-0.41721 0,-0.16104 -0.05124,-0.25619 -0.05124,-0.10247 -0.139072,-0.15371 -0.08783,-0.0586 -0.204949,-0.0732 -0.117113,-0.022 -0.241546,-0.022 -0.102474,0 -0.212268,0.007 -0.109794,0.007 -0.197629,0.022 v 1.03938 z m 5.218868,2.6131 q -0.248866,0.0659 -0.607526,0.13175 -0.35134,0.0659 -0.768557,0.0659 -0.424536,0 -0.695361,-0.11712 -0.270825,-0.11711 -0.431856,-0.32938 -0.153711,-0.21959 -0.212268,-0.51237 -0.05856,-0.29278 -0.05856,-0.64412 v -1.91774 h 0.90031 v 1.80062 q 0,0.47578 0.109794,0.71 0.117113,0.22691 0.446495,0.22691 0.204948,0 0.409897,-0.0366 v -2.70093 h 0.907629 z m 2.122681,-0.56361 q 0.329382,0 0.505052,-0.0439 0.17567,-0.0512 0.17567,-0.19763 0,-0.0952 -0.05856,-0.16103 -0.05124,-0.0659 -0.153711,-0.10979 -0.09516,-0.0512 -0.226908,-0.0952 -0.124433,-0.0439 -0.263505,-0.0878 -0.197629,-0.0586 -0.402577,-0.13175 -0.204949,-0.0805 -0.373299,-0.19763 -0.168351,-0.11712 -0.278145,-0.29279 -0.109794,-0.18299 -0.109794,-0.45381 0,-0.21959 0.08052,-0.4099 0.08783,-0.19763 0.263505,-0.34402 0.18299,-0.15371 0.461134,-0.23423 0.278145,-0.0878 0.666083,-0.0878 0.336701,0 0.622165,0.0512 0.292784,0.0512 0.505052,0.14639 l -0.139072,0.76123 q -0.124433,-0.0366 -0.387939,-0.11711 -0.263505,-0.0878 -0.592886,-0.0878 -0.344021,0 -0.468454,0.0878 -0.117114,0.0805 -0.117114,0.17567 0,0.0805 0.05124,0.14639 0.05856,0.0586 0.146391,0.1098 0.09515,0.0512 0.212268,0.10247 0.124433,0.0439 0.263506,0.0878 0.197629,0.0659 0.409897,0.14639 0.212268,0.0805 0.380618,0.20495 0.175671,0.11711 0.285464,0.30742 0.109794,0.18299 0.109794,0.45381 0,0.21227 -0.08052,0.40258 -0.08052,0.19031 -0.270825,0.32938 -0.18299,0.13908 -0.483093,0.21959 -0.300103,0.0805 -0.739279,0.0805 -0.446495,0 -0.761237,-0.10248 -0.314742,-0.10247 -0.505052,-0.18299 l 0.139073,-0.75392 q 0.256185,0.10248 0.541649,0.19031 0.292784,0.0878 0.592887,0.0878 z m 2.312991,-1.03938 q 0,-0.3733 0.117113,-0.70268 0.117114,-0.32938 0.35866,-0.57093 0.241547,-0.24887 0.607526,-0.38794 0.373299,-0.14639 0.88567,-0.14639 0.307423,0 0.556289,0.0439 0.248866,0.0439 0.505052,0.14639 l -0.197629,0.72464 q -0.146392,-0.0512 -0.329381,-0.0878 -0.175671,-0.0439 -0.453815,-0.0439 -0.322062,0 -0.54165,0.0805 -0.212268,0.0732 -0.34402,0.21227 -0.131753,0.13175 -0.19031,0.32206 -0.05856,0.19031 -0.05856,0.4099 0,0.47577 0.263506,0.7466 0.270825,0.27082 0.914948,0.27082 0.212269,0 0.439176,-0.0293 0.234227,-0.0293 0.424536,-0.0951 l 0.131753,0.73928 q -0.19031,0.0732 -0.461134,0.11711 -0.270825,0.0512 -0.636805,0.0512 -0.52701,0 -0.907629,-0.13908 -0.373299,-0.13907 -0.614846,-0.38061 -0.241546,-0.24155 -0.358659,-0.57093 -0.109794,-0.32938 -0.109794,-0.71 z m 5.17495,1.07598 q 0.146391,0 0.285464,0 0.139072,-0.007 0.241546,-0.022 v -0.79052 q -0.08783,-0.0146 -0.212268,-0.022 -0.124433,-0.0146 -0.226907,-0.0146 -0.139072,0 -0.270825,0.022 -0.131753,0.0146 -0.234227,0.0586 -0.09515,0.0439 -0.153711,0.12443 -0.05856,0.0805 -0.05856,0.21227 0,0.23423 0.17567,0.3367 0.17567,0.0952 0.453815,0.0952 z m -0.08052,-2.88392 q 0.424536,0 0.702681,0.10247 0.285464,0.0952 0.453814,0.27815 0.168351,0.17567 0.241547,0.43917 0.0732,0.25619 0.0732,0.57825 v 2.04949 q -0.197629,0.0439 -0.585567,0.10247 -0.387939,0.0586 -0.871032,0.0586 -0.329381,0 -0.600206,-0.0586 -0.263505,-0.0586 -0.453815,-0.19031 -0.190309,-0.13907 -0.292783,-0.35134 -0.102474,-0.21959 -0.102474,-0.53433 0,-0.3001 0.117113,-0.50505 0.117113,-0.20495 0.314742,-0.32938 0.197629,-0.12444 0.453815,-0.17567 0.256186,-0.0586 0.53433,-0.0586 0.35134,0 0.622165,0.0586 v -0.1098 q 0,-0.25618 -0.161031,-0.42453 -0.161031,-0.17567 -0.556289,-0.17567 -0.256185,0 -0.497732,0.0366 -0.234227,0.0366 -0.380618,0.0878 l -0.124434,-0.72464 q 0.168351,-0.0586 0.475774,-0.10247 0.307423,-0.0512 0.636804,-0.0512 z m 4.413713,0.0512 q 0.285464,0 0.468454,0.0878 0.182989,0.0878 0.285464,0.26351 0.109793,0.17567 0.146391,0.44649 0.0366,0.26351 0.0366,0.62217 v 2.0568 H 92.333142 V 288.085 q 0,-0.20495 -0.02928,-0.32938 -0.02196,-0.12444 -0.06588,-0.19031 -0.0366,-0.0659 -0.09515,-0.0878 -0.05124,-0.022 -0.109794,-0.022 -0.06588,0 -0.139072,0.0146 -0.0732,0.007 -0.131753,0.0366 0.02196,0.13907 0.0366,0.30742 0.01464,0.16835 0.01464,0.3733 v 0.68804 h -0.731959 v -0.79051 q 0,-0.35134 -0.0732,-0.49041 -0.06588,-0.13908 -0.219587,-0.13908 -0.04392,0 -0.109794,0.007 -0.05856,0.007 -0.117114,0.022 v 2.70093 H 89.82984 v -3.30845 q 0.285464,-0.0805 0.563609,-0.12444 0.278144,-0.0439 0.490412,-0.0439 0.19031,0 0.336702,0.0512 0.153711,0.0439 0.263505,0.15371 0.124433,-0.0805 0.292783,-0.13907 0.168351,-0.0659 0.351341,-0.0659 z m 3.22794,-0.95155 q 0,0.2635 -0.168351,0.41722 -0.16835,0.15371 -0.402577,0.15371 -0.234227,0 -0.402578,-0.15371 -0.161031,-0.15372 -0.161031,-0.41722 0,-0.27083 0.161031,-0.42454 0.168351,-0.15371 0.402578,-0.15371 0.234227,0 0.402577,0.15371 0.168351,0.15371 0.168351,0.42454 z m 1.339485,4.28196 q -0.278145,0.13175 -0.527011,0.17567 -0.241546,0.0512 -0.446495,0.0512 -0.35134,0 -0.592887,-0.10248 -0.234226,-0.10247 -0.380618,-0.29278 -0.139072,-0.19763 -0.197629,-0.47577 -0.05856,-0.27815 -0.05856,-0.63681 V 287.4921 H 93.54087 v -0.7466 h 1.851857 v 2.13 q 0,0.30743 0.109794,0.46114 0.117113,0.14639 0.380618,0.14639 0.124433,0 0.300103,-0.0293 0.175671,-0.0366 0.395258,-0.13907 z m 0.702679,-3.18402 q 0.241547,-0.0659 0.592887,-0.12444 0.35866,-0.0585 0.775876,-0.0585 0.409898,0 0.680722,0.11711 0.270825,0.1098 0.424537,0.32206 0.161032,0.20495 0.226912,0.49774 0.0659,0.28546 0.0659,0.6368 v 1.93969 h -0.900318 v -1.82258 q 0,-0.48309 -0.109794,-0.69536 -0.109794,-0.21227 -0.446495,-0.21227 -0.102474,0 -0.204949,0.007 -0.09515,0.007 -0.204948,0.022 v 2.70093 H 97.3983 Z m 5.035884,2.68629 q 0.14639,0 0.28546,0 0.13908,-0.007 0.24155,-0.022 v -0.79052 q -0.0878,-0.0146 -0.21227,-0.022 -0.12443,-0.0146 -0.22691,-0.0146 -0.13907,0 -0.27082,0.022 -0.13175,0.0146 -0.23423,0.0586 -0.0952,0.0439 -0.15371,0.12443 -0.0586,0.0805 -0.0586,0.21227 0,0.23423 0.17567,0.3367 0.17567,0.0952 0.45382,0.0952 z m -0.0805,-2.88392 q 0.42454,0 0.70268,0.10247 0.28547,0.0952 0.45382,0.27815 0.16835,0.17567 0.24155,0.43917 0.0732,0.25619 0.0732,0.57825 v 2.04949 q -0.19763,0.0439 -0.58557,0.10247 -0.38793,0.0586 -0.87103,0.0586 -0.32938,0 -0.6002,-0.0586 -0.26351,-0.0586 -0.45382,-0.19031 -0.19031,-0.13907 -0.29278,-0.35134 -0.10248,-0.21959 -0.10248,-0.53433 0,-0.3001 0.11712,-0.50505 0.11711,-0.20495 0.31474,-0.32938 0.19763,-0.12444 0.45381,-0.17567 0.25619,-0.0586 0.53433,-0.0586 0.35134,0 0.62217,0.0586 v -0.1098 q 0,-0.25618 -0.16103,-0.42453 -0.16103,-0.17567 -0.55629,-0.17567 -0.25619,0 -0.49773,0.0366 -0.23423,0.0366 -0.38062,0.0878 l -0.12443,-0.72464 q 0.16835,-0.0586 0.47577,-0.10247 0.30742,-0.0512 0.6368,-0.0512 z m 3.57196,2.84732 q 0.32939,0 0.50506,-0.0439 0.17567,-0.0512 0.17567,-0.19763 0,-0.0952 -0.0586,-0.16103 -0.0512,-0.0659 -0.15371,-0.10979 -0.0952,-0.0512 -0.22691,-0.0952 -0.12443,-0.0439 -0.2635,-0.0878 -0.19763,-0.0586 -0.40258,-0.13175 -0.20495,-0.0805 -0.3733,-0.19763 -0.16835,-0.11712 -0.27815,-0.29279 -0.10979,-0.18299 -0.10979,-0.45381 0,-0.21959 0.0805,-0.4099 0.0878,-0.19763 0.2635,-0.34402 0.18299,-0.15371 0.46114,-0.23423 0.27814,-0.0878 0.66608,-0.0878 0.3367,0 0.62216,0.0512 0.29279,0.0512 0.50505,0.14639 l -0.13907,0.76123 q -0.12443,-0.0366 -0.38794,-0.11711 -0.2635,-0.0878 -0.59288,-0.0878 -0.34402,0 -0.46846,0.0878 -0.11711,0.0805 -0.11711,0.17567 0,0.0805 0.0512,0.14639 0.0586,0.0586 0.14639,0.1098 0.0951,0.0512 0.21227,0.10247 0.12443,0.0439 0.2635,0.0878 0.19763,0.0659 0.4099,0.14639 0.21227,0.0805 0.38062,0.20495 0.17567,0.11711 0.28546,0.30742 0.1098,0.18299 0.1098,0.45381 0,0.21227 -0.0805,0.40258 -0.0805,0.19031 -0.27082,0.32938 -0.18299,0.13908 -0.4831,0.21959 -0.3001,0.0805 -0.73928,0.0805 -0.44649,0 -0.76123,-0.10248 -0.31475,-0.10247 -0.50505,-0.18299 l 0.13907,-0.75392 q 0.25618,0.10248 0.54165,0.19031 0.29278,0.0878 0.59288,0.0878 z"
       id="text169"
       style="font-weight:bold;font-size:7.31959px;line-height:1;font-family:'UbuntuMono Nerd Font';-inkscape-font-specification:'UbuntuMono Nerd Font Bold';text-align:center;text-anchor:middle;stroke-width:0.953882;stroke-linecap:round"
       aria-label="Buscaminas" /></g></svg>
