<?xml version="1.0" encoding="UTF-8" standalone="no"?>
<!-- Created with Inkscape (http://www.inkscape.org/) -->

<svg
   width="55.074364mm"
   height="23.6033mm"
   viewBox="0 0 55.074364 23.6033"
   version="1.1"
   id="svg1"
   xml:space="preserve"
   xmlns="http://www.w3.org/2000/svg"
   xmlns:svg="http://www.w3.org/2000/svg"><defs
     id="defs1" /><g
     id="layer1"
     transform="translate(-62.990064,-89.367902)"><rect
       style="fill:#2e3035;fill-opacity:1;stroke-width:8.51785;stroke-linecap:round"
       id="rect13"
       width="55.074368"
       height="23.6033"
       x="62.990063"
       y="89.367905"
       ry="2.7861159" /><path
       style="font-weight:bold;font-size:13.1958px;line-height:1;font-family:'Ubuntu Nerd Font';-inkscape-font-specification:'Ubuntu Nerd Font Bold';text-align:center;text-anchor:middle;fill:#31343a;stroke-width:2.67213;stroke-linecap:round"
       d="m 133.59964,22.121787 q 0,0.593811 -0.38268,0.91051 -0.36948,0.303504 -0.84453,0.303504 -0.47505,0 -0.85773,-0.303504 -0.36948,-0.316699 -0.36948,-0.91051 0,-0.593811 0.36948,-0.897314 0.38268,-0.316699 0.85773,-0.316699 0.47505,0 0.84453,0.316699 0.38268,0.303503 0.38268,0.897314 z m 0,4.684509 q 0,0.593811 -0.38268,0.91051 -0.36948,0.303504 -0.84453,0.303504 -0.47505,0 -0.85773,-0.303504 -0.36948,-0.316699 -0.36948,-0.91051 0,-0.593811 0.36948,-0.897314 0.38268,-0.316699 0.85773,-0.316699 0.47505,0 0.84453,0.316699 0.38268,0.303503 0.38268,0.897314 z m 3.40452,1.240405 q -0.35629,0 -0.75216,-0.05278 -0.39588,-0.03959 -0.76536,-0.118762 -0.36948,-0.07917 -0.67299,-0.171545 -0.3035,-0.09237 -0.47505,-0.171546 l 0.38268,-1.636279 q 0.34309,0.145154 0.87093,0.316699 0.54102,0.15835 1.33277,0.15835 0.91051,0 1.33278,-0.343091 0.42226,-0.343091 0.42226,-0.923706 0,-0.356287 -0.15835,-0.593811 -0.14515,-0.25072 -0.40907,-0.395874 -0.26391,-0.15835 -0.6334,-0.211133 -0.35628,-0.06598 -0.76535,-0.06598 h -0.76536 v -1.583496 h 0.87092 q 0.29031,0 0.55423,-0.05278 0.27711,-0.05278 0.48824,-0.171545 0.21114,-0.131958 0.3299,-0.343091 0.13196,-0.224329 0.13196,-0.554224 0,-0.25072 -0.10557,-0.435461 -0.10557,-0.184741 -0.27711,-0.303503 -0.15835,-0.118763 -0.38268,-0.171546 -0.21113,-0.06598 -0.43546,-0.06598 -0.56742,0 -1.05567,0.171546 -0.47504,0.171545 -0.87092,0.422265 l -0.69938,-1.438342 q 0.21114,-0.131958 0.48825,-0.277112 0.29031,-0.145154 0.6334,-0.263916 0.34309,-0.118762 0.72577,-0.197937 0.39587,-0.07917 0.83133,-0.07917 0.80495,0 1.38556,0.197937 0.59381,0.184742 0.97649,0.541028 0.38268,0.343091 0.56742,0.81814 0.18474,0.461853 0.18474,1.016076 0,0.541028 -0.3035,1.055664 -0.30351,0.501441 -0.81814,0.765357 0.71257,0.290307 1.09525,0.870922 0.39587,0.56742 0.39587,1.372364 0,0.633398 -0.21113,1.174426 -0.21113,0.527832 -0.65979,0.923706 -0.44866,0.382678 -1.14803,0.607007 -0.68619,0.211132 -1.63628,0.211132 z"
       id="text13"
       transform="matrix(0.89793309,0.56141333,-0.50060541,0.80067597,0,0)"
       aria-label=":3" /><rect
       style="fill:#3a406e;fill-opacity:1;stroke-width:2.15835;stroke-linecap:round"
       id="rect14"
       width="51.181988"
       height="6.1234403"
       x="64.936249"
       y="98.107834"
       ry="0.82897133" /><path
       d="m 70.358686,101.05384 q 0,0.26613 -0.06364,0.52648 -0.06364,0.26036 -0.19671,0.47442 -0.127283,0.21407 -0.323993,0.34135 -0.19671,0.1215 -0.462847,0.1215 -0.214067,0 -0.376063,-0.0984 -0.161997,-0.10414 -0.225638,-0.26613 h -0.04629 q -0.115712,0.14464 -0.312422,0.25456 -0.190924,0.10993 -0.462847,0.10993 -0.514918,0 -0.798412,-0.30664 -0.277708,-0.31242 -0.277708,-0.81577 0,-0.38763 0.167782,-0.68269 0.167782,-0.30086 0.474419,-0.46864 0.306636,-0.17357 0.723198,-0.17357 0.271923,0 0.561203,0.0521 0.295065,0.0463 0.457061,0.10415 l -0.05786,1.18604 q -0.0058,0.0579 -0.0058,0.1215 0,0.0579 0,0.0752 0,0.23721 0.06364,0.31821 0.06943,0.0752 0.150426,0.0752 0.133068,0 0.219852,-0.12728 0.08678,-0.13307 0.127283,-0.34714 0.04628,-0.21985 0.04628,-0.4802 0,-0.48599 -0.19671,-0.82155 -0.19671,-0.341354 -0.53806,-0.520707 -0.335564,-0.179354 -0.769484,-0.179354 -0.607487,0 -1.024049,0.254566 -0.410777,0.248785 -0.624844,0.682695 -0.214067,0.43392 -0.214067,0.99513 0,0.78105 0.416563,1.19761 0.422348,0.41657 1.209188,0.41657 0.335564,0 0.700057,-0.0752 0.364492,-0.0752 0.665342,-0.18514 v 0.54385 q -0.277708,0.11571 -0.619058,0.18514 -0.34135,0.0694 -0.723199,0.0694 -0.717413,0 -1.226545,-0.25457 -0.509132,-0.25457 -0.781054,-0.72898 -0.266137,-0.48021 -0.266137,-1.15134 0,-0.52649 0.173567,-0.97776 0.173568,-0.45128 0.497561,-0.786842 0.329779,-0.34135 0.78684,-0.526489 0.457062,-0.190924 1.02405,-0.190924 0.619058,0 1.099262,0.24878 0.480204,0.248781 0.752127,0.711628 0.277708,0.462847 0.277708,1.099267 z m -2.892795,0.35292 q 0,0.3182 0.133068,0.45706 0.133069,0.13885 0.352921,0.13885 0.28928,0 0.404992,-0.20828 0.121497,-0.21407 0.144639,-0.55542 l 0.03471,-0.62484 q -0.06364,-0.0116 -0.14464,-0.0174 -0.081,-0.0116 -0.179353,-0.0116 -0.271923,0 -0.439705,0.1215 -0.161996,0.11571 -0.237209,0.30664 -0.06943,0.18513 -0.06943,0.39342 z m 4.917748,1.77617 q -0.705842,0 -1.093477,-0.38763 -0.381849,-0.39342 -0.381849,-1.23233 0,-0.57856 0.19671,-0.94305 0.19671,-0.3645 0.543846,-0.53806 0.352921,-0.173572 0.809982,-0.173572 0.323993,0 0.561203,0.06364 0.242994,0.06364 0.422348,0.150422 l -0.254566,0.66535 q -0.202496,-0.081 -0.381849,-0.13307 -0.173568,-0.0521 -0.347136,-0.0521 -0.671128,0 -0.671128,0.95462 0,0.47442 0.173568,0.70006 0.179353,0.22564 0.49756,0.22564 0.271923,0 0.480204,-0.0694 0.208282,-0.0752 0.404992,-0.2025 v 0.73477 q -0.19671,0.12729 -0.416563,0.17936 -0.214067,0.0579 -0.543845,0.0579 z m 4.559044,-1.64311 q 0,0.78684 -0.416562,1.21498 -0.410777,0.42813 -1.122405,0.42813 -0.439704,0 -0.78684,-0.19092 -0.34135,-0.19093 -0.53806,-0.55542 -0.19671,-0.37028 -0.19671,-0.89677 0,-0.78684 0.410777,-1.20918 0.410777,-0.422352 1.12819,-0.422352 0.445491,0 0.78684,0.190922 0.34135,0.19093 0.53806,0.55542 0.19671,0.35871 0.19671,0.88519 z m -2.181167,0 q 0,0.46864 0.150425,0.71163 0.156211,0.23721 0.503347,0.23721 0.341349,0 0.491775,-0.23721 0.156211,-0.24299 0.156211,-0.71163 0,-0.46863 -0.156211,-0.70005 -0.150426,-0.23721 -0.497561,-0.23721 -0.34135,0 -0.497561,0.23721 -0.150425,0.23142 -0.150425,0.70005 z m 3.754845,1.58526 h -0.862053 v -4.397052 h 0.862053 z m 3.772207,-1.58526 q 0,0.78684 -0.416563,1.21498 -0.410777,0.42813 -1.122404,0.42813 -0.439705,0 -0.786841,-0.19092 -0.341349,-0.19093 -0.538059,-0.55542 -0.196711,-0.37028 -0.196711,-0.89677 0,-0.78684 0.410777,-1.20918 0.410777,-0.422352 1.12819,-0.422352 0.445491,0 0.786841,0.190922 0.34135,0.19093 0.53806,0.55542 0.19671,0.35871 0.19671,0.88519 z m -2.181168,0 q 0,0.46864 0.150426,0.71163 0.15621,0.23721 0.503346,0.23721 0.34135,0 0.491775,-0.23721 0.156211,-0.24299 0.156211,-0.71163 0,-0.46863 -0.156211,-0.70005 -0.150425,-0.23721 -0.497561,-0.23721 -0.34135,0 -0.49756,0.23721 -0.150426,0.23142 -0.150426,0.70005 z m 4.686326,-1.631532 q 0.509132,0 0.815768,0.277712 0.306636,0.27192 0.306636,0.87941 v 2.05967 h -0.862053 v -1.84561 q 0,-0.34135 -0.121497,-0.50913 -0.121497,-0.17357 -0.387635,-0.17357 -0.39342,0 -0.53806,0.27193 -0.144639,0.26613 -0.144639,0.76948 v 1.4869 h -0.862053 v -3.158936 h 0.659557 l 0.115712,0.404996 h 0.04628 q 0.150425,-0.243 0.410777,-0.35293 0.266137,-0.109922 0.561202,-0.109922 z m 1.729889,2.019172 v -0.70584 h 1.515824 v 0.70584 z m 3.471357,0.56699 q 0.144639,0 0.277708,-0.0289 0.133068,-0.0289 0.266137,-0.0694 v 0.6422 q -0.138854,0.0579 -0.347135,0.0984 -0.202496,0.0463 -0.445491,0.0463 -0.283494,0 -0.509132,-0.0926 -0.219852,-0.0926 -0.352921,-0.3182 -0.127283,-0.23143 -0.127283,-0.63642 v -1.52161 h -0.410777 v -0.36449 l 0.474419,-0.289282 0.24878,-0.665342 h 0.549631 v 0.671128 h 0.885195 v 0.647986 h -0.885195 v 1.52161 q 0,0.17935 0.104141,0.27192 0.10414,0.0868 0.271923,0.0868 z m 2.042313,-2.869656 q 0,0.231424 -0.01736,0.445486 -0.01157,0.21407 -0.02314,0.30086 h 0.04628 q 0.150425,-0.243 0.387634,-0.35293 0.237209,-0.109922 0.526489,-0.109922 0.514917,0 0.821554,0.277712 0.312422,0.27192 0.312422,0.87941 v 2.05967 h -0.862053 v -1.84561 q 0,-0.6827 -0.509132,-0.6827 -0.387635,0 -0.53806,0.27193 -0.14464,0.26613 -0.14464,0.76948 v 1.4869 h -0.862053 v -4.397052 h 0.862053 z m 4.703682,0.283494 q 0.06364,0 0.150426,0.0058 0.08678,0.0058 0.138854,0.01736 l -0.06364,0.809982 q -0.0405,-0.0116 -0.121497,-0.0174 -0.07521,-0.0116 -0.133069,-0.0116 -0.219852,0 -0.422348,0.081 -0.202495,0.0752 -0.329778,0.24878 -0.121498,0.17357 -0.121498,0.47442 v 1.6084 h -0.862053 v -3.158939 h 0.653772 l 0.127283,0.532279 h 0.0405 q 0.138854,-0.243 0.381849,-0.41656 0.242995,-0.173575 0.561202,-0.173575 z m 2.048099,0 q 0.653772,0 1.035621,0.376062 0.381853,0.37028 0.381853,1.05876 v 0.41657 h -2.036532 q 0.01157,0.36449 0.214067,0.57277 0.208281,0.20828 0.572774,0.20828 0.306636,0 0.555416,-0.0579 0.248781,-0.0636 0.514915,-0.19093 v 0.66534 q -0.231421,0.11572 -0.491772,0.16779 -0.254566,0.0579 -0.619059,0.0579 -0.474418,0 -0.83891,-0.17357 -0.364492,-0.17935 -0.572774,-0.53806 -0.208281,-0.3587 -0.208281,-0.90255 0,-0.55541 0.185139,-0.91991 0.190925,-0.37027 0.526489,-0.55541 0.335564,-0.185142 0.781054,-0.185142 z m 0.0058,0.613272 q -0.24878,0 -0.416562,0.162 -0.161997,0.16199 -0.190925,0.50334 h 1.209188 q -0.0058,-0.28928 -0.150425,-0.47441 -0.14464,-0.19093 -0.451276,-0.19093 z m 3.413494,-0.613272 q 0.65377,0 1.03562,0.376062 0.38185,0.37028 0.38185,1.05876 v 0.41657 h -2.03653 q 0.0116,0.36449 0.21407,0.57277 0.20828,0.20828 0.57277,0.20828 0.30664,0 0.55542,-0.0579 0.24878,-0.0636 0.51492,-0.19093 v 0.66534 q -0.23143,0.11572 -0.49178,0.16779 -0.25457,0.0579 -0.61906,0.0579 -0.47442,0 -0.83891,-0.17357 -0.36449,-0.17935 -0.57277,-0.53806 -0.20828,-0.3587 -0.20828,-0.90255 0,-0.55541 0.18514,-0.91991 0.19092,-0.37027 0.52648,-0.55541 0.33557,-0.185142 0.78106,-0.185142 z m 0.006,0.613272 q -0.24878,0 -0.41656,0.162 -0.16199,0.16199 -0.19092,0.50334 h 1.20919 q -0.006,-0.28928 -0.15043,-0.47441 -0.14464,-0.19093 -0.45128,-0.19093 z m 1.83403,1.4059 v -0.70584 h 1.51583 v 0.70584 z m 3.00273,-2.175383 q 0,0.179354 -0.0116,0.352923 -0.0116,0.17357 -0.0232,0.27192 h 0.0347 q 0.12728,-0.19671 0.34135,-0.32978 0.21406,-0.138852 0.55541,-0.138852 0.53228,0 0.86206,0.416562 0.32977,0.41078 0.32977,1.21497 0,0.80999 -0.33556,1.22655 -0.33556,0.41656 -0.87941,0.41656 -0.34713,0 -0.54963,-0.1215 -0.19671,-0.12728 -0.32399,-0.28349 h -0.0579 l -0.14464,0.34714 h -0.65956 v -4.397052 h 0.86206 z m 0.61905,0.844693 q -0.33556,0 -0.47441,0.20828 -0.13307,0.20829 -0.14464,0.63642 v 0.0926 q 0,0.45706 0.13306,0.70584 0.13886,0.243 0.49757,0.243 0.26613,0 0.42234,-0.243 0.15621,-0.24878 0.15621,-0.71163 0,-0.46284 -0.16199,-0.69427 -0.15621,-0.23721 -0.42814,-0.23721 z m 5.05082,0.94305 q 0,0.78684 -0.41656,1.21498 -0.41078,0.42813 -1.1224,0.42813 -0.43971,0 -0.78684,-0.19092 -0.34135,-0.19093 -0.53806,-0.55542 -0.19671,-0.37028 -0.19671,-0.89677 0,-0.78684 0.41077,-1.20918 0.41078,-0.422352 1.12819,-0.422352 0.44549,0 0.78684,0.190922 0.34135,0.19093 0.53806,0.55542 0.19671,0.35871 0.19671,0.88519 z m -2.18116,0 q 0,0.46864 0.15042,0.71163 0.15621,0.23721 0.50335,0.23721 0.34135,0 0.49177,-0.23721 0.15621,-0.24299 0.15621,-0.71163 0,-0.46863 -0.15621,-0.70005 -0.15042,-0.23721 -0.49756,-0.23721 -0.34135,0 -0.49756,0.23721 -0.15042,0.23142 -0.15042,0.70005 z m 4.22347,0.95463 q 0.14464,0 0.27771,-0.0289 0.13307,-0.0289 0.26614,-0.0694 v 0.6422 q -0.13886,0.0579 -0.34714,0.0984 -0.20249,0.0463 -0.44549,0.0463 -0.28349,0 -0.50913,-0.0926 -0.21985,-0.0926 -0.35292,-0.3182 -0.12728,-0.23143 -0.12728,-0.63642 v -1.52161 h -0.41078 v -0.36449 l 0.47442,-0.289282 0.24878,-0.665342 h 0.54963 v 0.671128 h 0.88519 v 0.647986 h -0.88519 v 1.52161 q 0,0.17935 0.10414,0.27192 0.10414,0.0868 0.27192,0.0868 z"
       id="text14"
       style="font-weight:bold;font-size:5.78559px;line-height:1;font-family:'Noto Sans';-inkscape-font-specification:'Noto Sans Bold';text-align:center;text-anchor:middle;fill:#c9cdfb;stroke-width:1.17157;stroke-linecap:round"
       aria-label="@colon-three-bot" /></g></svg>
