<?xml version="1.0" encoding="UTF-8" standalone="no"?>
<!-- Created with Inkscape (http://www.inkscape.org/) -->

<svg
   width="55.074371mm"
   height="11.800411mm"
   viewBox="0 0 55.074371 11.800411"
   version="1.1"
   id="svg1"
   xml:space="preserve"
   xmlns="http://www.w3.org/2000/svg"
   xmlns:svg="http://www.w3.org/2000/svg"><defs
     id="defs1" /><g
     id="layer1"
     transform="translate(-62.132139,-160.75816)"><rect
       style="fill:#000000;fill-opacity:1;stroke-width:6.02271;stroke-linecap:round"
       id="rect161"
       width="55.074368"
       height="11.800417"
       x="62.132137"
       y="160.75816"
       ry="1.3929124" /><path
       d="m 65.532959,169.53863 q -0.731959,0 -1.171134,-0.40989 -0.439176,-0.4099 -0.439176,-1.12722 v -1.09794 q 0,-0.71732 0.439176,-1.12721 0.439175,-0.4099 1.171134,-0.4099 0.695361,0 1.119897,0.3733 0.431856,0.3733 0.453815,1.01742 h -0.658763 q -0.02196,-0.38794 -0.263505,-0.59289 -0.241547,-0.21226 -0.651444,-0.21226 -0.431856,0 -0.695361,0.24886 -0.256186,0.24155 -0.256186,0.69536 v 1.10526 q 0,0.45382 0.256186,0.70268 0.263505,0.24887 0.695361,0.24887 0.409897,0 0.651444,-0.21227 0.241546,-0.21227 0.263505,-0.59289 h 0.658763 q -0.02196,0.64413 -0.453815,1.01743 -0.424536,0.37329 -1.119897,0.37329 z m 4.3332,-0.0146 q -0.724639,0 -1.156495,-0.42454 -0.424536,-0.42454 -0.424536,-1.18577 v -0.92227 q 0,-0.76856 0.424536,-1.18578 0.424536,-0.42453 1.156495,-0.42453 0.731959,0 1.156496,0.42453 0.424536,0.41722 0.424536,1.18578 v 0.92227 q 0,0.76123 -0.431856,1.18577 -0.424536,0.42454 -1.149176,0.42454 z m 0,-0.58557 q 0.431856,0 0.673403,-0.24155 0.248866,-0.24154 0.248866,-0.71 v -1.06866 q 0,-0.46845 -0.248866,-0.71 -0.241547,-0.24155 -0.673403,-0.24155 -0.424536,0 -0.673402,0.24155 -0.248866,0.24155 -0.248866,0.71 v 1.06866 q 0,0.46846 0.248866,0.71 0.248866,0.24155 0.673402,0.24155 z m 2.869283,0.52701 v -4.02578 h 0.658763 v 0.76856 h 0.0073 q 0.05124,-0.40258 0.329382,-0.62216 0.278144,-0.21959 0.739279,-0.21959 0.607526,0 0.966185,0.3733 0.35866,0.3733 0.35866,1.01742 v 2.70825 h -0.658763 v -2.59114 q 0,-0.46113 -0.234227,-0.70268 -0.226907,-0.24886 -0.622165,-0.24886 -0.409897,0 -0.651443,0.25618 -0.234227,0.25619 -0.234227,0.72464 v 2.56186 z m 5.482376,0 -1.368764,-4.02578 h 0.710001 l 0.87835,2.70825 q 0.08052,0.24155 0.139073,0.46846 0.05856,0.21958 0.08784,0.34402 0.0366,-0.12444 0.08783,-0.34402 0.05124,-0.22691 0.124433,-0.46846 l 0.878351,-2.70825 h 0.695361 l -1.368764,4.02578 z m 4.823612,0.0732 q -0.71,0 -1.149175,-0.42453 -0.431856,-0.43186 -0.431856,-1.18578 v -0.95154 q 0,-0.75392 0.431856,-1.17846 0.439175,-0.43185 1.149175,-0.43185 0.475774,0 0.827114,0.19031 0.35866,0.19031 0.556289,0.53433 0.197629,0.34402 0.197629,0.81247 v 0.71732 h -2.517939 v 0.38062 q 0,0.4465 0.256186,0.71 0.256185,0.25619 0.680721,0.25619 0.36598,0 0.600207,-0.13908 0.241546,-0.14639 0.292783,-0.38793 h 0.658764 q -0.06588,0.50505 -0.490413,0.80515 -0.424536,0.29278 -1.061341,0.29278 z m -0.936907,-2.4301 h 1.873815 v -0.20495 q 0,-0.47577 -0.248866,-0.73196 -0.241547,-0.2635 -0.688042,-0.2635 -0.446495,0 -0.695361,0.2635 -0.241546,0.25619 -0.241546,0.73196 z m 3.952582,2.35691 v -4.02578 h 0.658764 v 0.76856 h 0.01464 q 0.05124,-0.38794 0.329381,-0.61484 0.278145,-0.22691 0.746599,-0.22691 0.629484,0 0.966185,0.38062 0.344021,0.3733 0.344021,1.06866 v 0.34402 h -0.658763 v -0.34402 q 0,-0.87835 -0.856392,-0.87835 -0.431856,0 -0.658763,0.24886 -0.226907,0.24887 -0.226907,0.71732 v 2.56186 z m 6.170417,0 q -0.497732,0 -0.797835,-0.28547 -0.300104,-0.29278 -0.300104,-0.77587 v -2.36423 h -1.156495 v -0.60021 h 1.156495 v -1.13453 h 0.658764 v 1.13453 h 1.646907 v 0.60021 h -1.646907 v 2.36423 q 0,0.20495 0.117113,0.3367 0.124433,0.12443 0.322062,0.12443 h 1.171134 v 0.60021 z m 2.320312,0 v -5.3433 h 0.973505 l 0.680722,2.31299 0.710001,-2.31299 h 0.973505 v 5.3433 h -0.636804 v -2.52526 q 0,-0.35866 0.0073,-0.81979 0.01464,-0.46846 0.0366,-0.94423 0.02196,-0.47577 0.05124,-0.85639 l -0.863711,2.75948 h -0.570928 l -0.827114,-2.69361 q 0.05856,0.54165 0.08052,1.18578 0.02196,0.64412 0.02196,1.36876 v 2.52526 z m 6.053306,0.0732 q -0.695362,0 -1.112579,-0.40989 -0.417216,-0.41722 -0.417216,-1.12722 v -2.56186 h 0.658763 v 2.56186 q 0,0.43918 0.234227,0.70268 0.234225,0.25619 0.636805,0.25619 0.4099,0 0.64412,-0.25619 0.24155,-0.2635 0.24155,-0.70268 v -2.56186 h 0.65876 v 2.56186 q 0,0.71 -0.42453,1.12722 -0.42454,0.40989 -1.1199,0.40989 z m 4.23805,-0.0146 q -0.67341,0 -1.04671,-0.30011 -0.36598,-0.30742 -0.36598,-0.86371 h 0.65877 q 0,0.27815 0.19763,0.43918 0.19763,0.15371 0.55629,0.15371 h 0.32206 q 0.36598,0 0.56361,-0.16103 0.20494,-0.16103 0.20494,-0.45382 0,-0.51969 -0.47577,-0.58557 l -1.11258,-0.16103 q -0.40989,-0.0585 -0.6368,-0.3367 -0.22691,-0.28546 -0.22691,-0.7466 0,-0.52701 0.35866,-0.82711 0.36598,-0.3001 1.00279,-0.3001 h 0.32206 q 0.58556,0 0.95154,0.29278 0.3733,0.28547 0.40258,0.75392 h -0.66608 q -0.0146,-0.21227 -0.20495,-0.35134 -0.18299,-0.13907 -0.48309,-0.13907 h -0.32206 q -0.33671,0 -0.52702,0.15371 -0.1903,0.15371 -0.1903,0.41721 0,0.42454 0.38793,0.4831 l 1.03939,0.14639 q 1.02474,0.14639 1.02474,1.20041 0,0.56361 -0.3733,0.87835 -0.36598,0.30743 -1.03938,0.30743 z m 2.97907,-0.0586 v -0.60021 h 1.42732 v -2.82536 h -1.28093 v -0.60021 h 1.9397 v 3.42557 h 1.35412 v 0.60021 z m 1.68351,-4.75042 q -0.24155,0 -0.38062,-0.12443 -0.13907,-0.12443 -0.13907,-0.3367 0,-0.21959 0.13907,-0.34402 0.13907,-0.13175 0.38062,-0.13175 0.24154,0 0.38062,0.13175 0.13907,0.12443 0.13907,0.34402 0,0.21227 -0.13907,0.3367 -0.13908,0.12443 -0.38062,0.12443 z m 4.34052,4.82361 q -0.73196,0 -1.17114,-0.40989 -0.43917,-0.4099 -0.43917,-1.12722 v -1.09794 q 0,-0.71732 0.43917,-1.12721 0.43918,-0.4099 1.17114,-0.4099 0.69536,0 1.11989,0.3733 0.43186,0.3733 0.45382,1.01742 h -0.65877 q -0.022,-0.38794 -0.2635,-0.59289 -0.24155,-0.21226 -0.65144,-0.21226 -0.43186,0 -0.69537,0.24886 -0.25618,0.24155 -0.25618,0.69536 v 1.10526 q 0,0.45382 0.25618,0.70268 0.26351,0.24887 0.69537,0.24887 0.40989,0 0.65144,-0.21227 0.24155,-0.21227 0.2635,-0.59289 h 0.65877 q -0.022,0.64413 -0.45382,1.01743 -0.42453,0.37329 -1.11989,0.37329 z"
       id="text161"
       style="font-size:7.31959px;line-height:1;font-family:'JetBrainsMono Nerd Font';-inkscape-font-specification:'JetBrainsMono Nerd Font';text-align:center;text-anchor:middle;fill:#44aa00;stroke-width:0.953882;stroke-linecap:round"
       aria-label="convertMusic" /></g></svg>
