<?xml version="1.0" encoding="UTF-8" standalone="no"?>
<!-- Created with Inkscape (http://www.inkscape.org/) -->

<svg
   width="55.074364mm"
   height="11.800411mm"
   viewBox="0 0 55.074364 11.800411"
   version="1.1"
   id="svg1"
   xml:space="preserve"
   xmlns="http://www.w3.org/2000/svg"
   xmlns:svg="http://www.w3.org/2000/svg"><defs
     id="defs1" /><g
     id="layer1"
     transform="translate(-62.215208,-214.6459)"><rect
       style="fill:#000000;fill-opacity:1;stroke-width:6.02271;stroke-linecap:round"
       id="rect177"
       width="55.074368"
       height="11.800417"
       x="62.215206"
       y="214.64589"
       ry="1.3929124" /><rect
       style="fill:#000000;fill-opacity:1;stroke-width:6.02271;stroke-linecap:round"
       id="rect178"
       width="55.074368"
       height="11.800417"
       x="62.215206"
       y="214.64589"
       ry="1.3929124" /><path
       d="m 66.128392,224.9164 v -4.02578 h 0.570928 v 0.53433 h 0.01464 q 0.0366,-0.27082 0.212268,-0.43917 0.18299,-0.16835 0.461134,-0.16835 0.263505,0 0.446495,0.15371 0.18299,0.15371 0.263505,0.41721 h 0.0073 q 0.05124,-0.2635 0.226907,-0.41721 0.18299,-0.15371 0.461134,-0.15371 0.387939,0 0.614846,0.29278 0.234227,0.28546 0.234227,0.7466 v 3.05959 H 69.02695 v -3.06691 q 0,-0.24155 -0.117113,-0.38062 -0.117114,-0.14639 -0.322062,-0.14639 -0.197629,0 -0.314743,0.13907 -0.117113,0.13907 -0.117113,0.38062 v 3.07423 h -0.54165 v -3.06691 q 0,-0.24155 -0.117113,-0.38062 -0.117114,-0.14639 -0.314743,-0.14639 -0.204948,0 -0.322062,0.13907 -0.117113,0.13907 -0.117113,0.38062 v 3.07423 z m 5.797119,0.0732 q -0.622165,0 -0.988145,-0.34402 -0.365979,-0.35134 -0.365979,-0.91495 0,-0.3733 0.16835,-0.65144 0.168351,-0.27814 0.468454,-0.43186 0.300103,-0.16103 0.688041,-0.16103 h 1.244331 v -0.31474 q 0,-0.7832 -0.856392,-0.7832 -0.380619,0 -0.614846,0.13908 -0.234227,0.13907 -0.248866,0.38794 h -0.658763 q 0.0366,-0.47578 0.439175,-0.7832 0.409897,-0.31474 1.0833,-0.31474 0.731959,0 1.119897,0.35134 0.395258,0.35134 0.395258,0.98082 v 2.76681 h -0.651444 v -0.73196 h -0.01464 q -0.05856,0.3733 -0.373299,0.59288 -0.314742,0.21227 -0.834433,0.21227 z m 0.161031,-0.55629 q 0.483093,0 0.768557,-0.23422 0.285464,-0.23423 0.285464,-0.63681 v -0.56361 h -1.171135 q -0.322062,0 -0.52701,0.19763 -0.197629,0.19031 -0.197629,0.51237 0,0.33671 0.219588,0.53433 0.226907,0.19031 0.622165,0.19031 z m 4.984644,0.4831 q -0.497733,0 -0.797836,-0.28547 -0.300103,-0.29278 -0.300103,-0.77587 v -2.36423 h -1.156495 v -0.60021 h 1.156495 v -1.13453 h 0.658763 v 1.13453 h 1.646908 v 0.60021 H 76.63201 v 2.36423 q 0,0.20495 0.117114,0.3367 0.124433,0.12443 0.322062,0.12443 h 1.171134 v 0.60021 z m 3.989179,0.0732 q -0.71,0 -1.149176,-0.42453 -0.431855,-0.43186 -0.431855,-1.18578 v -0.95154 q 0,-0.75392 0.431855,-1.17846 0.439176,-0.43185 1.149176,-0.43185 0.475773,0 0.827114,0.19031 0.35866,0.19031 0.556289,0.53433 0.197629,0.34402 0.197629,0.81247 v 0.71732 h -2.517939 v 0.38062 q 0,0.44649 0.256185,0.71 0.256186,0.25618 0.680722,0.25618 0.36598,0 0.600206,-0.13907 0.241547,-0.14639 0.292784,-0.38794 h 0.658763 q -0.06588,0.50506 -0.490412,0.80516 -0.424537,0.29278 -1.061341,0.29278 z m -0.936907,-2.4301 h 1.873815 v -0.20495 q 0,-0.47577 -0.248866,-0.73196 -0.241547,-0.2635 -0.688042,-0.2635 -0.446495,0 -0.695361,0.2635 -0.241546,0.25619 -0.241546,0.73196 z m 3.571962,2.35691 v -4.02578 h 0.570929 v 0.53433 h 0.01464 q 0.0366,-0.27082 0.212268,-0.43917 0.18299,-0.16835 0.461134,-0.16835 0.263505,0 0.446495,0.15371 0.18299,0.15371 0.263505,0.41721 h 0.0073 q 0.05124,-0.2635 0.226907,-0.41721 0.18299,-0.15371 0.461134,-0.15371 0.387939,0 0.614846,0.29278 0.234227,0.28546 0.234227,0.7466 v 3.05959 h -0.614846 v -3.06691 q 0,-0.24155 -0.117113,-0.38062 -0.117114,-0.14639 -0.322062,-0.14639 -0.197629,0 -0.314743,0.13907 -0.117113,0.13907 -0.117113,0.38062 v 3.07423 h -0.54165 v -3.06691 q 0,-0.24155 -0.117113,-0.38062 -0.117114,-0.14639 -0.314743,-0.14639 -0.204948,0 -0.322061,0.13907 -0.117114,0.13907 -0.117114,0.38062 v 3.07423 z m 5.79712,0.0732 q -0.622165,0 -0.988145,-0.34402 -0.365979,-0.35134 -0.365979,-0.91495 0,-0.3733 0.16835,-0.65144 0.168351,-0.27814 0.468454,-0.43186 0.300103,-0.16103 0.688041,-0.16103 h 1.244331 v -0.31474 q 0,-0.7832 -0.856392,-0.7832 -0.380619,0 -0.614846,0.13908 -0.234227,0.13907 -0.248866,0.38794 h -0.658763 q 0.0366,-0.47578 0.439175,-0.7832 0.409897,-0.31474 1.0833,-0.31474 0.731959,0 1.119897,0.35134 0.395258,0.35134 0.395258,0.98082 v 2.76681 h -0.651444 v -0.73196 h -0.01464 q -0.05856,0.3733 -0.373299,0.59288 -0.314742,0.21227 -0.834433,0.21227 z m 0.161031,-0.55629 q 0.483093,0 0.768557,-0.23422 0.285464,-0.23423 0.285464,-0.63681 v -0.56361 h -1.171135 q -0.322062,0 -0.52701,0.19763 -0.197629,0.19031 -0.197629,0.51237 0,0.33671 0.219588,0.53433 0.226907,0.19031 0.622165,0.19031 z m -0.197629,-4.23804 0.775876,-1.02474 h 0.710001 l -0.812475,1.02474 z m 5.182272,4.72114 q -0.497733,0 -0.797836,-0.28547 -0.300103,-0.29278 -0.300103,-0.77587 v -2.36423 H 92.38378 v -0.60021 h 1.156495 v -1.13453 h 0.658763 v 1.13453 h 1.646908 v 0.60021 h -1.646908 v 2.36423 q 0,0.20495 0.117114,0.3367 0.124433,0.12443 0.322062,0.12443 h 1.171134 v 0.60021 z m 2.415466,0 v -0.60021 H 98.481 v -2.82536 h -1.280928 v -0.60021 h 1.939692 v 3.42557 h 1.354126 v 0.60021 z m 1.683506,-4.75042 q -0.241546,0 -0.380619,-0.12443 -0.139072,-0.12443 -0.139072,-0.3367 0,-0.21959 0.139072,-0.34402 0.139073,-0.13175 0.380619,-0.13175 0.241547,0 0.380619,0.13175 0.139072,0.12443 0.139072,0.34402 0,0.21227 -0.139072,0.3367 -0.139072,0.12443 -0.380619,0.12443 z m 4.340524,4.82361 q -0.73196,0 -1.17114,-0.40989 -0.43917,-0.4099 -0.43917,-1.12722 v -1.09794 q 0,-0.71732 0.43917,-1.12722 0.43918,-0.40989 1.17114,-0.40989 0.69536,0 1.11989,0.3733 0.43186,0.37329 0.45382,1.01742 h -0.65876 q -0.022,-0.38794 -0.26351,-0.59289 -0.24155,-0.21227 -0.65144,-0.21227 -0.43186,0 -0.69536,0.24887 -0.25619,0.24155 -0.25619,0.69536 v 1.10526 q 0,0.45381 0.25619,0.70268 0.2635,0.24887 0.69536,0.24887 0.40989,0 0.65144,-0.21227 0.24155,-0.21227 0.26351,-0.59289 h 0.65876 q -0.022,0.64412 -0.45382,1.01742 -0.42453,0.3733 -1.11989,0.3733 z m 3.98186,0 q -0.62217,0 -0.98815,-0.34402 -0.36598,-0.35134 -0.36598,-0.91495 0,-0.3733 0.16835,-0.65144 0.16835,-0.27814 0.46846,-0.43186 0.3001,-0.16103 0.68804,-0.16103 h 1.24433 v -0.31474 q 0,-0.7832 -0.85639,-0.7832 -0.38062,0 -0.61485,0.13908 -0.23422,0.13907 -0.24886,0.38794 h -0.65877 q 0.0366,-0.47578 0.43918,-0.7832 0.4099,-0.31474 1.0833,-0.31474 0.73196,0 1.11989,0.35134 0.39526,0.35134 0.39526,0.98082 v 2.76681 h -0.65144 v -0.73196 h -0.0146 q -0.0586,0.3733 -0.3733,0.59288 -0.31474,0.21227 -0.83443,0.21227 z m 0.16103,-0.55629 q 0.48309,0 0.76856,-0.23422 0.28546,-0.23423 0.28546,-0.63681 v -0.56361 h -1.17113 q -0.32207,0 -0.52702,0.19763 -0.19762,0.19031 -0.19762,0.51237 0,0.33671 0.21958,0.53433 0.22691,0.19031 0.62217,0.19031 z m 4.42104,0.54165 q -0.67341,0 -1.04671,-0.3001 -0.36598,-0.30742 -0.36598,-0.86371 h 0.65877 q 0,0.27814 0.19763,0.43917 0.19763,0.15372 0.55629,0.15372 h 0.32206 q 0.36598,0 0.56361,-0.16104 0.20494,-0.16103 0.20494,-0.45381 0,-0.51969 -0.47577,-0.58557 l -1.11258,-0.16103 q -0.40989,-0.0585 -0.6368,-0.3367 -0.22691,-0.28546 -0.22691,-0.7466 0,-0.52701 0.35866,-0.82711 0.36598,-0.3001 1.00279,-0.3001 h 0.32206 q 0.58556,0 0.95154,0.29278 0.3733,0.28546 0.40258,0.75392 h -0.66608 q -0.0146,-0.21227 -0.20495,-0.35134 -0.18299,-0.13908 -0.48309,-0.13908 h -0.32206 q -0.33671,0 -0.52702,0.15372 -0.1903,0.15371 -0.1903,0.41721 0,0.42454 0.38793,0.4831 l 1.03939,0.14639 q 1.02474,0.14639 1.02474,1.20041 0,0.56361 -0.3733,0.87835 -0.36598,0.30742 -1.03938,0.30742 z"
       id="text178"
       style="font-size:7.31959px;line-height:1;font-family:'JetBrainsMono Nerd Font';-inkscape-font-specification:'JetBrainsMono Nerd Font';text-align:center;text-anchor:middle;fill:#f2f2f2;stroke-width:0.953882;stroke-linecap:round"
       aria-label="matemáticas" /><path
       d="m 67.323503,218.81532 q -0.475918,0 -0.761469,-0.26651 -0.285551,-0.26652 -0.285551,-0.73292 v -0.71387 q 0,-0.4664 0.285551,-0.73292 0.285551,-0.26651 0.761469,-0.26651 0.452122,0 0.728154,0.24272 0.280792,0.24272 0.29507,0.66152 H 67.9184 q -0.01428,-0.25223 -0.17133,-0.38549 -0.157053,-0.13802 -0.423567,-0.13802 -0.280792,0 -0.452122,0.16182 -0.166572,0.15705 -0.166572,0.45212 v 0.71863 q 0,0.29507 0.166572,0.45689 0.17133,0.16181 0.452122,0.16181 0.266514,0 0.423567,-0.13802 0.157053,-0.13801 0.17133,-0.38549 h 0.428327 q -0.01428,0.41881 -0.29507,0.66152 -0.276032,0.24272 -0.728154,0.24272 z m 2.817436,-0.01 q -0.471159,0 -0.75195,-0.27603 -0.276033,-0.27603 -0.276033,-0.77099 v -0.59965 q 0,-0.49972 0.276033,-0.77099 0.276032,-0.27603 0.75195,-0.27603 0.475918,0 0.751951,0.27603 0.276032,0.27127 0.276032,0.77099 v 0.59965 q 0,0.49496 -0.280792,0.77099 -0.276032,0.27603 -0.747191,0.27603 z m 0,-0.38073 q 0.280792,0 0.437845,-0.15705 0.161812,-0.15706 0.161812,-0.46164 v -0.69484 q 0,-0.30459 -0.161812,-0.46164 -0.157053,-0.15706 -0.437845,-0.15706 -0.276032,0 -0.437844,0.15706 -0.161813,0.15705 -0.161813,0.46164 v 0.69484 q 0,0.30458 0.161813,0.46164 0.161812,0.15705 0.437844,0.15705 z m 2.750808,0.38073 q -0.437845,0 -0.680563,-0.19512 -0.237959,-0.19989 -0.237959,-0.56159 h 0.428326 q 0,0.18085 0.128498,0.28556 0.128498,0.0999 0.361698,0.0999 h 0.209404 q 0.237959,0 0.366457,-0.1047 0.133257,-0.10471 0.133257,-0.29507 0,-0.3379 -0.309347,-0.38074 l -0.723395,-0.1047 q -0.266514,-0.0381 -0.414049,-0.21892 -0.147535,-0.18561 -0.147535,-0.48544 0,-0.34266 0.2332,-0.53779 0.237959,-0.19512 0.652008,-0.19512 h 0.209404 q 0.380734,0 0.618693,0.19037 0.242718,0.1856 0.261755,0.49019 h -0.433085 q -0.0095,-0.13802 -0.133257,-0.22844 -0.11898,-0.0904 -0.314106,-0.0904 h -0.209404 q -0.218922,0 -0.342661,0.0999 -0.123739,0.0999 -0.123739,0.27127 0,0.27603 0.252237,0.31411 l 0.675803,0.0952 q 0.666286,0.0952 0.666286,0.78051 0,0.36645 -0.242719,0.5711 -0.237959,0.19988 -0.675803,0.19988 z m 2.731771,0.01 q -0.40453,0 -0.642489,-0.22368 -0.237959,-0.22844 -0.237959,-0.5949 0,-0.24271 0.109461,-0.42356 0.109461,-0.18085 0.304587,-0.2808 0.195127,-0.1047 0.447363,-0.1047 h 0.809061 v -0.20464 q 0,-0.50923 -0.556824,-0.50923 -0.247478,0 -0.399771,0.0904 -0.152294,0.0904 -0.161812,0.25224 h -0.428327 q 0.0238,-0.30935 0.285551,-0.50924 0.266514,-0.20464 0.704359,-0.20464 0.475918,0 0.728154,0.22844 0.256996,0.22844 0.256996,0.63773 v 1.79897 h -0.423567 v -0.47592 h -0.0095 q -0.03807,0.24272 -0.242718,0.3855 -0.204645,0.13801 -0.542547,0.13801 z m 0.104702,-0.3617 q 0.314106,0 0.499714,-0.15229 0.185608,-0.15229 0.185608,-0.41405 v -0.36645 h -0.761469 q -0.209404,0 -0.342661,0.12849 -0.128498,0.12374 -0.128498,0.33315 0,0.21892 0.142776,0.34742 0.147534,0.12373 0.40453,0.12373 z"
       id="text179"
       style="font-size:4.75918px;line-height:1;font-family:'JetBrainsMono Nerd Font';-inkscape-font-specification:'JetBrainsMono Nerd Font';text-align:center;text-anchor:middle;fill:#f2f2f2;stroke-width:0.620211;stroke-linecap:round"
       aria-label="cosa" /></g></svg>
