<?xml version="1.0" encoding="UTF-8" standalone="no"?>
<!-- Created with Inkscape (http://www.inkscape.org/) -->

<svg
   width="210mm"
   height="297mm"
   viewBox="0 0 210 297"
   version="1.1"
   id="svg1"
   xml:space="preserve"
   inkscape:version="1.3.2 (091e20ef0f, 2023-11-25)"
   sodipodi:docname="drawing.svg"
   xmlns:inkscape="http://www.inkscape.org/namespaces/inkscape"
   xmlns:sodipodi="http://sodipodi.sourceforge.net/DTD/sodipodi-0.dtd"
   xmlns="http://www.w3.org/2000/svg"
   xmlns:svg="http://www.w3.org/2000/svg"><sodipodi:namedview
     id="namedview1"
     pagecolor="#505050"
     bordercolor="#eeeeee"
     borderopacity="1"
     inkscape:showpageshadow="0"
     inkscape:pageopacity="0"
     inkscape:pagecheckerboard="0"
     inkscape:deskcolor="#505050"
     inkscape:document-units="mm"
     inkscape:zoom="2.8775119"
     inkscape:cx="368.3738"
     inkscape:cy="187.83589"
     inkscape:window-width="1350"
     inkscape:window-height="728"
     inkscape:window-x="0"
     inkscape:window-y="0"
     inkscape:window-maximized="1"
     inkscape:current-layer="g7" /><defs
     id="defs1" /><g
     inkscape:label="Layer 1"
     inkscape:groupmode="layer"
     id="layer1"><rect
       style="fill:#008000;stroke-width:8.51785;stroke-linecap:round"
       id="rect1"
       width="55.074368"
       height="23.6033"
       x="3.6940897"
       y="2.2962513"
       ry="2.7861159" /><g
       id="g5"><rect
         style="fill:#ffffff;stroke-width:8.51785;stroke-linecap:round;fill-opacity:1"
         id="rect2"
         width="55.074368"
         height="23.6033"
         x="3.6940897"
         y="31.788298"
         ry="2.7861159" /><g
         id="g4"
         transform="translate(0,-1.1145745)"><text
           xml:space="preserve"
           style="font-style:normal;font-variant:normal;font-weight:bold;font-stretch:normal;font-size:11.5673px;line-height:1;font-family:'Ubuntu Nerd Font';-inkscape-font-specification:'Ubuntu Nerd Font Bold';text-align:center;text-anchor:middle;fill:#000000;fill-opacity:1;stroke-width:2.34236;stroke-linecap:round"
           x="30.884256"
           y="47.997086"
           id="text2"><tspan
             sodipodi:role="line"
             id="tspan2"
             style="font-style:normal;font-variant:normal;font-weight:bold;font-stretch:normal;font-family:'Ubuntu Nerd Font';-inkscape-font-specification:'Ubuntu Nerd Font Bold';fill:#000000;stroke-width:2.34236"
             x="30.884256"
             y="47.997086">md-view</tspan></text><rect
           style="fill:#62a0ea;fill-opacity:1;stroke-width:1.00012;stroke-linecap:round"
           id="rect3"
           width="46.412472"
           height="1.4141312"
           x="8.0250368"
           y="48.974052" /></g></g><g
       id="g7"
       transform="translate(59.582725)"><rect
         style="fill:#ffffff;fill-opacity:1;stroke-width:8.51785;stroke-linecap:round"
         id="rect5"
         width="55.074368"
         height="23.6033"
         x="3.6940897"
         y="31.788298"
         ry="2.7861159" /><g
         id="g6"
         transform="translate(0,-1.1145745)"><path
           d="m 11.699901,44.769809 q 0,-0.832846 -0.219778,-1.179865 -0.208212,-0.347019 -0.72874,-0.347019 -0.161942,0 -0.335452,0.02314 -0.173509,0.01157 -0.335451,0.0347 v 4.696324 H 8.3569518 v -5.876189 q 0.2197787,-0.05784 0.5089612,-0.115673 0.3007498,-0.0694 0.6246342,-0.115673 0.3354517,-0.05784 0.6824708,-0.08097 0.347019,-0.0347 0.682471,-0.0347 0.659336,0 1.064191,0.17351 0.416423,0.161942 0.682471,0.393288 0.370153,-0.266048 0.844413,-0.416423 0.485826,-0.150375 0.890682,-0.150375 0.72874,0 1.191432,0.208212 0.474259,0.196644 0.751874,0.566797 0.277615,0.370154 0.381721,0.879115 0.104106,0.508961 0.104106,1.133596 v 3.435488 h -1.723528 v -3.227277 q 0,-0.832846 -0.219779,-1.179865 -0.208211,-0.347019 -0.728739,-0.347019 -0.138808,0 -0.393289,0.0694 -0.242913,0.0694 -0.404855,0.17351 0.08097,0.266048 0.104106,0.566797 0.02313,0.289183 0.02313,0.624635 v 3.319815 h -1.723528 z m 8.097104,0.138808 q 0,0.798143 0.358587,1.28397 0.358586,0.485826 1.064191,0.485826 0.231346,0 0.42799,-0.01157 0.196644,-0.02313 0.323885,-0.04627 v -3.134738 q -0.161943,-0.104106 -0.42799,-0.17351 -0.254481,-0.0694 -0.520529,-0.0694 -1.226134,0 -1.226134,1.665692 z m 3.89818,2.891824 q -0.231346,0.0694 -0.532095,0.138808 -0.30075,0.05784 -0.636202,0.104106 -0.323884,0.04627 -0.670903,0.0694 -0.335452,0.0347 -0.647769,0.0347 -0.751875,0 -1.341807,-0.219778 -0.589932,-0.219779 -0.994788,-0.624634 -0.404855,-0.416423 -0.624634,-0.994788 -0.208211,-0.589932 -0.208211,-1.318672 0,-0.740308 0.185077,-1.33024 0.185076,-0.601499 0.532095,-1.017922 0.347019,-0.416423 0.844413,-0.636202 0.508961,-0.219778 1.15673,-0.219778 0.358586,0 0.636202,0.0694 0.289182,0.0694 0.578365,0.196644 v -2.753017 l 1.723527,-0.277615 z m 1.353368,-4.036987 h 3.354517 v 1.561585 h -3.354517 z m 6.107537,4.233632 q -0.589933,-1.15673 -1.203,-2.706749 -0.601499,-1.550018 -1.145162,-3.377651 h 1.827633 q 0.115673,0.451125 0.266048,0.98322 0.161942,0.520529 0.323884,1.064192 0.17351,0.532096 0.335452,1.041057 0.17351,0.508961 0.335452,0.925384 0.150375,-0.416423 0.323884,-0.925384 0.17351,-0.508961 0.335452,-1.041057 0.173509,-0.543663 0.323884,-1.064192 0.161942,-0.532095 0.277615,-0.98322 h 1.781365 q -0.543664,1.827633 -1.15673,3.377651 -0.6015,1.550019 -1.191432,2.706749 z m 6.431409,0 h -1.723528 v -6.0844 h 1.723528 z m 0.161942,-7.84263 q 0,0.47426 -0.312317,0.751875 -0.30075,0.266048 -0.717173,0.266048 -0.416423,0 -0.72874,-0.266048 -0.30075,-0.277615 -0.30075,-0.751875 0,-0.474259 0.30075,-0.740307 0.312317,-0.277615 0.72874,-0.277615 0.416423,0 0.717173,0.277615 0.312317,0.266048 0.312317,0.740307 z m 1.168292,4.846699 q 0,-0.809711 0.242914,-1.411211 0.25448,-0.613067 0.659336,-1.017922 0.404855,-0.404856 0.925384,-0.613067 0.532096,-0.208211 1.087326,-0.208211 1.295538,0 2.047412,0.798143 0.751875,0.786577 0.751875,2.325028 0,0.150375 -0.01157,0.335451 -0.01157,0.17351 -0.02313,0.312317 H 40.68753 q 0.05784,0.532096 0.497394,0.844413 0.439558,0.312317 1.179865,0.312317 0.474259,0 0.925384,-0.08097 0.462692,-0.09254 0.751874,-0.219778 l 0.231346,1.399643 q -0.138807,0.0694 -0.370153,0.138807 -0.231346,0.0694 -0.520529,0.115673 -0.277615,0.05784 -0.601499,0.09254 -0.323885,0.0347 -0.647769,0.0347 -0.821278,0 -1.434345,-0.242914 -0.6015,-0.242913 -1.006355,-0.659336 -0.393289,-0.42799 -0.589933,-1.006355 -0.185077,-0.578365 -0.185077,-1.249268 z m 4.048555,-0.659336 q -0.01157,-0.219779 -0.08097,-0.42799 -0.05784,-0.208212 -0.196644,-0.370154 -0.12724,-0.161942 -0.335451,-0.266048 -0.196645,-0.104105 -0.497394,-0.104105 -0.289183,0 -0.497394,0.104105 -0.208212,0.09254 -0.347019,0.254481 -0.138808,0.161942 -0.219779,0.381721 -0.0694,0.208211 -0.104106,0.42799 z m 6.697463,0.161942 q -0.231346,0.879115 -0.497394,1.746662 -0.254481,0.867548 -0.543663,1.746663 h -1.341807 q -0.208212,-0.485827 -0.451125,-1.15673 -0.242913,-0.670904 -0.508961,-1.45748 -0.254481,-0.798144 -0.532096,-1.677259 -0.266048,-0.890682 -0.520528,-1.792931 h 1.816066 q 0.09254,0.416423 0.196644,0.913817 0.115673,0.485826 0.231346,1.006355 0.12724,0.520528 0.25448,1.052624 0.138808,0.520528 0.277616,1.006355 0.150374,-0.508961 0.289182,-1.041057 0.150375,-0.532096 0.277615,-1.041057 0.138808,-0.520528 0.254481,-0.994788 0.12724,-0.485826 0.219779,-0.902249 h 1.249268 q 0.09254,0.416423 0.208211,0.902249 0.115673,0.47426 0.242914,0.994788 0.12724,0.508961 0.266048,1.041057 0.138807,0.532096 0.289182,1.041057 0.138808,-0.485827 0.277615,-1.006355 0.138808,-0.532096 0.254481,-1.052624 0.12724,-0.520529 0.231346,-1.006355 0.115673,-0.497394 0.208211,-0.913817 h 1.792932 q -0.254481,0.902249 -0.532096,1.792931 -0.266048,0.879115 -0.532096,1.677259 -0.254481,0.786576 -0.508961,1.45748 -0.242913,0.670903 -0.451125,1.15673 h -1.341807 q -0.289182,-0.879115 -0.566797,-1.746663 -0.277615,-0.867547 -0.508961,-1.746662 z"
           id="text5"
           style="font-weight:bold;font-size:11.5673px;line-height:1;font-family:'Ubuntu Nerd Font';-inkscape-font-specification:'Ubuntu Nerd Font Bold';text-align:center;text-anchor:middle;stroke-width:2.34236;stroke-linecap:round"
           aria-label="md-view" /><path
           id="rect6"
           style="fill:#62a0ea;stroke-width:1.00012;stroke-linecap:round"
           d="M 8.0250368,48.974052 H 54.437509 v 1.414132 H 8.0250368 Z" /></g></g></g></svg>
