<?xml version="1.0" encoding="UTF-8" standalone="no"?>
<!-- Created with Inkscape (http://www.inkscape.org/) -->

<svg
   width="55.074371mm"
   height="23.603308mm"
   viewBox="0 0 55.074371 23.603308"
   version="1.1"
   id="svg1"
   xml:space="preserve"
   xmlns="http://www.w3.org/2000/svg"
   xmlns:svg="http://www.w3.org/2000/svg"><defs
     id="defs1" /><g
     id="layer1"
     transform="translate(-61.399606,-256.04745)"><rect
       style="fill:#5865f2;fill-opacity:1;stroke-width:8.51785;stroke-linecap:round"
       id="rect167"
       width="55.074368"
       height="23.6033"
       x="61.399609"
       y="256.04745"
       ry="2.7861159" /><g
       id="g167"
       transform="translate(57.705519,223.1446)"><path
         d="M 10.196133,49.111645 H 8.4726055 v -6.0844 h 1.7235275 z m 0.161942,-7.84263 q 0,0.47426 -0.312317,0.751875 -0.3007496,0.266048 -0.7171723,0.266048 -0.4164228,0 -0.7287399,-0.266048 -0.3007498,-0.277615 -0.3007498,-0.751875 0,-0.474259 0.3007498,-0.740307 0.3123171,-0.277615 0.7287399,-0.277615 0.4164227,0 0.7171723,0.277615 0.312317,0.266048 0.312317,0.740307 z m 2.926522,4.754161 q 0,0.798143 0.358586,1.28397 0.358587,0.485827 1.064192,0.485827 0.231346,0 0.42799,-0.01157 0.196644,-0.02313 0.323885,-0.04627 v -3.134738 q -0.161943,-0.104106 -0.427991,-0.17351 -0.25448,-0.0694 -0.520528,-0.0694 -1.226134,0 -1.226134,1.665691 z m 3.89818,2.891825 q -0.231346,0.0694 -0.532096,0.138807 -0.300749,0.05784 -0.636201,0.104106 -0.323884,0.04627 -0.670903,0.0694 -0.335452,0.0347 -0.647769,0.0347 -0.751875,0 -1.341807,-0.219779 -0.589932,-0.219779 -0.994788,-0.624634 -0.404855,-0.416423 -0.624634,-0.994788 -0.208211,-0.589932 -0.208211,-1.318672 0,-0.740307 0.185076,-1.33024 0.185077,-0.601499 0.532096,-1.017922 0.347019,-0.416423 0.844413,-0.636202 0.508961,-0.219778 1.15673,-0.219778 0.358586,0 0.636202,0.0694 0.289182,0.0694 0.578365,0.196644 v -2.753018 l 1.723527,-0.277615 z m 3.342951,-3.689969 q 0.25448,-0.277615 0.520528,-0.578365 0.277615,-0.30075 0.532096,-0.589932 0.254481,-0.30075 0.474259,-0.566798 0.231346,-0.266048 0.393289,-0.462692 h 2.047412 q -0.613067,0.705605 -1.203,1.353374 -0.578365,0.636202 -1.272403,1.318672 0.347019,0.312317 0.717173,0.751875 0.370154,0.42799 0.717173,0.890682 0.347019,0.462692 0.636201,0.925384 0.289183,0.462692 0.485827,0.844413 h -1.978009 q -0.185076,-0.30075 -0.42799,-0.659336 -0.231346,-0.370154 -0.497394,-0.72874 -0.266047,-0.370154 -0.566797,-0.705606 -0.289183,-0.335451 -0.578365,-0.566797 v 2.660479 H 18.8022 v -8.69861 l 1.723528,-0.277615 z m 10.248642,0.832846 q 0,0.717172 -0.208211,1.318672 -0.208212,0.589932 -0.6015,1.017922 -0.393288,0.416423 -0.948519,0.647769 -0.543663,0.231346 -1.226133,0.231346 -0.670904,0 -1.226134,-0.231346 -0.543663,-0.231346 -0.936952,-0.647769 -0.393288,-0.42799 -0.613066,-1.017922 -0.219779,-0.6015 -0.219779,-1.318672 0,-0.717173 0.219779,-1.307105 0.231346,-0.589933 0.624634,-1.006355 0.404855,-0.416423 0.948518,-0.647769 0.555231,-0.231346 1.203,-0.231346 0.659336,0 1.202999,0.231346 0.55523,0.231346 0.948518,0.647769 0.393289,0.416422 0.613067,1.006355 0.219779,0.589932 0.219779,1.307105 z m -1.75823,0 q 0,-0.798144 -0.323884,-1.249269 -0.312317,-0.462692 -0.902249,-0.462692 -0.589933,0 -0.913817,0.462692 -0.323885,0.451125 -0.323885,1.249269 0,0.798143 0.323885,1.272403 0.323884,0.462692 0.913817,0.462692 0.589932,0 0.902249,-0.462692 0.323884,-0.47426 0.323884,-1.272403 z m 2.706742,-1.179865 h 3.354517 v 1.561585 h -3.354517 z m 8.351591,1.145163 q 0,-1.665691 -1.226134,-1.665691 -0.266048,0 -0.532095,0.0694 -0.254481,0.0694 -0.416423,0.17351 v 3.134738 q 0.12724,0.02314 0.323884,0.04627 0.196644,0.01157 0.42799,0.01157 0.705606,0 1.064192,-0.485827 0.358586,-0.485827 0.358586,-1.28397 z m 1.75823,0.04627 q 0,0.72874 -0.219779,1.318672 -0.208211,0.589932 -0.613067,1.006355 -0.404855,0.416423 -0.994788,0.647769 -0.589932,0.219779 -1.341806,0.219779 -0.312317,0 -0.659336,-0.0347 -0.335452,-0.02313 -0.670904,-0.0694 -0.323884,-0.04627 -0.624634,-0.104106 -0.30075,-0.0694 -0.532096,-0.138807 v -8.501966 l 1.723528,-0.277615 v 3.030633 q 0.289182,-0.127241 0.601499,-0.196644 0.312317,-0.0694 0.670904,-0.0694 0.647769,0 1.145162,0.231346 0.497394,0.219778 0.832846,0.636201 0.335452,0.416423 0.508961,1.006355 0.17351,0.578365 0.17351,1.295538 z m 7.021352,-0.01157 q 0,0.717172 -0.208211,1.318672 -0.208212,0.589932 -0.6015,1.017922 -0.393288,0.416423 -0.948518,0.647769 -0.543664,0.231346 -1.226134,0.231346 -0.670904,0 -1.226134,-0.231346 -0.543663,-0.231346 -0.936951,-0.647769 -0.393289,-0.42799 -0.613067,-1.017922 -0.219779,-0.6015 -0.219779,-1.318672 0,-0.717173 0.219779,-1.307105 0.231346,-0.589933 0.624634,-1.006355 0.404855,-0.416423 0.948519,-0.647769 0.55523,-0.231346 1.202999,-0.231346 0.659336,0 1.202999,0.231346 0.55523,0.231346 0.948519,0.647769 0.393288,0.416422 0.613066,1.006355 0.219779,0.589932 0.219779,1.307105 z m -1.758229,0 q 0,-0.798144 -0.323885,-1.249269 -0.312317,-0.462692 -0.902249,-0.462692 -0.589933,0 -0.913817,0.462692 -0.323884,0.451125 -0.323884,1.249269 0,0.798143 0.323884,1.272403 0.323884,0.462692 0.913817,0.462692 0.589932,0 0.902249,-0.462692 0.323885,-0.47426 0.323885,-1.272403 z m 3.030636,-4.545949 1.723527,-0.277615 v 1.792931 h 2.070547 v 1.434345 h -2.070547 v 2.139951 q 0,0.543663 0.185077,0.867547 0.196644,0.323885 0.775009,0.323885 0.277616,0 0.566798,-0.04627 0.30075,-0.05784 0.543663,-0.150375 l 0.242913,1.341807 q -0.312317,0.127241 -0.694038,0.219779 -0.38172,0.09254 -0.936951,0.09254 -0.705605,0 -1.168297,-0.185076 -0.462692,-0.196645 -0.740307,-0.532096 -0.277616,-0.347019 -0.393289,-0.832846 -0.104105,-0.485826 -0.104105,-1.075759 z"
         id="text167"
         style="font-weight:bold;font-size:11.5673px;line-height:1;font-family:'Ubuntu Nerd Font';-inkscape-font-specification:'Ubuntu Nerd Font Bold';text-align:center;text-anchor:middle;fill:#ffffff;stroke-width:2.34236;stroke-linecap:round"
         aria-label="idko-bot" /></g></g></svg>
