<?xml version="1.0" encoding="UTF-8" standalone="no"?>
<!-- Created with Inkscape (http://www.inkscape.org/) -->

<svg
   width="55.074375mm"
   height="11.800442mm"
   viewBox="0 0 55.074375 11.800442"
   version="1.1"
   id="svg1"
   xml:space="preserve"
   xmlns="http://www.w3.org/2000/svg"
   xmlns:svg="http://www.w3.org/2000/svg"><defs
     id="defs1" /><g
     id="layer1"
     transform="translate(-62.161805,-339.00005)"><g
       id="g209"><path
         id="rect199"
         style="stroke-width:6.02271;stroke-linecap:round"
         d="m 63.55472,339.00006 h 52.28854 c 0.77168,0 1.39292,0.62124 1.39292,1.39291 v 9.0146 c 0,0.77167 -0.62124,1.39291 -1.39292,1.39291 H 63.55472 c -0.771673,0 -1.392912,-0.62124 -1.392912,-1.39291 v -9.0146 c 0,-0.77167 0.621239,-1.39291 1.392912,-1.39291 z" /><g
         id="g201"
         transform="matrix(1.0312753,0,0,1.0312753,58.337283,-10.443544)"><path
           style="font-weight:bold;font-size:4.25888px;line-height:1;font-family:'UbuntuMono Nerd Font';-inkscape-font-specification:'UbuntuMono Nerd Font Bold';text-align:center;text-anchor:middle;fill:#f2f2f2;stroke-width:0.555012;stroke-linecap:round"
           d="m 16.664283,343.09528 h -1.656705 v -2.63625 h 0.528101 v 2.20184 h 1.128604 z m 2.180546,-1.0051 q 0,0.2385 -0.06814,0.43441 -0.06814,0.19165 -0.19165,0.33219 -0.123507,0.14054 -0.298121,0.2172 -0.170355,0.0767 -0.383299,0.0767 -0.212944,0 -0.387558,-0.0767 -0.170356,-0.0767 -0.298122,-0.2172 -0.123508,-0.14054 -0.19165,-0.33219 -0.06814,-0.19591 -0.06814,-0.43441 0,-0.23424 0.06814,-0.42589 0.0724,-0.19591 0.195909,-0.33219 0.127766,-0.14054 0.30238,-0.21294 0.174614,-0.0767 0.379041,-0.0767 0.208685,0 0.37904,0.0767 0.174614,0.0724 0.298122,0.21294 0.127766,0.13628 0.195908,0.33219 0.06814,0.19165 0.06814,0.42589 z m -1.354324,0.004 q 0,0.26831 0.0937,0.4344 0.09795,0.1661 0.310898,0.1661 0.204426,0 0.306639,-0.1661 0.106472,-0.16609 0.106472,-0.4344 0,-0.26831 -0.09795,-0.43015 -0.0937,-0.16609 -0.306639,-0.16609 -0.204427,0 -0.310899,0.16609 -0.102213,0.16184 -0.102213,0.43015 z m 2.844932,1.00084 q -0.04685,-0.13203 -0.08944,-0.24276 -0.03833,-0.11073 -0.07666,-0.21294 -0.03407,-0.10648 -0.0724,-0.21721 -0.03407,-0.11499 -0.0724,-0.25127 -0.04259,0.13628 -0.07666,0.24701 -0.03407,0.10648 -0.0724,0.21295 -0.03407,0.10647 -0.0724,0.2172 -0.03833,0.11073 -0.09369,0.24702 h -0.396076 q -0.05111,-0.18739 -0.09795,-0.41312 -0.04259,-0.22998 -0.08092,-0.48551 -0.03833,-0.25979 -0.06814,-0.53662 -0.02981,-0.27682 -0.05536,-0.56643 h 0.447182 q 0.01703,0.37052 0.03407,0.72401 0.02129,0.35349 0.0724,0.72827 0.05537,-0.16184 0.0937,-0.29812 0.04259,-0.14054 0.0724,-0.26405 0.03407,-0.12777 0.05963,-0.24276 0.02981,-0.11925 0.05962,-0.24275 h 0.37904 q 0.02555,0.1235 0.05111,0.24275 0.02981,0.11499 0.05962,0.24276 0.03407,0.12351 0.06814,0.26405 0.03833,0.13628 0.08944,0.29812 0.02555,-0.19591 0.04259,-0.37478 0.01704,-0.17887 0.02555,-0.35349 0.01278,-0.17887 0.01703,-0.35349 0.0085,-0.17887 0.01704,-0.37052 h 0.447182 q -0.04685,0.58347 -0.132025,1.09879 -0.08092,0.51533 -0.183132,0.90289 z m 4.884936,-0.79641 q 0,0.23849 -0.08092,0.40033 -0.08092,0.15758 -0.221462,0.25553 -0.136284,0.0937 -0.327934,0.13629 -0.18739,0.0383 -0.404593,0.0383 -0.174614,0 -0.362005,-0.0213 -0.187391,-0.017 -0.370523,-0.0554 v -2.55959 q 0.149061,-0.0256 0.327934,-0.0426 0.178873,-0.0213 0.353487,-0.0213 0.298122,0 0.485513,0.0639 0.18739,0.0596 0.293862,0.16184 0.106472,0.0979 0.144802,0.22146 0.03833,0.12351 0.03833,0.24701 0,0.1874 -0.0937,0.3322 -0.08944,0.1448 -0.242756,0.22998 0.268309,0.098 0.362005,0.26405 0.09795,0.16609 0.09795,0.34923 z m -1.243593,-0.35775 v 0.71549 q 0.05536,0.009 0.119248,0.0128 0.06814,0.004 0.132026,0.004 0.08944,0 0.174614,-0.0128 0.08518,-0.017 0.149061,-0.0554 0.06814,-0.0426 0.11073,-0.11499 0.04259,-0.0766 0.04259,-0.19164 0,-0.19165 -0.123507,-0.27257 -0.119249,-0.0852 -0.323675,-0.0852 z m 0.204426,-0.43441 q 0.200167,0 0.30238,-0.0852 0.102214,-0.0894 0.102214,-0.24276 0,-0.0937 -0.02981,-0.14906 -0.02981,-0.0596 -0.08092,-0.0894 -0.05111,-0.0341 -0.119249,-0.0426 -0.06814,-0.0128 -0.140543,-0.0128 -0.05962,0 -0.123507,0.004 -0.06388,0.004 -0.11499,0.0128 v 0.60476 z m 2.240171,1.21378 q 0.08518,0 0.166097,0 0.08092,-0.004 0.140543,-0.0128 v -0.45996 q -0.05111,-0.009 -0.123508,-0.0128 -0.0724,-0.009 -0.132025,-0.009 -0.08092,0 -0.157579,0.0128 -0.07666,0.009 -0.136284,0.0341 -0.05536,0.0256 -0.08944,0.0724 -0.03407,0.0469 -0.03407,0.12351 0,0.13628 0.102214,0.19591 0.102213,0.0554 0.26405,0.0554 z m -0.04685,-1.67799 q 0.247015,0 0.408852,0.0596 0.166096,0.0554 0.264051,0.16184 0.09795,0.10221 0.140543,0.25553 0.04259,0.14906 0.04259,0.33645 v 1.19249 q -0.114989,0.0256 -0.34071,0.0596 -0.225721,0.0341 -0.506807,0.0341 -0.191649,0 -0.349228,-0.0341 -0.15332,-0.0341 -0.26405,-0.11073 -0.110731,-0.0809 -0.170356,-0.20442 -0.05962,-0.12777 -0.05962,-0.3109 0,-0.17462 0.06814,-0.29387 0.06814,-0.11924 0.183132,-0.19165 0.11499,-0.0724 0.26405,-0.10221 0.149061,-0.0341 0.310899,-0.0341 0.204426,0 0.362005,0.0341 v -0.0639 q 0,-0.14906 -0.0937,-0.24702 -0.0937,-0.10221 -0.323675,-0.10221 -0.14906,0 -0.289604,0.0213 -0.136284,0.0213 -0.221461,0.0511 l -0.0724,-0.42163 q 0.09795,-0.0341 0.276827,-0.0596 0.178873,-0.0298 0.370523,-0.0298 z m 1.716327,0.48551 h -0.4557 v -0.43441 h 0.4557 v -0.50255 l 0.523843,-0.0852 v 0.58772 h 0.838999 v 0.43441 H 28.6147 v 0.80919 q 0,0.11073 0.02129,0.17887 0.02129,0.0681 0.05962,0.10647 0.03833,0.0383 0.0937,0.0511 0.05536,0.0128 0.123507,0.0128 0.0724,0 0.132026,-0.004 0.06388,-0.004 0.119248,-0.0128 0.05963,-0.0128 0.119249,-0.0341 0.06388,-0.0213 0.136284,-0.0554 l 0.0724,0.45144 q -0.144802,0.0596 -0.315157,0.0852 -0.166096,0.0255 -0.323675,0.0255 -0.183132,0 -0.323675,-0.0298 -0.140543,-0.0298 -0.238497,-0.11499 -0.09795,-0.0852 -0.149061,-0.2385 -0.05111,-0.15757 -0.05111,-0.40885 z m 2.129441,0 h -0.4557 v -0.43441 h 0.4557 v -0.50255 l 0.523842,-0.0852 v 0.58772 h 0.838999 v 0.43441 H 30.74414 v 0.80919 q 0,0.11073 0.02129,0.17887 0.0213,0.0681 0.05963,0.10647 0.03833,0.0383 0.0937,0.0511 0.05537,0.0128 0.123508,0.0128 0.0724,0 0.132025,-0.004 0.06388,-0.004 0.119249,-0.0128 0.05962,-0.0128 0.119248,-0.0341 0.06388,-0.0213 0.136284,-0.0554 l 0.0724,0.45144 q -0.144802,0.0596 -0.315157,0.0852 -0.166096,0.0255 -0.323675,0.0255 -0.183132,0 -0.323675,-0.0298 -0.140543,-0.0298 -0.238497,-0.11499 -0.09795,-0.0852 -0.149061,-0.2385 -0.05111,-0.15757 -0.05111,-0.40885 z m 1.652446,0.58346 q 0,-0.26405 0.08092,-0.46421 0.08092,-0.20017 0.212944,-0.3322 0.132026,-0.13628 0.302381,-0.20442 0.170355,-0.0681 0.349228,-0.0681 0.442923,0 0.672903,0.26405 0.22998,0.25979 0.22998,0.76234 0,0.0511 -0.0043,0.10647 0,0.0554 -0.0043,0.0894 h -1.298959 q 0,0.19591 0.161838,0.3109 0.161837,0.11073 0.41737,0.11073 0.157579,0 0.298122,-0.0341 0.144802,-0.0341 0.242756,-0.0681 l 0.0724,0.44718 q -0.136284,0.0469 -0.289604,0.0767 -0.15332,0.0341 -0.344969,0.0341 -0.255533,0 -0.459959,-0.0639 -0.200168,-0.0681 -0.34497,-0.19591 -0.140543,-0.13202 -0.217203,-0.32367 -0.07666,-0.19165 -0.07666,-0.44719 z m 1.341547,-0.20868 q 0,-0.0809 -0.0213,-0.15332 -0.02129,-0.0767 -0.06814,-0.13628 -0.04685,-0.0596 -0.119248,-0.0937 -0.0724,-0.0383 -0.178873,-0.0383 -0.102213,0 -0.178873,0.0341 -0.0724,0.0341 -0.123508,0.0937 -0.04685,0.0596 -0.07666,0.13628 -0.02555,0.0767 -0.03407,0.15758 z m 2.516998,-0.27683 q -0.05111,-0.0128 -0.123507,-0.0256 -0.06814,-0.0128 -0.140543,-0.0213 -0.0724,-0.0128 -0.140543,-0.017 -0.06814,-0.004 -0.11499,-0.004 -0.110731,0 -0.217203,0.0128 -0.106472,0.009 -0.217203,0.0383 v 1.48635 h -0.528101 v -1.86965 q 0.208685,-0.0767 0.425888,-0.12351 0.221462,-0.0469 0.515324,-0.0469 0.04259,0 0.119249,0.004 0.08092,0.004 0.170355,0.017 0.08944,0.009 0.178873,0.0256 0.0937,0.0128 0.166097,0.0383 z m 2.278501,-0.53236 q -0.08092,0.28109 -0.157578,0.55366 -0.0724,0.26831 -0.15332,0.5281 -0.08092,0.25553 -0.174614,0.50255 -0.08944,0.24701 -0.195909,0.48125 -0.08092,0.17035 -0.161837,0.29386 -0.07666,0.12351 -0.174614,0.20017 -0.09369,0.0809 -0.212944,0.11925 -0.11499,0.0383 -0.272568,0.0383 -0.132026,0 -0.242757,-0.0213 -0.106472,-0.0213 -0.178873,-0.0554 l 0.09795,-0.43867 q 0.08518,0.0383 0.149061,0.0511 0.06814,0.017 0.144801,0.017 0.15332,0 0.247015,-0.10222 0.0937,-0.10221 0.149061,-0.24275 -0.18739,-0.37479 -0.374781,-0.85604 -0.187391,-0.48551 -0.340711,-1.06898 h 0.545137 q 0.03833,0.15758 0.08518,0.33645 0.05111,0.17888 0.106472,0.35775 0.05537,0.17887 0.114989,0.35349 0.06388,0.17035 0.127767,0.31941 0.04259,-0.14906 0.08944,-0.31941 0.04685,-0.17462 0.08944,-0.34923 0.04259,-0.17887 0.08092,-0.35775 0.04259,-0.17887 0.07666,-0.34071 z"
           id="text200"
           aria-label="Low Battery" /><path
           style="font-weight:bold;font-size:6.64457px;line-height:1;font-family:'UbuntuMono Nerd Font';-inkscape-font-specification:'UbuntuMono Nerd Font Bold';text-align:center;text-anchor:middle;fill:#f2f2f2;stroke-width:0.865914;stroke-linecap:round"
           d="m 16.856913,346.14594 q 0.02658,0.12625 0.07974,0.3123 0.05316,0.18605 0.112958,0.41196 0.06645,0.22592 0.139536,0.48506 0.07973,0.25913 0.152825,0.53156 0,-0.34552 -0.0066,-0.73755 -0.0066,-0.39867 -0.01329,-0.81063 -0.0066,-0.41197 -0.01329,-0.83057 -0.0066,-0.42526 -0.0066,-0.81729 h 0.757481 q -0.01993,0.50499 -0.03987,1.0432 -0.01993,0.53157 -0.04651,1.06313 -0.02658,0.52492 -0.06645,1.03655 -0.03322,0.51164 -0.07973,0.97011 h -0.677747 q -0.14618,-0.41861 -0.292361,-0.89701 -0.14618,-0.48506 -0.292361,-0.9236 -0.14618,0.41861 -0.30565,0.91031 -0.15947,0.49169 -0.292361,0.9103 h -0.677746 q -0.05316,-0.45847 -0.09302,-0.97011 -0.03987,-0.51827 -0.07309,-1.04319 -0.02658,-0.53157 -0.04651,-1.06313 -0.01993,-0.53821 -0.03322,-1.03656 h 0.757481 q -0.0066,0.39203 -0.01329,0.81064 -0.0066,0.41861 -0.01329,0.83722 -0.0066,0.41196 -0.01329,0.81063 -0.0066,0.39203 -0.0066,0.73755 0.0598,-0.21262 0.132891,-0.46512 0.07973,-0.25249 0.146181,-0.49834 0.07309,-0.24585 0.132891,-0.45183 0.0598,-0.20598 0.09302,-0.32559 z m 3.02328,2.07311 q 0.132891,0 0.259138,0 0.126247,-0.007 0.219271,-0.0199 v -0.71762 q -0.07973,-0.0133 -0.192693,-0.0199 -0.112958,-0.0133 -0.205982,-0.0133 -0.126246,0 -0.245849,0.0199 -0.119602,0.0133 -0.212626,0.0532 -0.08638,0.0399 -0.139536,0.11296 -0.05316,0.0731 -0.05316,0.19269 0,0.21263 0.159469,0.30565 0.15947,0.0864 0.411964,0.0864 z m -0.07309,-2.61796 q 0.385385,0 0.637879,0.093 0.259138,0.0864 0.411963,0.2525 0.152825,0.15947 0.219271,0.39867 0.06645,0.23256 0.06645,0.52492 v 1.86048 q -0.179404,0.0399 -0.531566,0.093 -0.352162,0.0532 -0.790704,0.0532 -0.299005,0 -0.544854,-0.0532 -0.239205,-0.0532 -0.411964,-0.17276 -0.172758,-0.12625 -0.265782,-0.31894 -0.09302,-0.19934 -0.09302,-0.48506 0,-0.27242 0.106313,-0.45847 0.106313,-0.18605 0.285716,-0.29901 0.179404,-0.11295 0.411964,-0.15947 0.23256,-0.0532 0.485053,-0.0532 0.31894,0 0.564789,0.0532 v -0.0997 q 0,-0.23256 -0.146181,-0.38538 -0.14618,-0.15947 -0.504987,-0.15947 -0.23256,0 -0.451831,0.0332 -0.212626,0.0332 -0.345518,0.0797 l -0.112957,-0.65781 q 0.152825,-0.0532 0.431897,-0.093 0.279072,-0.0465 0.578077,-0.0465 z m 4.631266,0.91031 q -0.07973,-0.0199 -0.192693,-0.0399 -0.106313,-0.0199 -0.219271,-0.0332 -0.112957,-0.0199 -0.219271,-0.0266 -0.106313,-0.007 -0.179403,-0.007 -0.172759,0 -0.338873,0.0199 -0.166114,0.0133 -0.338873,0.0598 v 2.31895 h -0.823927 v -2.91696 q 0.325584,-0.11961 0.664457,-0.1927 0.345518,-0.0731 0.803993,-0.0731 0.06645,0 0.186048,0.007 0.126247,0.007 0.265783,0.0266 0.139536,0.0133 0.279072,0.0399 0.14618,0.0199 0.259138,0.0598 z m 0.837216,-0.73091 q 0.21927,-0.0598 0.53821,-0.11296 0.325584,-0.0532 0.704324,-0.0532 0.372096,0 0.617945,0.10631 0.245849,0.0997 0.385385,0.29236 0.146181,0.18605 0.205982,0.45183 0.0598,0.25914 0.0598,0.57808 v 1.76081 h -0.817282 v -1.6545 q 0,-0.43854 -0.09967,-0.63123 -0.09967,-0.19269 -0.405318,-0.19269 -0.09302,0 -0.186048,0.007 -0.08638,0.007 -0.186048,0.0199 v 2.45184 h -0.817282 z m 4.790734,-0.99668 q 0,0.2392 -0.152825,0.37874 -0.152825,0.13953 -0.365451,0.13953 -0.212626,0 -0.365452,-0.13953 -0.14618,-0.13954 -0.14618,-0.37874 0,-0.24585 0.14618,-0.38539 0.152826,-0.13953 0.365452,-0.13953 0.212626,0 0.365451,0.13953 0.152825,0.13954 0.152825,0.38539 z m 1.215957,3.88707 q -0.252494,0.1196 -0.47841,0.15947 -0.21927,0.0465 -0.405318,0.0465 -0.31894,0 -0.53821,-0.093 -0.212627,-0.093 -0.345518,-0.26578 -0.126247,-0.17941 -0.179403,-0.4319 -0.05316,-0.2525 -0.05316,-0.57808 v -1.14951 h -0.863794 v -0.67775 h 1.681076 v 1.93357 q 0,0.27908 0.09967,0.41861 0.106313,0.13289 0.345517,0.13289 0.112958,0 0.272428,-0.0266 0.159469,-0.0332 0.358806,-0.12624 z m 0.637879,-2.89039 q 0.219271,-0.0598 0.53821,-0.11296 0.325584,-0.0532 0.704324,-0.0532 0.372096,0 0.617945,0.10631 0.24585,0.0997 0.385386,0.29236 0.14618,0.18605 0.205981,0.45183 0.0598,0.25914 0.0598,0.57808 v 1.76081 h -0.817282 v -1.6545 q 0,-0.43854 -0.09967,-0.63123 -0.09967,-0.19269 -0.405319,-0.19269 -0.09302,0 -0.186048,0.007 -0.08638,0.007 -0.186048,0.0199 v 2.45184 h -0.817282 z m 3.953519,1.36214 q 0,0.38538 0.139536,0.59137 0.139536,0.19933 0.438541,0.19933 0.132892,0 0.245849,-0.0332 0.119603,-0.0332 0.212627,-0.0864 v -1.50167 q -0.09302,-0.0199 -0.166115,-0.0266 -0.07309,-0.007 -0.152825,-0.007 -0.717613,0 -0.717613,0.86379 z m 1.860479,1.2824 q 0,0.76413 -0.372096,1.12958 -0.365451,0.36545 -1.182733,0.36545 -0.292361,0 -0.564788,-0.0598 -0.265783,-0.0598 -0.511632,-0.13954 l 0.152825,-0.69103 q 0.192692,0.0731 0.405319,0.13289 0.212626,0.0664 0.531565,0.0664 0.212626,0 0.352162,-0.0532 0.139536,-0.0465 0.219271,-0.13289 0.07973,-0.0864 0.112958,-0.20599 0.03322,-0.11295 0.03322,-0.24584 v -0.12625 q -0.172759,0.0664 -0.31894,0.0997 -0.139536,0.0332 -0.30565,0.0332 -0.6113,0 -0.93024,-0.38538 -0.312294,-0.38539 -0.312294,-1.06978 0,-0.77077 0.425252,-1.14951 0.425252,-0.37874 1.156155,-0.37874 0.511632,0 1.109643,0.16611 z"
           id="text201"
           aria-label="Warning" /></g><g
         id="g205"
         transform="translate(58.996885,0.25132418)"><g
           style="fill:#ffffff"
           id="g203"
           transform="matrix(0.28603901,0,0,0.28603901,4.3435403,340.14061)"><g
             id="g202"><title
               id="title201">battery-25</title><path
               d="m 12.563,1 c -0.937,0 -1.25,0.211 -1.25,1.25 V 3.187 H 8.5 c -1.847,0 -2.187,0.341 -2.187,2.187 v 23.438 c 0,1.847 0.341,2.187 2.187,2.187 h 15 c 1.847,0 2.187,-0.341 2.187,-2.187 V 5.374 C 25.687,3.527 25.346,3.187 23.5,3.187 H 20.687 V 2.25 C 20.687,1.212 20.375,1 19.437,1 H 12.562 Z M 8.5,7.563 c 0,-2.5 -0.312,-2.187 2.187,-2.187 1.25,0 9.688,0 10.625,0 2.5,0 2.187,-0.312 2.187,2.187 0,1.25 0,17.813 0,19.063 0,2.5 0.312,2.187 -2.187,2.187 -1.25,0 -9.375,0 -10.625,0 -2.5,0 -2.187,0.312 -2.187,-2.187 0,-1.251 0,-17.813 0,-19.063 z m 1.562,15.625 h 11.875 c 0.345,0 0.625,0.28 0.625,0.625 v 3.438 c 0,0.345 -0.28,0.625 -0.625,0.625 H 10.062 c -0.345,0 -0.625,-0.28 -0.625,-0.625 v -3.438 c 0,-0.345 0.28,-0.625 0.625,-0.625 z"
               id="path201" /></g><path
             id="rect202"
             style="opacity:1;fill:#ed333b;fill-opacity:1;stroke-width:1.25419;stroke-linecap:round;stroke-linejoin:round"
             d="M 9.9282605,23.110754 H 22.083113 c 0.313255,0 0.565442,0.252187 0.565442,0.565442 v 3.685846 c 0,0.313255 -0.252187,0.565442 -0.565442,0.565442 H 9.9282605 c -0.3132547,0 -0.5654418,-0.252187 -0.5654418,-0.565442 v -3.685846 c 0,-0.313255 0.2521871,-0.565442 0.5654418,-0.565442 z" /></g><g
           id="g204"
           transform="matrix(0.85760439,0,0,0.85760439,1.1153416,47.833058)"><path
             id="circle203"
             style="fill:#ed333b;fill-opacity:1;stroke-width:0.46077;stroke-linecap:round;stroke-linejoin:round"
             d="m 14.05599,341.90784 a 2.1166666,2.1166666 0 0 1 -2.116667,2.11666 2.1166666,2.1166666 0 0 1 -2.1166661,-2.11666 2.1166666,2.1166666 0 0 1 2.1166661,-2.11667 2.1166666,2.1166666 0 0 1 2.116667,2.11667 z" /><path
             d="m 13.462195,341.73928 q 0,0.17425 -0.04546,0.34473 -0.04167,0.17047 -0.128801,0.31063 -0.08713,0.13638 -0.215929,0.21972 -0.125012,0.0796 -0.295483,0.0796 -0.147741,0 -0.261388,-0.072 -0.113648,-0.0758 -0.166683,-0.18942 h -0.02273 q -0.07955,0.10986 -0.204565,0.18563 -0.125012,0.0758 -0.299271,0.0758 -0.325789,0 -0.49626,-0.20078 -0.166682,-0.20077 -0.166682,-0.53035 0,-0.25002 0.102282,-0.44701 0.106071,-0.19699 0.303059,-0.31064 0.200777,-0.11364 0.488683,-0.11364 0.178048,0 0.348518,0.0341 0.170471,0.0341 0.276542,0.072 l -0.03788,0.77659 q 0,0.0379 -0.0038,0.0833 0,0.0417 0,0.0758 0,0.13259 0.04167,0.17805 0.04546,0.0455 0.106071,0.0455 0.08713,0 0.147741,-0.0833 0.0644,-0.0871 0.09471,-0.2273 0.03409,-0.14395 0.03409,-0.31063 0,-0.46596 -0.268965,-0.72735 -0.268965,-0.26517 -0.742495,-0.26517 -0.397765,0 -0.670518,0.16289 -0.268965,0.1629 -0.40913,0.4508 -0.140165,0.28791 -0.140165,0.65916 0,0.49247 0.268965,0.7728 0.268965,0.28033 0.79553,0.28033 0.21593,0 0.454589,-0.0492 0.238659,-0.0492 0.443224,-0.12122 v 0.35609 q -0.185624,0.0795 -0.40913,0.12122 -0.223506,0.0455 -0.47353,0.0455 -0.469742,0 -0.803107,-0.17047 -0.333365,-0.16668 -0.511412,-0.4811 -0.178047,-0.31443 -0.178047,-0.75386 0,-0.34473 0.113647,-0.64022 0.113647,-0.29548 0.325788,-0.5152 0.212142,-0.2235 0.511413,-0.34473 0.303059,-0.12122 0.678095,-0.12122 0.420494,0 0.738707,0.16289 0.318212,0.1629 0.496259,0.46596 0.181836,0.29927 0.181836,0.71598 z m -1.871391,0.2235 q 0,0.20835 0.07955,0.30306 0.07955,0.0909 0.212141,0.0909 0.17426,0 0.250024,-0.13638 0.07577,-0.13637 0.09092,-0.40534 l 0.01894,-0.35988 q -0.04167,-0.008 -0.08713,-0.0152 -0.04546,-0.008 -0.09849,-0.008 -0.166683,0 -0.268966,0.0758 -0.102282,0.0758 -0.151529,0.19699 -0.04546,0.11744 -0.04546,0.2576 z"
             id="text203"
             style="font-weight:bold;font-size:3.78824px;line-height:1;font-family:'Noto Sans';-inkscape-font-specification:'Noto Sans Bold';text-align:center;text-anchor:middle;fill:#f9f9f9;stroke-width:0.174138;stroke-linecap:round;stroke-linejoin:round"
             aria-label="@" /></g></g><g
         id="g208"
         transform="matrix(0.80468491,-0.11671749,0.11671749,0.80468491,32.760515,58.65935)"><path
           id="rect205"
           style="fill:#5865f2;stroke-width:0.24587"
           d="m 30.822985,357.33496 h 16.631391 c 0.366818,0 0.662127,0.29531 0.662127,0.66213 v 6.96628 c 0,0.36682 -0.295309,0.66213 -0.662127,0.66213 H 30.822985 c -0.366818,0 -0.662127,-0.29531 -0.662127,-0.66213 v -6.96628 c 0,-0.36682 0.295309,-0.66213 0.662127,-0.66213 z" /><g
           id="text206"
           style="font-size:4.55516px;line-height:1;font-family:'JetBrainsMono Nerd Font';-inkscape-font-specification:'JetBrainsMono Nerd Font';text-align:center;text-anchor:middle;fill:#f2f2f2;stroke-width:0.593624;stroke-linecap:round"
           aria-label="&#10;Discord"><path
             style="font-weight:bold;font-family:'UbuntuMono Nerd Font';-inkscape-font-specification:'UbuntuMono Nerd Font Bold'"
             d="m 32.009858,364.21935 q 0.02278,0.005 0.05011,0.005 0.02733,0 0.05011,0 0.191317,0 0.318861,-0.0729 0.1321,-0.0729 0.209537,-0.20043 0.08199,-0.12754 0.113879,-0.30064 0.03644,-0.17765 0.03644,-0.38719 0,-0.1822 -0.02733,-0.3553 -0.02733,-0.1731 -0.09566,-0.30519 -0.06833,-0.1321 -0.186761,-0.20954 -0.118434,-0.082 -0.305196,-0.082 -0.03644,0 -0.08199,0.005 -0.04555,0 -0.08199,0.009 z m 1.348328,-0.95659 q 0,0.39175 -0.100214,0.66961 -0.09566,0.27331 -0.268754,0.44641 -0.173096,0.17309 -0.41452,0.25509 -0.236868,0.0774 -0.523843,0.0774 -0.15032,0 -0.296086,-0.0182 -0.14121,-0.0137 -0.305195,-0.0501 v -2.75132 q 0.191316,-0.041 0.359857,-0.0547 0.168541,-0.0137 0.314306,-0.0137 0.277865,0 0.505623,0.082 0.232313,0.082 0.391744,0.25964 0.159431,0.1731 0.245979,0.44641 0.0911,0.26875 0.0911,0.65138 z"
             id="path209" /><path
             style="font-weight:bold;font-family:'UbuntuMono Nerd Font';-inkscape-font-specification:'UbuntuMono Nerd Font Bold'"
             d="m 34.774841,361.91899 q 0,0.16399 -0.104769,0.25965 -0.104769,0.0957 -0.250534,0.0957 -0.145765,0 -0.250534,-0.0957 -0.100213,-0.0957 -0.100213,-0.25965 0,-0.16854 0.100213,-0.2642 0.104769,-0.0957 0.250534,-0.0957 0.145765,0 0.250534,0.0957 0.104769,0.0957 0.104769,0.2642 z m 0.833594,2.66477 q -0.173096,0.082 -0.327972,0.10932 -0.15032,0.0319 -0.277864,0.0319 -0.218648,0 -0.368968,-0.0638 -0.145766,-0.0638 -0.236869,-0.18221 -0.08655,-0.12299 -0.122989,-0.29608 -0.03644,-0.1731 -0.03644,-0.3963 v -0.78805 h -0.592171 v -0.46462 h 1.152455 v 1.32555 q 0,0.19132 0.06833,0.28697 0.07288,0.0911 0.236868,0.0911 0.07744,0 0.186762,-0.0182 0.109323,-0.0228 0.245978,-0.0866 z m 1.188897,-0.33253 q 0.204982,0 0.314306,-0.0273 0.109323,-0.0319 0.109323,-0.12299 0,-0.0592 -0.03644,-0.10021 -0.03189,-0.041 -0.09566,-0.0683 -0.05922,-0.0319 -0.14121,-0.0592 -0.07744,-0.0273 -0.163986,-0.0547 -0.122989,-0.0364 -0.250534,-0.082 -0.127544,-0.0501 -0.232313,-0.12299 -0.104769,-0.0729 -0.173096,-0.18221 -0.06833,-0.11387 -0.06833,-0.28242 0,-0.13665 0.05011,-0.25508 0.05466,-0.12299 0.163986,-0.2141 0.113879,-0.0957 0.286975,-0.14576 0.173096,-0.0547 0.41452,-0.0547 0.209537,0 0.387188,0.0319 0.182207,0.0319 0.314306,0.0911 l -0.08655,0.47373 q -0.07744,-0.0228 -0.241423,-0.0729 -0.163986,-0.0547 -0.368968,-0.0547 -0.214093,0 -0.29153,0.0547 -0.07288,0.0501 -0.07288,0.10932 0,0.0501 0.03189,0.0911 0.03644,0.0364 0.0911,0.0683 0.05922,0.0319 0.1321,0.0638 0.07744,0.0273 0.163986,0.0547 0.122989,0.041 0.255089,0.0911 0.1321,0.0501 0.236868,0.12755 0.109324,0.0729 0.177651,0.19131 0.06833,0.11388 0.06833,0.28242 0,0.1321 -0.05011,0.25054 -0.05011,0.11843 -0.168541,0.20498 -0.113879,0.0865 -0.30064,0.13665 -0.186762,0.0501 -0.460072,0.0501 -0.277864,0 -0.473736,-0.0638 -0.195872,-0.0638 -0.314306,-0.11388 l 0.08655,-0.46918 q 0.15943,0.0638 0.337082,0.11843 0.182206,0.0547 0.368968,0.0547 z m 1.43943,-0.64683 q 0,-0.23231 0.07288,-0.43729 0.07288,-0.20499 0.223203,-0.35531 0.150321,-0.15487 0.378079,-0.24142 0.232313,-0.0911 0.551174,-0.0911 0.191317,0 0.346192,0.0273 0.154876,0.0273 0.314306,0.0911 l -0.122989,0.45096 q -0.0911,-0.0319 -0.204982,-0.0547 -0.109324,-0.0273 -0.28242,-0.0273 -0.200427,0 -0.337082,0.0501 -0.1321,0.0456 -0.214093,0.1321 -0.08199,0.082 -0.118434,0.20043 -0.03644,0.11844 -0.03644,0.25509 0,0.29609 0.163986,0.46463 0.168541,0.16854 0.569395,0.16854 0.132099,0 0.273309,-0.0182 0.145765,-0.0182 0.2642,-0.0592 l 0.08199,0.46007 q -0.118434,0.0455 -0.286975,0.0729 -0.168541,0.0319 -0.396299,0.0319 -0.327971,0 -0.564839,-0.0865 -0.232314,-0.0865 -0.382634,-0.23687 -0.15032,-0.15032 -0.223203,-0.3553 -0.06833,-0.20498 -0.06833,-0.44185 z m 4.227189,-0.005 q 0,0.25508 -0.07288,0.46462 -0.07288,0.20498 -0.204982,0.3553 -0.1321,0.15032 -0.318861,0.23232 -0.182207,0.082 -0.409965,0.082 -0.227758,0 -0.414519,-0.082 -0.182207,-0.082 -0.318861,-0.23232 -0.1321,-0.15032 -0.204983,-0.3553 -0.07288,-0.20954 -0.07288,-0.46462 0,-0.25054 0.07288,-0.45552 0.07744,-0.20954 0.209538,-0.3553 0.136654,-0.15032 0.323416,-0.22776 0.186762,-0.082 0.405409,-0.082 0.223203,0 0.40541,0.082 0.186761,0.0774 0.318861,0.22776 0.136655,0.14576 0.209537,0.3553 0.07288,0.20498 0.07288,0.45552 z m -1.448541,0.005 q 0,0.28698 0.100213,0.46463 0.104769,0.17765 0.332527,0.17765 0.218648,0 0.327972,-0.17765 0.113879,-0.17765 0.113879,-0.46463 0,-0.28697 -0.104769,-0.46007 -0.100214,-0.17765 -0.327972,-0.17765 -0.218647,0 -0.332526,0.17765 -0.109324,0.1731 -0.109324,0.46007 z m 3.56669,-0.50107 q -0.05466,-0.0137 -0.132099,-0.0273 -0.07288,-0.0137 -0.150321,-0.0228 -0.07744,-0.0137 -0.15032,-0.0182 -0.07288,-0.005 -0.122989,-0.005 -0.118434,0 -0.232313,0.0137 -0.113879,0.009 -0.232314,0.041 v 1.58975 h -0.564839 v -1.99971 q 0.223202,-0.082 0.455516,-0.1321 0.236868,-0.0501 0.551174,-0.0501 0.04555,0 0.127544,0.005 0.08655,0.005 0.182207,0.0182 0.09566,0.009 0.191317,0.0273 0.100213,0.0137 0.177651,0.041 z m 0.983914,0.4874 q 0,0.28698 0.104769,0.46919 0.109324,0.1822 0.346192,0.1822 0.06833,0 0.127545,-0.005 0.05922,-0.005 0.122989,-0.0137 v -1.16612 q -0.06377,-0.0364 -0.145765,-0.0592 -0.08199,-0.0273 -0.173096,-0.0273 -0.200427,0 -0.291531,0.15943 -0.0911,0.15943 -0.0911,0.46007 z m 1.26178,1.02036 q -0.154876,0.0501 -0.378079,0.082 -0.223203,0.0319 -0.437295,0.0319 -0.501068,0 -0.760712,-0.29609 -0.255089,-0.29608 -0.255089,-0.81081 0,-0.52385 0.214093,-0.82449 0.218647,-0.30519 0.642277,-0.30519 0.113879,0 0.223203,0.0273 0.109324,0.0228 0.191317,0.0683 v -0.9748 l 0.560285,-0.0957 z"
             id="path210" /></g><g
           id="text208"
           style="font-size:4.55516px;line-height:1;font-family:'JetBrainsMono Nerd Font';-inkscape-font-specification:'JetBrainsMono Nerd Font';text-align:center;text-anchor:middle;fill:#f2f2f2;stroke-width:0.593624;stroke-linecap:round"
           aria-label="&#10;On"><path
             style="font-weight:bold;font-family:'UbuntuMono Nerd Font';-inkscape-font-specification:'UbuntuMono Nerd Font Bold'"
             d="m 37.589929,359.45701 q 0,0.20498 0.01367,0.38719 0.01822,0.17765 0.06377,0.30975 0.05011,0.1321 0.136655,0.20953 0.08655,0.0774 0.232313,0.0774 0.14121,0 0.227758,-0.0774 0.0911,-0.0774 0.136655,-0.20953 0.05011,-0.13666 0.06377,-0.31431 0.01822,-0.17765 0.01822,-0.38263 0,-0.20498 -0.01822,-0.38264 -0.01367,-0.1822 -0.06377,-0.3143 -0.04555,-0.1321 -0.1321,-0.20954 -0.08655,-0.0774 -0.232313,-0.0774 -0.145765,0 -0.232313,0.0774 -0.08655,0.0774 -0.136655,0.21409 -0.04555,0.1321 -0.06377,0.30975 -0.01367,0.17766 -0.01367,0.38264 z m -0.569395,0 q 0,-0.72883 0.268755,-1.0978 0.268754,-0.37352 0.747046,-0.37352 0.496513,0 0.756157,0.37352 0.259644,0.36897 0.259644,1.0978 0,0.72882 -0.264199,1.10235 -0.2642,0.36896 -0.747047,0.36896 -0.496512,0 -0.760711,-0.36896 -0.259645,-0.37353 -0.259645,-1.10235 z"
             id="path211" /><path
             style="font-weight:bold;font-family:'UbuntuMono Nerd Font';-inkscape-font-specification:'UbuntuMono Nerd Font Bold'"
             d="m 39.4621,358.79651 q 0.15032,-0.041 0.368968,-0.0774 0.223203,-0.0364 0.482847,-0.0364 0.255089,0 0.42363,0.0729 0.168541,0.0683 0.264199,0.20043 0.100214,0.12754 0.14121,0.30975 0.041,0.17765 0.041,0.3963 v 1.20712 h -0.560285 v -1.13424 q 0,-0.30064 -0.06833,-0.43274 -0.06833,-0.1321 -0.277865,-0.1321 -0.06377,0 -0.127545,0.005 -0.05922,0.005 -0.127544,0.0137 v 1.68086 H 39.4621 Z"
             id="path212" /></g></g><path
         style="font-weight:bold;font-size:0.923025px;line-height:1;font-family:'UbuntuMono Nerd Font';-inkscape-font-specification:'UbuntuMono Nerd Font Bold';text-align:end;text-anchor:end;fill:#77767b;stroke-width:0.120286;stroke-linecap:round"
         d="m 106.4636,348.84034 q -0.003,0.0111 -0.008,0.0268 -0.006,0.0157 -0.012,0.0314 -0.006,0.0157 -0.0129,0.0295 -0.006,0.0138 -0.0129,0.0231 l -0.0175,0.0231 -0.0868,-0.0618 0.0175,-0.0231 q 0.006,-0.009 0.0175,-0.0203 0.012,-0.0111 0.024,-0.0222 0.0129,-0.0111 0.0259,-0.0203 0.0129,-0.0101 0.0221,-0.0166 -0.012,0 -0.0286,0 -0.0157,0 -0.0323,-9.3e-4 -0.0166,-0.002 -0.0323,-0.005 -0.0157,-0.003 -0.0258,-0.006 l -0.0277,-0.009 0.0341,-0.10061 0.0277,0.008 q 0.0102,0.004 0.024,0.012 0.0138,0.007 0.0277,0.0166 0.0139,0.009 0.0268,0.0185 0.0139,0.009 0.0231,0.0166 -0.004,-0.0111 -0.008,-0.0258 -0.005,-0.0157 -0.009,-0.0323 -0.004,-0.0166 -0.006,-0.0323 -0.003,-0.0157 -0.003,-0.0268 v -0.0286 h 0.10707 v 0.0286 q 0,0.0111 -0.003,0.0268 -0.003,0.0157 -0.007,0.0323 -0.004,0.0166 -0.009,0.0323 -0.005,0.0148 -0.008,0.0258 0.009,-0.006 0.0231,-0.0157 0.0139,-0.009 0.0277,-0.0175 0.0148,-0.009 0.0286,-0.0166 0.0138,-0.007 0.0249,-0.0111 l 0.0268,-0.009 0.0332,0.10246 -0.0277,0.008 q -0.0111,0.004 -0.0268,0.006 -0.0157,0.002 -0.0323,0.004 -0.0166,9.2e-4 -0.0332,9.2e-4 -0.0157,0 -0.0277,0 0.0102,0.006 0.0231,0.0166 0.0129,0.009 0.0258,0.0203 0.0129,0.0102 0.024,0.0212 0.0111,0.0111 0.0175,0.0203 l 0.0175,0.0231 -0.0868,0.0628 -0.0166,-0.0231 q -0.006,-0.009 -0.0138,-0.0231 -0.006,-0.0138 -0.0129,-0.0295 -0.006,-0.0166 -0.012,-0.0314 -0.005,-0.0157 -0.008,-0.0277 z m 1.12609,0.12737 q 0,0.0517 -0.0148,0.0942 -0.0148,0.0415 -0.0415,0.072 -0.0268,0.0305 -0.0646,0.0471 -0.0369,0.0166 -0.0831,0.0166 -0.0462,0 -0.084,-0.0166 -0.0369,-0.0166 -0.0646,-0.0471 -0.0268,-0.0305 -0.0415,-0.072 -0.0148,-0.0425 -0.0148,-0.0942 0,-0.0508 0.0148,-0.0923 0.0157,-0.0425 0.0425,-0.072 0.0277,-0.0305 0.0655,-0.0462 0.0378,-0.0166 0.0821,-0.0166 0.0452,0 0.0821,0.0166 0.0379,0.0157 0.0646,0.0462 0.0277,0.0295 0.0425,0.072 0.0148,0.0415 0.0148,0.0923 z m -0.29352,9.3e-4 q 0,0.0582 0.0203,0.0941 0.0212,0.036 0.0674,0.036 0.0443,0 0.0665,-0.036 0.0231,-0.036 0.0231,-0.0941 0,-0.0582 -0.0212,-0.0932 -0.0203,-0.036 -0.0665,-0.036 -0.0443,0 -0.0674,0.036 -0.0221,0.0351 -0.0221,0.0932 z m 0.37752,-0.20307 q 0.0305,-0.008 0.0748,-0.0157 0.0452,-0.007 0.0978,-0.007 0.0517,0 0.0859,0.0148 0.0341,0.0139 0.0535,0.0406 0.0203,0.0258 0.0286,0.0628 0.008,0.036 0.008,0.0803 v 0.2446 h -0.11353 v -0.22984 q 0,-0.0609 -0.0138,-0.0877 -0.0138,-0.0268 -0.0563,-0.0268 -0.0129,0 -0.0258,9.2e-4 -0.012,9.2e-4 -0.0258,0.003 v 0.3406 h -0.11353 z m 0.83441,0.40152 q -0.003,0.002 -0.0129,0.006 -0.009,0.005 -0.0249,0.0102 -0.0157,0.005 -0.0388,0.008 -0.0221,0.004 -0.0508,0.004 -0.0785,0 -0.11446,-0.0462 -0.036,-0.0471 -0.036,-0.13661 v -0.36829 h -0.11999 v -0.0941 h 0.23353 v 0.47074 q 0,0.0443 0.0175,0.06 0.0175,0.0157 0.0443,0.0157 0.0342,0 0.0572,-0.009 0.0231,-0.009 0.0305,-0.012 z m 0.46613,-0.41536 q -0.0175,0.0609 -0.0342,0.11999 -0.0157,0.0582 -0.0332,0.11445 -0.0175,0.0554 -0.0378,0.10892 -0.0194,0.0535 -0.0425,0.1043 -0.0175,0.0369 -0.0351,0.0637 -0.0166,0.0268 -0.0378,0.0434 -0.0203,0.0175 -0.0461,0.0258 -0.0249,0.008 -0.0591,0.008 -0.0286,0 -0.0526,-0.005 -0.0231,-0.005 -0.0388,-0.012 l 0.0212,-0.0951 q 0.0185,0.008 0.0323,0.0111 0.0148,0.004 0.0314,0.004 0.0332,0 0.0535,-0.0222 0.0203,-0.0222 0.0323,-0.0526 -0.0406,-0.0812 -0.0812,-0.18553 -0.0406,-0.10522 -0.0738,-0.23167 h 0.11814 q 0.008,0.0342 0.0185,0.0729 0.0111,0.0388 0.0231,0.0775 0.012,0.0388 0.0249,0.0766 0.0138,0.0369 0.0277,0.0692 0.009,-0.0323 0.0194,-0.0692 0.0102,-0.0378 0.0194,-0.0757 0.009,-0.0388 0.0175,-0.0775 0.009,-0.0388 0.0166,-0.0738 z m 0.61566,0.43382 v -0.33968 h -0.0951 v -0.0941 h 0.0951 v -0.0249 q 0,-0.0526 0.0148,-0.0868 0.0157,-0.0351 0.0415,-0.0554 0.0258,-0.0212 0.0591,-0.0295 0.0332,-0.009 0.0683,-0.009 0.036,0 0.0738,0.006 0.0379,0.006 0.0683,0.0212 l -0.0194,0.0923 q -0.0212,-0.007 -0.0535,-0.0148 -0.0314,-0.008 -0.06,-0.008 -0.0157,0 -0.0305,0.003 -0.0138,0.003 -0.0249,0.012 -0.0101,0.009 -0.0166,0.0268 -0.006,0.0166 -0.006,0.0443 v 0.0231 h 0.17815 v 0.0941 h -0.17815 v 0.33968 z m 0.76888,-0.21784 q 0,0.0517 -0.0148,0.0942 -0.0148,0.0415 -0.0415,0.072 -0.0268,0.0305 -0.0646,0.0471 -0.0369,0.0166 -0.0831,0.0166 -0.0461,0 -0.084,-0.0166 -0.0369,-0.0166 -0.0646,-0.0471 -0.0268,-0.0305 -0.0415,-0.072 -0.0148,-0.0425 -0.0148,-0.0942 0,-0.0508 0.0148,-0.0923 0.0157,-0.0425 0.0425,-0.072 0.0277,-0.0305 0.0655,-0.0462 0.0378,-0.0166 0.0821,-0.0166 0.0452,0 0.0821,0.0166 0.0378,0.0157 0.0646,0.0462 0.0277,0.0295 0.0425,0.072 0.0148,0.0415 0.0148,0.0923 z m -0.29352,9.3e-4 q 0,0.0582 0.0203,0.0941 0.0212,0.036 0.0674,0.036 0.0443,0 0.0665,-0.036 0.0231,-0.036 0.0231,-0.0941 0,-0.0582 -0.0212,-0.0932 -0.0203,-0.036 -0.0665,-0.036 -0.0443,0 -0.0674,0.036 -0.0221,0.0351 -0.0221,0.0932 z m 0.72273,-0.10154 q -0.0111,-0.003 -0.0268,-0.006 -0.0148,-0.003 -0.0305,-0.005 -0.0157,-0.003 -0.0305,-0.004 -0.0148,-9.3e-4 -0.0249,-9.3e-4 -0.024,0 -0.0471,0.003 -0.0231,0.002 -0.0471,0.008 v 0.32214 h -0.11446 v -0.40521 q 0.0452,-0.0166 0.0923,-0.0268 0.048,-0.0102 0.11168,-0.0102 0.009,0 0.0259,9.2e-4 0.0175,9.2e-4 0.0369,0.004 0.0194,0.002 0.0388,0.006 0.0203,0.003 0.036,0.008 z m 0.9581,-0.25291 v 0.0942 h -0.15046 v 0.47721 h -0.11445 v -0.47721 h -0.15046 v -0.0942 z m 0.0517,0.35814 q 0,-0.0572 0.0175,-0.10061 0.0175,-0.0434 0.0462,-0.072 0.0286,-0.0295 0.0655,-0.0443 0.0369,-0.0148 0.0757,-0.0148 0.096,0 0.14583,0.0572 0.0498,0.0563 0.0498,0.16522 0,0.0111 -9.3e-4,0.0231 0,0.012 -9.2e-4,0.0194 h -0.28152 q 0,0.0425 0.0351,0.0674 0.0351,0.024 0.0905,0.024 0.0341,0 0.0646,-0.007 0.0314,-0.007 0.0526,-0.0148 l 0.0157,0.0969 q -0.0295,0.0102 -0.0628,0.0166 -0.0332,0.007 -0.0748,0.007 -0.0554,0 -0.0997,-0.0138 -0.0434,-0.0148 -0.0748,-0.0424 -0.0305,-0.0286 -0.0471,-0.0702 -0.0166,-0.0415 -0.0166,-0.0969 z m 0.29076,-0.0452 q 0,-0.0175 -0.005,-0.0332 -0.005,-0.0166 -0.0148,-0.0295 -0.0101,-0.0129 -0.0258,-0.0203 -0.0157,-0.008 -0.0388,-0.008 -0.0221,0 -0.0388,0.007 -0.0157,0.007 -0.0268,0.0203 -0.0102,0.0129 -0.0166,0.0295 -0.006,0.0166 -0.007,0.0342 z m 0.54551,-0.06 q -0.0111,-0.003 -0.0268,-0.006 -0.0148,-0.003 -0.0305,-0.005 -0.0157,-0.003 -0.0305,-0.004 -0.0148,-9.3e-4 -0.0249,-9.3e-4 -0.024,0 -0.0471,0.003 -0.0231,0.002 -0.0471,0.008 v 0.32214 h -0.11446 v -0.40521 q 0.0452,-0.0166 0.0923,-0.0268 0.048,-0.0102 0.11168,-0.0102 0.009,0 0.0258,9.2e-4 0.0175,9.2e-4 0.0369,0.004 0.0194,0.002 0.0388,0.006 0.0203,0.003 0.036,0.008 z m 0.37474,-0.11999 q 0.036,0 0.0591,0.0111 0.0231,0.0111 0.036,0.0332 0.0138,0.0222 0.0185,0.0563 0.005,0.0332 0.005,0.0785 v 0.25937 h -0.0923 v -0.26491 q 0,-0.0258 -0.004,-0.0415 -0.003,-0.0157 -0.008,-0.024 -0.005,-0.008 -0.012,-0.0111 -0.006,-0.003 -0.0139,-0.003 -0.008,0 -0.0175,0.002 -0.009,9.3e-4 -0.0166,0.005 0.003,0.0175 0.005,0.0388 0.002,0.0212 0.002,0.0471 v 0.0868 h -0.0923 v -0.0997 q 0,-0.0443 -0.009,-0.0618 -0.008,-0.0175 -0.0277,-0.0175 -0.006,0 -0.0139,9.2e-4 -0.007,9.2e-4 -0.0148,0.003 v 0.3406 h -0.0923 v -0.41721 q 0.036,-0.0102 0.0711,-0.0157 0.0351,-0.006 0.0618,-0.006 0.024,0 0.0425,0.006 0.0194,0.006 0.0332,0.0194 0.0157,-0.0101 0.0369,-0.0175 0.0212,-0.008 0.0443,-0.008 z m 0.5492,0.42367 q -0.0314,0.008 -0.0766,0.0166 -0.0443,0.008 -0.0969,0.008 -0.0535,0 -0.0877,-0.0148 -0.0342,-0.0148 -0.0545,-0.0415 -0.0194,-0.0277 -0.0268,-0.0646 -0.007,-0.0369 -0.007,-0.0812 v -0.24183 h 0.11353 v 0.22706 q 0,0.06 0.0138,0.0895 0.0148,0.0286 0.0563,0.0286 0.0258,0 0.0517,-0.005 v -0.34059 h 0.11445 z m 0.29168,-0.28337 0.0886,-0.13568 h 0.11538 l -0.1403,0.2086 q 0.0221,0.0268 0.0434,0.0572 0.0212,0.0295 0.0406,0.06 0.0194,0.0305 0.0351,0.0582 0.0157,0.0277 0.0268,0.0498 h -0.11815 q -0.0249,-0.0471 -0.0498,-0.084 -0.0249,-0.0369 -0.0471,-0.0665 -0.0277,0.0369 -0.0498,0.072 -0.0221,0.0351 -0.0452,0.0785 h -0.11538 q 0.0138,-0.0258 0.0314,-0.0535 0.0185,-0.0286 0.0378,-0.0572 0.0203,-0.0295 0.0415,-0.0581 0.0222,-0.0286 0.0425,-0.0545 l -0.1523,-0.21044 h 0.11907 z"
         id="text209"
         aria-label="* only for Termux" /></g></g></svg>
