<?xml version="1.0" encoding="UTF-8" standalone="no"?>
<!-- Created with Inkscape (http://www.inkscape.org/) -->

<svg
   width="55.074368mm"
   height="23.603308mm"
   viewBox="0 0 55.074368 23.603308"
   version="1.1"
   id="svg1"
   xml:space="preserve"
   xmlns="http://www.w3.org/2000/svg"
   xmlns:svg="http://www.w3.org/2000/svg"><defs
     id="defs1" /><g
     id="layer1"
     transform="translate(-61.916303,-188.86018)"><rect
       style="fill:#2e51a2;fill-opacity:1;stroke-width:8.51785;stroke-linecap:round"
       id="rect16"
       width="55.074368"
       height="23.6033"
       x="61.916302"
       y="188.86018"
       ry="2.7861159" /><g
       id="text21"
       style="font-weight:bold;font-size:10.2429px;line-height:1;font-family:'Comic Neue';-inkscape-font-specification:'Comic Neue Bold';text-align:center;text-anchor:middle;fill:#254284;stroke-width:1.33484;stroke-linecap:round"
       aria-label="MAL&#10;randomizer"><path
         d="m 81.364908,198.48356 q -0.225344,0 -0.358502,-0.13316 -0.122915,-0.13315 -0.122915,-0.29704 0,-0.16389 0.04097,-0.33802 l 1.27012,-5.80772 q 0.04097,-0.18437 0.174129,-0.2868 0.133158,-0.11267 0.327773,-0.11267 0.358501,0 0.471173,0.34826 l 1.444249,4.5376 1.638864,-4.55809 q 0.122915,-0.32777 0.512145,-0.32777 0.174129,0 0.286801,0.11267 0.122915,0.10243 0.163887,0.2868 l 1.300848,5.79748 q 0.05121,0.23559 0.05121,0.30729 0,0.19461 -0.1434,0.33801 -0.143401,0.13316 -0.358502,0.13316 -0.204858,0 -0.327773,-0.10243 -0.122914,-0.11267 -0.163886,-0.2868 l -0.942347,-4.28153 -1.577406,4.34299 q -0.05121,0.15364 -0.184373,0.24583 -0.133157,0.0819 -0.297044,0.0819 -0.358501,0 -0.471173,-0.34826 l -1.331577,-4.16886 -0.901375,4.11765 q -0.04097,0.18437 -0.174129,0.29704 -0.133158,0.10243 -0.327773,0.10243 z m 12.547549,0.0102 q -0.368744,0 -0.481416,-0.34825 l -0.737489,-2.13053 -2.089551,0.46093 -0.665789,1.67984 q -0.06146,0.1434 -0.184372,0.23559 -0.112672,0.0922 -0.286801,0.0922 -0.204858,0 -0.358502,-0.1434 -0.153643,-0.1434 -0.153643,-0.33802 0,-0.13315 0.0717,-0.30728 l 0.409716,-1.02429 q -0.06146,-0.0205 -0.09219,-0.041 -0.266315,-0.13316 -0.266315,-0.45069 0,-0.18437 0.102429,-0.31753 0.112671,-0.13316 0.286801,-0.17413 l 0.378987,-0.0819 1.515949,-3.85133 q 0.06146,-0.15365 0.194615,-0.23559 0.133158,-0.0819 0.286801,-0.0819 0.163887,0 0.286802,0.0819 0.122914,0.0819 0.184372,0.25607 l 2.038337,5.91016 q 0.01024,0.0205 0.04097,0.12291 0.03073,0.0922 0.03073,0.19461 0,0.19462 -0.1434,0.34826 -0.143401,0.1434 -0.368745,0.1434 z m -1.556921,-3.43137 -0.553116,-1.6491 -0.768218,1.9359 z m 3.42113,3.41089 q -0.194615,0.0102 -0.348259,-0.1434 -0.153643,-0.15365 -0.153643,-0.34826 v -5.97161 q 0,-0.20486 0.1434,-0.34826 0.153644,-0.15364 0.368745,-0.15364 0.204858,0 0.348258,0.15364 0.153644,0.1434 0.153644,0.34826 v 5.42874 l 2.786068,-0.18438 q 0.215101,-0.0102 0.358502,0.13316 0.143401,0.13316 0.143401,0.3585 0,0.18437 -0.143401,0.34826 -0.133158,0.15364 -0.31753,0.16389 z"
         id="path28" /><path
         d="m 66.779034,208.72646 q -0.194616,0 -0.348259,-0.1434 -0.153644,-0.1434 -0.153644,-0.32777 v -4.14838 q 0,-0.20485 0.143401,-0.34826 0.153644,-0.1434 0.358502,-0.1434 0.204858,0 0.348258,0.1434 0.153644,0.14341 0.153644,0.34826 v 0.30729 q 0.501902,-0.81943 1.372548,-0.81943 0.522388,0 0.747732,0.2868 0.235587,0.2868 0.235587,0.68627 v 0.30729 q 0,0.20486 -0.143401,0.34826 -0.133158,0.13316 -0.338016,0.13316 -0.245829,0 -0.368744,-0.1434 -0.112672,-0.1434 -0.112672,-0.34826 v -0.13316 q 0,-0.16389 -0.225344,-0.16389 -0.184372,0 -0.430202,0.18438 -0.235586,0.18437 -0.38923,0.38923 -0.215101,0.26631 -0.286801,0.53263 -0.06146,0.26631 -0.06146,0.63506 l -0.01024,1.94615 q 0,0.18437 -0.153644,0.32777 -0.153643,0.1434 -0.338015,0.1434 z m 6.596419,0.10243 q -0.204858,0 -0.338016,-0.11267 -0.122915,-0.11267 -0.122915,-0.29705 v -0.1434 q -0.419959,0.45069 -1.16769,0.45069 -0.56336,0 -1.014047,-0.27656 -0.450688,-0.27656 -0.70676,-0.77846 -0.256073,-0.51214 -0.256073,-1.15745 0,-0.717 0.307287,-1.38279 0.307287,-0.67603 0.860404,-1.09599 0.563359,-0.41996 1.290605,-0.41996 0.471173,0 0.850161,0.13316 0.378987,0.12292 0.788703,0.30729 v 4.26105 q 0,0.20485 -0.143401,0.3585 -0.1434,0.15364 -0.348258,0.15364 z m -1.556921,-1.05502 q 0.297044,0 0.573602,-0.12291 0.286802,-0.12292 0.471174,-0.29705 l 0.03073,-2.67339 q -0.297045,-0.12292 -0.645303,-0.12292 -0.440445,0 -0.778461,0.27656 -0.338015,0.26631 -0.522387,0.717 -0.184373,0.44045 -0.184373,0.94235 0,0.62482 0.276559,0.95259 0.276558,0.32777 0.77846,0.32777 z m 3.97424,0.95259 q -0.194615,0 -0.348259,-0.1434 -0.1434,-0.1434 -0.1434,-0.32777 v -4.15862 q 0,-0.20486 0.153643,-0.34826 0.153644,-0.1434 0.358502,-0.1434 0.194615,0 0.327772,0.1434 0.143401,0.1434 0.143401,0.34826 v 0.77846 q 0.286801,-0.61457 0.727246,-0.9321 0.440445,-0.32778 0.962832,-0.32778 0.573603,0 0.911619,0.26632 0.338015,0.26631 0.491659,0.88089 0.153643,0.60433 0.153643,1.67983 l -0.01024,1.79251 q 0,0.19462 -0.133157,0.34826 -0.133158,0.1434 -0.338016,0.1434 -0.194615,0 -0.348259,-0.1434 -0.1434,-0.15364 -0.1434,-0.33802 v -1.70032 q 0,-0.79894 -0.0717,-1.22914 -0.0717,-0.43021 -0.2151,-0.58385 -0.143401,-0.16389 -0.389231,-0.16389 -0.307287,0 -0.614574,0.26632 -0.307287,0.25607 -0.573602,0.73749 -0.235587,0.41996 -0.327773,0.81943 -0.09219,0.39947 -0.09219,0.96283 v 0.86041 q 0,0.22534 -0.133158,0.36874 -0.122914,0.1434 -0.348258,0.1434 z m 6.575934,-0.0102 q -0.522388,0 -0.942347,-0.26632 -0.409716,-0.27656 -0.655546,-0.79894 -0.235586,-0.52239 -0.235586,-1.24964 0,-0.88089 0.276558,-1.5057 0.276558,-0.62482 0.768217,-0.94235 0.49166,-0.32777 1.136962,-0.32777 0.512145,0 1.095991,0.23558 l 0.05121,-1.58765 q 0.01024,-0.20485 0.153644,-0.34825 0.153643,-0.15365 0.358501,-0.15365 0.194615,0 0.338016,0.15365 0.153643,0.1434 0.1434,0.36874 l -0.1434,5.96137 q -0.01024,0.20486 -0.153644,0.33801 -0.1434,0.13316 -0.348258,0.13316 -0.194615,0 -0.338016,-0.11267 -0.133158,-0.11267 -0.133158,-0.29704 v -0.18438 q -0.266315,0.24583 -0.624817,0.41996 -0.358501,0.16389 -0.747731,0.16389 z m 0.08194,-0.92186 q 0.348258,0 0.645303,-0.1434 0.307287,-0.15365 0.481416,-0.36875 0.174129,-0.2151 0.184372,-0.39947 l 0.04097,-2.01785 q -0.184373,-0.12292 -0.471174,-0.2151 -0.286801,-0.10243 -0.553116,-0.10243 -0.624817,0 -0.942347,0.47117 -0.31753,0.46093 -0.31753,1.35206 0,0.73749 0.24583,1.08575 0.256072,0.33802 0.686274,0.33802 z m 5.541402,0.9321 q -0.583845,0 -1.075504,-0.31753 -0.481416,-0.31753 -0.757975,-0.8604 -0.276558,-0.55312 -0.276558,-1.19842 0,-0.72725 0.327773,-1.35206 0.327773,-0.63506 0.880889,-1.00381 0.553117,-0.37899 1.188177,-0.37899 0.583845,0 1.065261,0.32778 0.491659,0.32777 0.768218,0.87064 0.286801,0.54288 0.286801,1.16769 0,0.73749 -0.327773,1.37255 -0.327773,0.62482 -0.891132,1.00381 -0.553117,0.36874 -1.188177,0.36874 z m 0,-0.92186 q 0.358502,0 0.686275,-0.24583 0.327772,-0.24583 0.522388,-0.65555 0.194615,-0.40971 0.194615,-0.87064 0,-0.38923 -0.153644,-0.72725 -0.153643,-0.34826 -0.419959,-0.55311 -0.266315,-0.2151 -0.583845,-0.2151 -0.358501,0 -0.676031,0.25607 -0.307287,0.24583 -0.49166,0.66579 -0.184372,0.40971 -0.184372,0.88089 0,0.46093 0.153644,0.7887 0.163886,0.32777 0.409716,0.5019 0.256072,0.17413 0.542873,0.17413 z m 4.004977,0.92186 q -0.194615,0 -0.348259,-0.1434 -0.1434,-0.1434 -0.1434,-0.33802 v -4.13813 q 0,-0.19461 0.1434,-0.33801 0.153644,-0.15365 0.348259,-0.15365 0.204858,0 0.348258,0.15365 0.143401,0.1434 0.143401,0.33801 v 0.71701 q 0.63506,-1.20867 1.690079,-1.20867 0.419958,0 0.727245,0.24583 0.31753,0.24583 0.450688,0.73749 0.655546,-0.98332 1.597892,-0.98332 0.63506,0 1.003805,0.49166 0.368744,0.48142 0.368744,1.4545 v 2.68363 q 0,0.19462 -0.153644,0.33802 -0.1434,0.1434 -0.338015,0.1434 -0.204858,0 -0.348259,-0.1434 -0.1434,-0.1434 -0.1434,-0.33802 v -2.74509 q 0,-0.47118 -0.133158,-0.70676 -0.133158,-0.23559 -0.419959,-0.23559 -0.297044,0 -0.594088,0.23559 -0.297044,0.23558 -0.491659,0.6453 -0.184373,0.40972 -0.184373,0.90138 v 1.90517 q 0,0.20486 -0.1434,0.34826 -0.143401,0.13316 -0.348259,0.13316 -0.194615,0 -0.348258,-0.1434 -0.143401,-0.1434 -0.143401,-0.33802 v -2.74509 q 0,-0.49166 -0.122915,-0.71701 -0.112672,-0.22534 -0.378987,-0.22534 -0.327773,0 -0.645303,0.26632 -0.31753,0.25607 -0.553116,0.62481 -0.184373,0.30729 -0.276559,0.61458 -0.08194,0.30728 -0.08194,0.67603 l 0.01024,1.5057 q 0,0.19462 -0.143401,0.33802 -0.1434,0.1434 -0.348258,0.1434 z m 8.214805,-5.54141 q -0.19462,0 -0.348263,-0.15364 -0.143401,-0.15364 -0.133158,-0.34826 l 0.01024,-0.37899 q 0.01024,-0.19461 0.153644,-0.33801 0.143397,-0.1434 0.338007,-0.1434 0.19462,0 0.33802,0.15364 0.15364,0.15364 0.1434,0.33802 l -0.0102,0.38923 q -0.0102,0.20485 -0.15365,0.34825 -0.13315,0.13316 -0.33801,0.13316 z m -0.0512,5.54141 q -0.204857,0 -0.358501,-0.1434 -0.1434,-0.15364 -0.1434,-0.3585 l 0.05121,-4.07668 q 0,-0.20485 0.143401,-0.34825 0.15364,-0.15365 0.3585,-0.15365 0.2151,0 0.3585,0.15365 0.1434,0.1434 0.1434,0.34825 l -0.0512,4.07668 q 0,0.20486 -0.15365,0.3585 -0.1434,0.1434 -0.34826,0.1434 z m 1.83348,-0.0615 q -0.23558,0 -0.36874,-0.1434 -0.12292,-0.1434 -0.12292,-0.34826 0,-0.17412 0.10243,-0.29704 l 2.6017,-3.22651 h -2.14077 q -0.20485,0 -0.34825,-0.1434 -0.14341,-0.1434 -0.14341,-0.34826 0,-0.20486 0.14341,-0.34826 0.1434,-0.15364 0.34825,-0.15364 h 3.11385 q 0.22534,0 0.3585,0.15364 0.13315,0.1434 0.13315,0.34826 0,0.16388 -0.10242,0.29704 l -2.6017,3.22652 h 2.28417 q 0.20485,0 0.34825,0.1434 0.1434,0.1434 0.1434,0.34825 0,0.19462 -0.15364,0.34826 -0.1434,0.1434 -0.33801,0.1434 z m 6.57596,0.0615 q -0.72725,0 -1.3111,-0.30729 -0.5736,-0.31753 -0.90137,-0.89113 -0.32777,-0.58384 -0.32777,-1.37255 0,-0.6453 0.2868,-1.22914 0.29704,-0.59409 0.81943,-0.95259 0.53263,-0.35851 1.20866,-0.35851 0.62482,0 1.06526,0.25608 0.45069,0.24583 0.67604,0.59408 0.22534,0.34826 0.22534,0.62482 0,0.13316 -0.0819,0.25607 -0.0819,0.12292 -0.23559,0.21511 l -2.7451,1.5774 q 0.1434,0.31753 0.5019,0.49166 0.36875,0.17413 0.81944,0.17413 0.59408,0 1.01404,-0.44044 0.16389,-0.16389 0.33802,-0.16389 0.20486,0 0.33801,0.13316 0.14341,0.13315 0.14341,0.32777 0,0.16389 -0.12292,0.30729 -0.2868,0.31753 -0.76822,0.54287 -0.47117,0.2151 -0.94234,0.2151 z m 0.72724,-3.75914 q -0.12291,-0.2151 -0.34826,-0.31753 -0.22534,-0.11267 -0.53263,-0.11267 -0.58384,0 -0.98332,0.39947 -0.38923,0.39947 -0.45068,0.98332 -0.0205,0.15364 -0.0205,0.36874 z m 2.59145,3.75914 q -0.19462,0 -0.34826,-0.1434 -0.15365,-0.1434 -0.15365,-0.32777 v -4.14838 q 0,-0.20485 0.14341,-0.34826 0.15364,-0.1434 0.3585,-0.1434 0.20485,0 0.34826,0.1434 0.15364,0.14341 0.15364,0.34826 v 0.30729 q 0.5019,-0.81943 1.37255,-0.81943 0.52239,0 0.74773,0.2868 0.23559,0.2868 0.23559,0.68627 v 0.30729 q 0,0.20486 -0.1434,0.34826 -0.13316,0.13316 -0.33802,0.13316 -0.24583,0 -0.36874,-0.1434 -0.11268,-0.1434 -0.11268,-0.34826 v -0.13316 q 0,-0.16389 -0.22534,-0.16389 -0.18437,0 -0.4302,0.18438 -0.23559,0.18437 -0.38923,0.38923 -0.2151,0.26631 -0.2868,0.53263 -0.0615,0.26631 -0.0615,0.63506 l -0.0102,1.94615 q 0,0.18437 -0.15365,0.32777 -0.15364,0.1434 -0.33801,0.1434 z"
         id="path29" /></g><g
       id="text22"
       style="font-weight:bold;font-size:10.2429px;line-height:1;font-family:'Comic Neue';-inkscape-font-specification:'Comic Neue Bold';text-align:center;text-anchor:middle;fill:#254284;stroke-width:1.33484;stroke-linecap:round"
       aria-label="MAL&#10;randomizer"><path
         d="m 80.835741,199.01272 q -0.225344,0 -0.358502,-0.13316 -0.122915,-0.13315 -0.122915,-0.29704 0,-0.16389 0.04097,-0.33802 l 1.270119,-5.80772 q 0.04097,-0.18437 0.17413,-0.2868 0.133157,-0.11267 0.327773,-0.11267 0.358501,0 0.471173,0.34825 l 1.444249,4.53761 1.638864,-4.55809 q 0.122915,-0.32777 0.512145,-0.32777 0.174129,0 0.286801,0.11267 0.122915,0.10243 0.163886,0.2868 l 1.300849,5.79748 q 0.05121,0.23559 0.05121,0.30729 0,0.19461 -0.1434,0.33801 -0.143401,0.13316 -0.358502,0.13316 -0.204858,0 -0.327773,-0.10243 -0.122915,-0.11267 -0.163886,-0.2868 l -0.942347,-4.28153 -1.577406,4.34299 q -0.05121,0.15364 -0.184373,0.24583 -0.133157,0.0819 -0.297044,0.0819 -0.358501,0 -0.471173,-0.34826 l -1.331577,-4.16886 -0.901375,4.11765 q -0.04097,0.18437 -0.17413,0.29704 -0.133157,0.10243 -0.327772,0.10243 z m 12.547549,0.0102 q -0.368744,0 -0.481416,-0.34825 l -0.737489,-2.13053 -2.089552,0.46093 -0.665788,1.67984 q -0.06146,0.1434 -0.184372,0.23558 -0.112672,0.0922 -0.286801,0.0922 -0.204858,0 -0.358502,-0.1434 -0.153643,-0.1434 -0.153643,-0.33802 0,-0.13315 0.0717,-0.30728 l 0.409716,-1.02429 q -0.06146,-0.0205 -0.09219,-0.041 -0.266316,-0.13316 -0.266316,-0.45069 0,-0.18437 0.102429,-0.31753 0.112672,-0.13316 0.286802,-0.17413 l 0.378987,-0.0819 1.515949,-3.85133 q 0.06146,-0.15365 0.194615,-0.23559 0.133158,-0.0819 0.286801,-0.0819 0.163887,0 0.286802,0.0819 0.122914,0.0819 0.184372,0.25607 l 2.038337,5.91015 q 0.01024,0.0205 0.04097,0.12292 0.03073,0.0922 0.03073,0.19461 0,0.19462 -0.143401,0.34826 -0.1434,0.1434 -0.368744,0.1434 z m -1.556921,-3.43137 -0.553116,-1.6491 -0.768218,1.9359 z m 3.421129,3.41089 q -0.194615,0.0102 -0.348258,-0.1434 -0.153644,-0.15365 -0.153644,-0.34826 v -5.97161 q 0,-0.20486 0.143401,-0.34826 0.153643,-0.15364 0.368744,-0.15364 0.204858,0 0.348259,0.15364 0.153643,0.1434 0.153643,0.34826 v 5.42874 l 2.786069,-0.18438 q 0.215101,-0.0102 0.358502,0.13316 0.1434,0.13316 0.1434,0.3585 0,0.18437 -0.1434,0.34826 -0.133158,0.15364 -0.31753,0.16389 z"
         id="path26" /><path
         d="m 66.249866,209.25562 q -0.194615,0 -0.348258,-0.1434 -0.153644,-0.1434 -0.153644,-0.32777 v -4.14838 q 0,-0.20486 0.143401,-0.34826 0.153643,-0.1434 0.358501,-0.1434 0.204858,0 0.348259,0.1434 0.153644,0.1434 0.153644,0.34826 v 0.30729 q 0.501902,-0.81943 1.372548,-0.81943 0.522388,0 0.747732,0.2868 0.235586,0.2868 0.235586,0.68627 v 0.30729 q 0,0.20486 -0.1434,0.34826 -0.133158,0.13316 -0.338016,0.13316 -0.245829,0 -0.368744,-0.1434 -0.112672,-0.1434 -0.112672,-0.34826 v -0.13316 q 0,-0.16389 -0.225344,-0.16389 -0.184372,0 -0.430202,0.18438 -0.235586,0.18437 -0.38923,0.38923 -0.215101,0.26631 -0.286801,0.53263 -0.06146,0.26631 -0.06146,0.63506 l -0.01024,1.94615 q 0,0.18437 -0.153644,0.32777 -0.153643,0.1434 -0.338016,0.1434 z m 6.59642,0.10243 q -0.204858,0 -0.338016,-0.11267 -0.122915,-0.11267 -0.122915,-0.29705 v -0.1434 q -0.419959,0.45069 -1.16769,0.45069 -0.56336,0 -1.014048,-0.27656 -0.450687,-0.27656 -0.70676,-0.77846 -0.256072,-0.51214 -0.256072,-1.15745 0,-0.717 0.307287,-1.38279 0.307287,-0.67603 0.860403,-1.09599 0.56336,-0.41996 1.290606,-0.41996 0.471173,0 0.850161,0.13316 0.378987,0.12292 0.788703,0.30729 v 4.26104 q 0,0.20486 -0.143401,0.35851 -0.1434,0.15364 -0.348258,0.15364 z m -1.556921,-1.05502 q 0.297044,0 0.573602,-0.12291 0.286801,-0.12292 0.471174,-0.29705 l 0.03073,-2.67339 q -0.297044,-0.12292 -0.645302,-0.12292 -0.440445,0 -0.778461,0.27656 -0.338015,0.26631 -0.522388,0.717 -0.184372,0.44045 -0.184372,0.94235 0,0.62482 0.276558,0.95259 0.276559,0.32777 0.778461,0.32777 z m 3.97424,0.95259 q -0.194615,0 -0.348259,-0.1434 -0.143401,-0.1434 -0.143401,-0.32777 v -4.15862 q 0,-0.20486 0.153644,-0.34826 0.153643,-0.1434 0.358501,-0.1434 0.194616,0 0.327773,0.1434 0.143401,0.1434 0.143401,0.34826 v 0.77846 q 0.286801,-0.61457 0.727246,-0.9321 0.440444,-0.32778 0.962832,-0.32778 0.573603,0 0.911618,0.26632 0.338016,0.26631 0.49166,0.88089 0.153643,0.60433 0.153643,1.67983 l -0.01024,1.79251 q 0,0.19462 -0.133158,0.34826 -0.133157,0.1434 -0.338015,0.1434 -0.194615,0 -0.348259,-0.1434 -0.1434,-0.15364 -0.1434,-0.33802 v -1.70032 q 0,-0.79894 -0.0717,-1.22914 -0.0717,-0.43021 -0.215101,-0.58385 -0.1434,-0.16389 -0.38923,-0.16389 -0.307287,0 -0.614574,0.26632 -0.307287,0.25607 -0.573602,0.73749 -0.235587,0.41996 -0.327773,0.81943 -0.09219,0.39947 -0.09219,0.96283 v 0.86041 q 0,0.22534 -0.133158,0.36874 -0.122915,0.1434 -0.348258,0.1434 z m 6.575933,-0.0102 q -0.522387,0 -0.942346,-0.26632 -0.409716,-0.27656 -0.655546,-0.79894 -0.235587,-0.52239 -0.235587,-1.24964 0,-0.88089 0.276559,-1.5057 0.276558,-0.62482 0.768217,-0.94235 0.491659,-0.32777 1.136962,-0.32777 0.512145,0 1.09599,0.23558 l 0.05121,-1.58765 q 0.01024,-0.20485 0.153643,-0.34825 0.153644,-0.15365 0.358502,-0.15365 0.194615,0 0.338016,0.15365 0.153643,0.1434 0.1434,0.36874 l -0.1434,5.96137 q -0.01024,0.20486 -0.153644,0.33801 -0.143401,0.13316 -0.348259,0.13316 -0.194615,0 -0.338015,-0.11267 -0.133158,-0.11267 -0.133158,-0.29705 v -0.18437 q -0.266315,0.24583 -0.624817,0.41996 -0.358501,0.16389 -0.747732,0.16389 z m 0.08194,-0.92186 q 0.348258,0 0.645302,-0.1434 0.307287,-0.15365 0.481417,-0.36875 0.174129,-0.2151 0.184372,-0.39947 l 0.04097,-2.01785 q -0.184372,-0.12292 -0.471173,-0.2151 -0.286801,-0.10243 -0.553117,-0.10243 -0.624816,0 -0.942346,0.47117 -0.31753,0.46093 -0.31753,1.35206 0,0.73749 0.245829,1.08575 0.256073,0.33802 0.686275,0.33802 z m 5.541402,0.9321 q -0.583845,0 -1.075504,-0.31753 -0.481417,-0.31753 -0.757975,-0.8604 -0.276558,-0.55312 -0.276558,-1.19842 0,-0.72725 0.327773,-1.35206 0.327772,-0.63506 0.880889,-1.00381 0.553117,-0.37899 1.188176,-0.37899 0.583846,0 1.065262,0.32778 0.491659,0.32777 0.768218,0.87064 0.286801,0.54288 0.286801,1.16769 0,0.73749 -0.327773,1.37255 -0.327773,0.62482 -0.891132,1.00381 -0.553117,0.36874 -1.188177,0.36874 z m 0,-0.92186 q 0.358502,0 0.686275,-0.24583 0.327772,-0.24583 0.522387,-0.65555 0.194616,-0.40971 0.194616,-0.87064 0,-0.38923 -0.153644,-0.72725 -0.153643,-0.34826 -0.419959,-0.55311 -0.266315,-0.21511 -0.583845,-0.21511 -0.358502,0 -0.676032,0.25608 -0.307287,0.24583 -0.491659,0.66579 -0.184372,0.40971 -0.184372,0.88089 0,0.46093 0.153644,0.7887 0.163886,0.32777 0.409716,0.5019 0.256072,0.17413 0.542873,0.17413 z m 4.004977,0.92186 q -0.194615,0 -0.348259,-0.1434 -0.143401,-0.1434 -0.143401,-0.33802 v -4.13813 q 0,-0.19461 0.143401,-0.33801 0.153644,-0.15365 0.348259,-0.15365 0.204858,0 0.348258,0.15365 0.143401,0.1434 0.143401,0.33801 v 0.71701 q 0.63506,-1.20867 1.690078,-1.20867 0.419959,0 0.727246,0.24583 0.31753,0.24583 0.450688,0.73749 0.655545,-0.98332 1.597892,-0.98332 0.63506,0 1.003804,0.49166 0.368745,0.48142 0.368745,1.45449 v 2.68364 q 0,0.19462 -0.153644,0.33802 -0.1434,0.1434 -0.338015,0.1434 -0.204858,0 -0.348259,-0.1434 -0.143401,-0.1434 -0.143401,-0.33802 v -2.74509 q 0,-0.47118 -0.133157,-0.70676 -0.133158,-0.23559 -0.419959,-0.23559 -0.297044,0 -0.594088,0.23559 -0.297044,0.23558 -0.49166,0.6453 -0.184372,0.40972 -0.184372,0.90138 v 1.90517 q 0,0.20486 -0.1434,0.34826 -0.143401,0.13316 -0.348259,0.13316 -0.194615,0 -0.348259,-0.1434 -0.1434,-0.1434 -0.1434,-0.33802 v -2.74509 q 0,-0.49166 -0.122915,-0.71701 -0.112672,-0.22534 -0.378987,-0.22534 -0.327773,0 -0.645303,0.26632 -0.31753,0.25607 -0.553117,0.62481 -0.184372,0.30729 -0.276558,0.61458 -0.08194,0.30728 -0.08194,0.67603 l 0.01024,1.5057 q 0,0.19462 -0.143401,0.33802 -0.1434,0.1434 -0.348258,0.1434 z m 8.2148,-5.54141 q -0.194615,0 -0.348258,-0.15364 -0.143401,-0.15365 -0.133158,-0.34826 l 0.01024,-0.37899 q 0.01024,-0.19461 0.153643,-0.33801 0.143401,-0.1434 0.338016,-0.1434 0.194615,0 0.33801,0.15364 0.15365,0.15364 0.1434,0.33802 l -0.0102,0.38923 q -0.0102,0.20485 -0.15364,0.34825 -0.133158,0.13316 -0.338016,0.13316 z m -0.05121,5.54141 q -0.204858,0 -0.358502,-0.1434 -0.1434,-0.15364 -0.1434,-0.3585 l 0.05121,-4.07668 q 0,-0.20485 0.143401,-0.34825 0.153643,-0.15365 0.358501,-0.15365 0.215101,0 0.358503,0.15365 0.1434,0.1434 0.1434,0.34825 l -0.0512,4.07668 q 0,0.20486 -0.153649,0.3585 -0.1434,0.1434 -0.348258,0.1434 z m 1.833483,-0.0615 q -0.23559,0 -0.36875,-0.1434 -0.12291,-0.1434 -0.12291,-0.34826 0,-0.17413 0.10243,-0.29704 l 2.60169,-3.22651 h -2.14076 q -0.20486,0 -0.34826,-0.1434 -0.1434,-0.1434 -0.1434,-0.34826 0,-0.20486 0.1434,-0.34826 0.1434,-0.15364 0.34826,-0.15364 h 3.11384 q 0.22534,0 0.3585,0.15364 0.13316,0.1434 0.13316,0.34826 0,0.16388 -0.10243,0.29704 l -2.6017,3.22651 h 2.28417 q 0.20486,0 0.34826,0.14341 0.1434,0.1434 0.1434,0.34825 0,0.19462 -0.15365,0.34826 -0.1434,0.1434 -0.33801,0.1434 z m 6.57595,0.0615 q -0.72725,0 -1.31109,-0.30729 -0.5736,-0.31753 -0.90138,-0.89113 -0.32777,-0.58384 -0.32777,-1.37255 0,-0.6453 0.2868,-1.22915 0.29704,-0.59408 0.81943,-0.95258 0.53263,-0.35851 1.20867,-0.35851 0.62481,0 1.06526,0.25608 0.45068,0.24583 0.67603,0.59408 0.22534,0.34826 0.22534,0.62482 0,0.13316 -0.0819,0.25607 -0.0819,0.12292 -0.23559,0.2151 l -2.7451,1.57741 q 0.14341,0.31753 0.50191,0.49166 0.36874,0.17413 0.81943,0.17413 0.59409,0 1.01405,-0.44044 0.16388,-0.16389 0.33801,-0.16389 0.20486,0 0.33802,0.13316 0.1434,0.13315 0.1434,0.32777 0,0.16389 -0.12292,0.30729 -0.2868,0.31753 -0.76821,0.54287 -0.47118,0.2151 -0.94235,0.2151 z m 0.72724,-3.75914 q -0.12291,-0.2151 -0.34825,-0.31753 -0.22535,-0.11268 -0.53263,-0.11268 -0.58385,0 -0.98332,0.39948 -0.38923,0.39947 -0.45069,0.98332 -0.0205,0.15364 -0.0205,0.36874 z m 2.59145,3.75914 q -0.19462,0 -0.34826,-0.1434 -0.15364,-0.1434 -0.15364,-0.32777 v -4.14838 q 0,-0.20486 0.1434,-0.34826 0.15364,-0.1434 0.3585,-0.1434 0.20486,0 0.34826,0.1434 0.15364,0.1434 0.15364,0.34826 v 0.30729 q 0.5019,-0.81943 1.37255,-0.81943 0.52239,0 0.74773,0.2868 0.23559,0.2868 0.23559,0.68627 v 0.30729 q 0,0.20486 -0.1434,0.34826 -0.13316,0.13316 -0.33802,0.13316 -0.24583,0 -0.36874,-0.1434 -0.11267,-0.1434 -0.11267,-0.34826 v -0.13316 q 0,-0.16389 -0.22535,-0.16389 -0.18437,0 -0.4302,0.18438 -0.23559,0.18437 -0.38923,0.38923 -0.2151,0.26631 -0.2868,0.53263 -0.0615,0.26631 -0.0615,0.63506 l -0.0102,1.94615 q 0,0.18437 -0.15364,0.32777 -0.15365,0.1434 -0.33802,0.1434 z"
         id="path27" /></g><g
       id="text24"
       style="font-weight:bold;font-size:10.2429px;line-height:1;font-family:'Comic Neue';-inkscape-font-specification:'Comic Neue Bold';text-align:center;text-anchor:middle;fill:#ffffff;stroke-width:1.33484;stroke-linecap:round"
       aria-label="MAL&#10;randomizer"><path
         d="m 80.306573,199.01272 q -0.225343,0 -0.358501,-0.13316 -0.122915,-0.13315 -0.122915,-0.29704 0,-0.16389 0.04097,-0.33802 l 1.270119,-5.80772 q 0.04097,-0.18437 0.17413,-0.2868 0.133157,-0.11267 0.327772,-0.11267 0.358502,0 0.471174,0.34825 l 1.444249,4.53761 1.638864,-4.55809 q 0.122914,-0.32777 0.512145,-0.32777 0.174129,0 0.286801,0.11267 0.122915,0.10243 0.163886,0.2868 l 1.300848,5.79748 q 0.05121,0.23559 0.05121,0.30729 0,0.19461 -0.143401,0.33801 -0.1434,0.13316 -0.358501,0.13316 -0.204858,0 -0.327773,-0.10243 -0.122915,-0.11267 -0.163886,-0.2868 l -0.942347,-4.28153 -1.577407,4.34299 q -0.05121,0.15364 -0.184372,0.24583 -0.133158,0.0819 -0.297044,0.0819 -0.358501,0 -0.471173,-0.34826 l -1.331577,-4.16886 -0.901376,4.11765 q -0.04097,0.18437 -0.174129,0.29704 -0.133158,0.10243 -0.327773,0.10243 z m 12.54755,0.0102 q -0.368744,0 -0.481416,-0.34825 l -0.737489,-2.13053 -2.089552,0.46093 -0.665788,1.67984 q -0.06146,0.1434 -0.184372,0.23558 -0.112672,0.0922 -0.286802,0.0922 -0.204858,0 -0.358501,-0.1434 -0.153644,-0.1434 -0.153644,-0.33802 0,-0.13315 0.0717,-0.30728 l 0.409716,-1.02429 q -0.06146,-0.0205 -0.09219,-0.041 -0.266316,-0.13316 -0.266316,-0.45069 0,-0.18437 0.102429,-0.31753 0.112672,-0.13316 0.286801,-0.17413 l 0.378988,-0.0819 1.515949,-3.85133 q 0.06146,-0.15365 0.194615,-0.23559 0.133158,-0.0819 0.286801,-0.0819 0.163887,0 0.286801,0.0819 0.122915,0.0819 0.184373,0.25607 l 2.038337,5.91015 q 0.01024,0.0205 0.04097,0.12292 0.03073,0.0922 0.03073,0.19461 0,0.19462 -0.143401,0.34826 -0.1434,0.1434 -0.368744,0.1434 z m -1.556921,-3.43137 -0.553116,-1.6491 -0.768218,1.9359 z m 3.421129,3.41089 q -0.194615,0.0102 -0.348258,-0.1434 -0.153644,-0.15365 -0.153644,-0.34826 v -5.97161 q 0,-0.20486 0.143401,-0.34826 0.153643,-0.15364 0.368744,-0.15364 0.204858,0 0.348259,0.15364 0.153643,0.1434 0.153643,0.34826 v 5.42874 l 2.786069,-0.18438 q 0.215101,-0.0102 0.358502,0.13316 0.1434,0.13316 0.1434,0.3585 0,0.18437 -0.1434,0.34826 -0.133158,0.15364 -0.31753,0.16389 z"
         id="path24" /><path
         d="m 65.720699,209.25562 q -0.194615,0 -0.348258,-0.1434 -0.153644,-0.1434 -0.153644,-0.32777 v -4.14838 q 0,-0.20486 0.143401,-0.34826 0.153643,-0.1434 0.358501,-0.1434 0.204858,0 0.348259,0.1434 0.153643,0.1434 0.153643,0.34826 v 0.30729 q 0.501902,-0.81943 1.372549,-0.81943 0.522388,0 0.747732,0.2868 0.235586,0.2868 0.235586,0.68627 v 0.30729 q 0,0.20486 -0.1434,0.34826 -0.133158,0.13316 -0.338016,0.13316 -0.24583,0 -0.368744,-0.1434 -0.112672,-0.1434 -0.112672,-0.34826 v -0.13316 q 0,-0.16389 -0.225344,-0.16389 -0.184372,0 -0.430202,0.18438 -0.235587,0.18437 -0.38923,0.38923 -0.215101,0.26631 -0.286801,0.53263 -0.06146,0.26631 -0.06146,0.63506 l -0.01024,1.94615 q 0,0.18437 -0.153643,0.32777 -0.153644,0.1434 -0.338016,0.1434 z m 6.596419,0.10243 q -0.204858,0 -0.338015,-0.11267 -0.122915,-0.11267 -0.122915,-0.29705 v -0.1434 q -0.419959,0.45069 -1.167691,0.45069 -0.563359,0 -1.014047,-0.27656 -0.450687,-0.27656 -0.70676,-0.77846 -0.256072,-0.51214 -0.256072,-1.15745 0,-0.717 0.307287,-1.38279 0.307287,-0.67603 0.860403,-1.09599 0.56336,-0.41996 1.290606,-0.41996 0.471173,0 0.85016,0.13316 0.378988,0.12292 0.788704,0.30729 v 4.26104 q 0,0.20486 -0.143401,0.35851 -0.143401,0.15364 -0.348259,0.15364 z m -1.55692,-1.05502 q 0.297044,0 0.573602,-0.12291 0.286801,-0.12292 0.471173,-0.29705 l 0.03073,-2.67339 q -0.297044,-0.12292 -0.645303,-0.12292 -0.440444,0 -0.77846,0.27656 -0.338016,0.26631 -0.522388,0.717 -0.184372,0.44045 -0.184372,0.94235 0,0.62482 0.276558,0.95259 0.276559,0.32777 0.77846,0.32777 z m 3.974239,0.95259 q -0.194615,0 -0.348258,-0.1434 -0.143401,-0.1434 -0.143401,-0.32777 v -4.15862 q 0,-0.20486 0.153644,-0.34826 0.153643,-0.1434 0.358501,-0.1434 0.194615,0 0.327773,0.1434 0.143401,0.1434 0.143401,0.34826 v 0.77846 q 0.286801,-0.61457 0.727246,-0.9321 0.440444,-0.32778 0.962832,-0.32778 0.573602,0 0.911618,0.26632 0.338016,0.26631 0.491659,0.88089 0.153644,0.60433 0.153644,1.67983 l -0.01024,1.79251 q 0,0.19462 -0.133158,0.34826 -0.133157,0.1434 -0.338015,0.1434 -0.194616,0 -0.348259,-0.1434 -0.143401,-0.15364 -0.143401,-0.33802 v -1.70032 q 0,-0.79894 -0.0717,-1.22914 -0.0717,-0.43021 -0.215101,-0.58385 -0.1434,-0.16389 -0.38923,-0.16389 -0.307287,0 -0.614574,0.26632 -0.307287,0.25607 -0.573602,0.73749 -0.235587,0.41996 -0.327773,0.81943 -0.09219,0.39947 -0.09219,0.96283 v 0.86041 q 0,0.22534 -0.133158,0.36874 -0.122915,0.1434 -0.348258,0.1434 z m 6.575934,-0.0102 q -0.522388,0 -0.942346,-0.26632 -0.409716,-0.27656 -0.655546,-0.79894 -0.235587,-0.52239 -0.235587,-1.24964 0,-0.88089 0.276559,-1.5057 0.276558,-0.62482 0.768217,-0.94235 0.491659,-0.32777 1.136962,-0.32777 0.512145,0 1.09599,0.23558 l 0.05121,-1.58765 q 0.01024,-0.20485 0.153643,-0.34825 0.153644,-0.15365 0.358502,-0.15365 0.194615,0 0.338015,0.15365 0.153644,0.1434 0.143401,0.36874 l -0.143401,5.96137 q -0.01024,0.20486 -0.153643,0.33801 -0.143401,0.13316 -0.348259,0.13316 -0.194615,0 -0.338015,-0.11267 -0.133158,-0.11267 -0.133158,-0.29705 v -0.18437 q -0.266316,0.24583 -0.624817,0.41996 -0.358502,0.16389 -0.747732,0.16389 z m 0.08194,-0.92186 q 0.348258,0 0.645302,-0.1434 0.307287,-0.15365 0.481416,-0.36875 0.17413,-0.2151 0.184373,-0.39947 l 0.04097,-2.01785 q -0.184372,-0.12292 -0.471173,-0.2151 -0.286801,-0.10243 -0.553117,-0.10243 -0.624817,0 -0.942346,0.47117 -0.31753,0.46093 -0.31753,1.35206 0,0.73749 0.245829,1.08575 0.256073,0.33802 0.686275,0.33802 z m 5.541402,0.9321 q -0.583845,0 -1.075504,-0.31753 -0.481417,-0.31753 -0.757975,-0.8604 -0.276558,-0.55312 -0.276558,-1.19842 0,-0.72725 0.327772,-1.35206 0.327773,-0.63506 0.88089,-1.00381 0.553116,-0.37899 1.188176,-0.37899 0.583846,0 1.065262,0.32778 0.491659,0.32777 0.768217,0.87064 0.286802,0.54288 0.286802,1.16769 0,0.73749 -0.327773,1.37255 -0.327773,0.62482 -0.891133,1.00381 -0.553116,0.36874 -1.188176,0.36874 z m 0,-0.92186 q 0.358502,0 0.686274,-0.24583 0.327773,-0.24583 0.522388,-0.65555 0.194615,-0.40971 0.194615,-0.87064 0,-0.38923 -0.153643,-0.72725 -0.153644,-0.34826 -0.419959,-0.55311 -0.266315,-0.21511 -0.583845,-0.21511 -0.358502,0 -0.676032,0.25608 -0.307287,0.24583 -0.491659,0.66579 -0.184372,0.40971 -0.184372,0.88089 0,0.46093 0.153643,0.7887 0.163887,0.32777 0.409716,0.5019 0.256073,0.17413 0.542874,0.17413 z m 4.004976,0.92186 q -0.194615,0 -0.348258,-0.1434 -0.143401,-0.1434 -0.143401,-0.33802 v -4.13813 q 0,-0.19461 0.143401,-0.33801 0.153643,-0.15365 0.348258,-0.15365 0.204858,0 0.348259,0.15365 0.143401,0.1434 0.143401,0.33801 v 0.71701 q 0.635059,-1.20867 1.690078,-1.20867 0.419959,0 0.727246,0.24583 0.31753,0.24583 0.450688,0.73749 0.655545,-0.98332 1.597892,-0.98332 0.63506,0 1.003804,0.49166 0.368745,0.48142 0.368745,1.45449 v 2.68364 q 0,0.19462 -0.153644,0.33802 -0.1434,0.1434 -0.338016,0.1434 -0.204858,0 -0.348258,-0.1434 -0.143401,-0.1434 -0.143401,-0.33802 v -2.74509 q 0,-0.47118 -0.133157,-0.70676 -0.133158,-0.23559 -0.419959,-0.23559 -0.297044,0 -0.594089,0.23559 -0.297044,0.23558 -0.491659,0.6453 -0.184372,0.40972 -0.184372,0.90138 v 1.90517 q 0,0.20486 -0.143401,0.34826 -0.1434,0.13316 -0.348258,0.13316 -0.194615,0 -0.348259,-0.1434 -0.1434,-0.1434 -0.1434,-0.33802 v -2.74509 q 0,-0.49166 -0.122915,-0.71701 -0.112672,-0.22534 -0.378987,-0.22534 -0.327773,0 -0.645303,0.26632 -0.31753,0.25607 -0.553117,0.62481 -0.184372,0.30729 -0.276558,0.61458 -0.08194,0.30728 -0.08194,0.67603 l 0.01024,1.5057 q 0,0.19462 -0.143401,0.33802 -0.143401,0.1434 -0.348259,0.1434 z m 8.214801,-5.54141 q -0.194615,0 -0.348259,-0.15364 -0.1434,-0.15365 -0.133157,-0.34826 l 0.01024,-0.37899 q 0.01024,-0.19461 0.153643,-0.33801 0.143401,-0.1434 0.338016,-0.1434 0.194615,0 0.338016,0.15364 0.153643,0.15364 0.1434,0.33802 l -0.01024,0.38923 q -0.01024,0.20485 -0.153643,0.34825 -0.133158,0.13316 -0.338016,0.13316 z m -0.05121,5.54141 q -0.204858,0 -0.358502,-0.1434 -0.143401,-0.15364 -0.143401,-0.3585 l 0.05121,-4.07668 q 0,-0.20485 0.143401,-0.34825 0.153643,-0.15365 0.358501,-0.15365 0.215101,0 0.358502,0.15365 0.1434,0.1434 0.1434,0.34825 l -0.05121,4.07668 q 0,0.20486 -0.153644,0.3585 -0.1434,0.1434 -0.348257,0.1434 z m 1.83348,-0.0615 q -0.23559,0 -0.36875,-0.1434 -0.12291,-0.1434 -0.12291,-0.34826 0,-0.17413 0.10243,-0.29704 l 2.6017,-3.22651 h -2.14077 q -0.20486,0 -0.34826,-0.1434 -0.1434,-0.1434 -0.1434,-0.34826 0,-0.20486 0.1434,-0.34826 0.1434,-0.15364 0.34826,-0.15364 h 3.11384 q 0.22534,0 0.3585,0.15364 0.13316,0.1434 0.13316,0.34826 0,0.16388 -0.10243,0.29704 l -2.6017,3.22651 h 2.28417 q 0.20486,0 0.34826,0.14341 0.1434,0.1434 0.1434,0.34825 0,0.19462 -0.15364,0.34826 -0.1434,0.1434 -0.33802,0.1434 z m 6.57595,0.0615 q -0.72724,0 -1.31109,-0.30729 -0.5736,-0.31753 -0.90137,-0.89113 -0.32778,-0.58384 -0.32778,-1.37255 0,-0.6453 0.2868,-1.22915 0.29705,-0.59408 0.81944,-0.95258 0.53263,-0.35851 1.20866,-0.35851 0.62481,0 1.06526,0.25608 0.45069,0.24583 0.67603,0.59408 0.22534,0.34826 0.22534,0.62482 0,0.13316 -0.0819,0.25607 -0.0819,0.12292 -0.23559,0.2151 l -2.74509,1.57741 q 0.1434,0.31753 0.5019,0.49166 0.36874,0.17413 0.81943,0.17413 0.59409,0 1.01405,-0.44044 0.16389,-0.16389 0.33801,-0.16389 0.20486,0 0.33802,0.13316 0.1434,0.13315 0.1434,0.32777 0,0.16389 -0.12291,0.30729 -0.28681,0.31753 -0.76822,0.54287 -0.47117,0.2151 -0.94235,0.2151 z m 0.72725,-3.75914 q -0.12292,-0.2151 -0.34826,-0.31753 -0.22534,-0.11268 -0.53263,-0.11268 -0.58385,0 -0.98332,0.39948 -0.38923,0.39947 -0.45069,0.98332 -0.0205,0.15364 -0.0205,0.36874 z m 2.59144,3.75914 q -0.19461,0 -0.34826,-0.1434 -0.15364,-0.1434 -0.15364,-0.32777 v -4.14838 q 0,-0.20486 0.1434,-0.34826 0.15364,-0.1434 0.3585,-0.1434 0.20486,0 0.34826,0.1434 0.15364,0.1434 0.15364,0.34826 v 0.30729 q 0.50191,-0.81943 1.37255,-0.81943 0.52239,0 0.74773,0.2868 0.23559,0.2868 0.23559,0.68627 v 0.30729 q 0,0.20486 -0.1434,0.34826 -0.13316,0.13316 -0.33801,0.13316 -0.24583,0 -0.36875,-0.1434 -0.11267,-0.1434 -0.11267,-0.34826 v -0.13316 q 0,-0.16389 -0.22535,-0.16389 -0.18437,0 -0.4302,0.18438 -0.23558,0.18437 -0.38923,0.38923 -0.2151,0.26631 -0.2868,0.53263 -0.0615,0.26631 -0.0615,0.63506 l -0.0102,1.94615 q 0,0.18437 -0.15364,0.32777 -0.15365,0.1434 -0.33802,0.1434 z"
         id="path25" /></g></g></svg>
