<?xml version="1.0" encoding="UTF-8" standalone="no"?>
<!-- Created with Inkscape (http://www.inkscape.org/) -->

<svg
   width="55.074368mm"
   height="23.603308mm"
   viewBox="0 0 55.074368 23.603308"
   version="1.1"
   id="svg1"
   xml:space="preserve"
   xmlns="http://www.w3.org/2000/svg"
   xmlns:svg="http://www.w3.org/2000/svg"><defs
     id="defs1" /><g
     id="layer1"
     transform="translate(-61.953939,-297.16381)"><rect
       style="fill:#53b56a;fill-opacity:1;stroke-width:8.51785;stroke-linecap:round"
       id="rect165"
       width="55.074368"
       height="23.6033"
       x="61.953938"
       y="297.16382"
       ry="2.7861159" /><g
       id="g170"
       transform="matrix(1.2128568,0,0,1.2128568,51.513848,254.31039)"><path
         style="font-weight:bold;font-size:11.5673px;line-height:1;font-family:Rubik;-inkscape-font-specification:'Rubik Bold';text-align:center;text-anchor:middle;fill:#ffffff;stroke-width:2.34236;stroke-linecap:round"
         d="m 15.19466,49.111645 q -0.12724,0 -0.208211,-0.08097 -0.08097,-0.08097 -0.08097,-0.208212 v -7.518745 q 0,-0.12724 0.08097,-0.208211 0.08097,-0.08097 0.208211,-0.08097 h 1.226134 q 0.196644,0 0.277615,0.09254 0.09254,0.08097 0.115673,0.127241 l 2.822421,4.45341 v -4.384007 q 0,-0.12724 0.08097,-0.208211 0.08097,-0.08097 0.208212,-0.08097 h 1.388076 q 0.12724,0 0.208211,0.08097 0.08097,0.08097 0.08097,0.208211 v 7.518745 q 0,0.115673 -0.08097,0.208212 -0.08097,0.08097 -0.208211,0.08097 H 20.07606 q -0.185077,0 -0.277616,-0.09254 -0.08097,-0.09254 -0.104105,-0.12724 l -2.822422,-4.279901 v 4.210497 q 0,0.127241 -0.08097,0.208212 -0.08097,0.08097 -0.208211,0.08097 z m 10.74602,0.115673 q -0.971653,0 -1.642557,-0.312317 -0.659336,-0.312317 -1.017922,-0.890682 -0.347019,-0.589933 -0.393288,-1.399644 -0.01157,-0.231346 -0.01157,-0.520528 0,-0.30075 0.01157,-0.520529 0.04627,-0.821278 0.416423,-1.399643 0.370153,-0.578365 1.029489,-0.890682 0.670904,-0.312317 1.607855,-0.312317 0.948518,0 1.607855,0.312317 0.670903,0.312317 1.041057,0.890682 0.370153,0.578365 0.416422,1.399643 0.01157,0.219779 0.01157,0.520529 0,0.289182 -0.01157,0.520528 -0.04627,0.809711 -0.404855,1.399644 -0.347019,0.578365 -1.017923,0.890682 -0.659336,0.312317 -1.642556,0.312317 z m 0,-1.411211 q 0.520528,0 0.751874,-0.312317 0.242914,-0.312317 0.277616,-0.936951 0.01157,-0.17351 0.01157,-0.462692 0,-0.289183 -0.01157,-0.462692 -0.0347,-0.613067 -0.277616,-0.925384 -0.231346,-0.323885 -0.751874,-0.323885 -0.508961,0 -0.751875,0.323885 -0.242913,0.312317 -0.266048,0.925384 -0.01157,0.173509 -0.01157,0.462692 0,0.289182 0.01157,0.462692 0.02313,0.624634 0.266048,0.936951 0.242914,0.312317 0.751875,0.312317 z m 7.272933,1.295538 q -0.740307,0 -1.283971,-0.231346 -0.532095,-0.242914 -0.821278,-0.740307 -0.289182,-0.508962 -0.289182,-1.307105 v -2.220922 h -0.90225 q -0.12724,0 -0.219778,-0.08097 -0.08097,-0.08097 -0.08097,-0.208211 v -0.936952 q 0,-0.12724 0.08097,-0.208211 0.09254,-0.08097 0.219778,-0.08097 h 0.90225 v -1.908605 q 0,-0.12724 0.08097,-0.208211 0.09254,-0.08097 0.208211,-0.08097 h 1.341807 q 0.12724,0 0.208211,0.08097 0.08097,0.08097 0.08097,0.208211 v 1.908605 h 1.445913 q 0.12724,0 0.208211,0.08097 0.08097,0.08097 0.08097,0.208211 v 0.936952 q 0,0.12724 -0.08097,0.208211 -0.08097,0.08097 -0.208211,0.08097 h -1.445913 v 2.058979 q 0,0.393289 0.150375,0.624635 0.150375,0.231346 0.508962,0.231346 h 0.890682 q 0.12724,0 0.208211,0.08097 0.08097,0.08097 0.08097,0.208211 v 1.006355 q 0,0.127241 -0.08097,0.208212 -0.08097,0.08097 -0.208211,0.08097 z m 4.129537,0.115673 q -0.624634,0 -1.122028,-0.231346 -0.485827,-0.242914 -0.775009,-0.647769 -0.289183,-0.404856 -0.289183,-0.913817 0,-0.821278 0.670904,-1.295537 0.670903,-0.485827 1.781364,-0.659336 l 1.445912,-0.219779 v -0.161942 q 0,-0.416423 -0.173509,-0.636202 -0.17351,-0.219778 -0.636202,-0.219778 -0.323884,0 -0.532095,0.12724 -0.196644,0.12724 -0.312317,0.347019 -0.104106,0.150375 -0.289183,0.150375 h -1.295537 q -0.127241,0 -0.196645,-0.0694 -0.0694,-0.08097 -0.05784,-0.185077 0,-0.208211 0.150375,-0.474259 0.161942,-0.277615 0.485826,-0.543663 0.323885,-0.266048 0.832846,-0.439558 0.508961,-0.173509 1.226134,-0.173509 0.751874,0 1.28397,0.173509 0.532096,0.17351 0.85598,0.485827 0.335452,0.312317 0.497394,0.740307 0.161942,0.416423 0.161942,0.925384 v 3.516459 q 0,0.127241 -0.09254,0.208212 -0.08097,0.08097 -0.196644,0.08097 h -1.341807 q -0.12724,0 -0.208211,-0.08097 -0.08097,-0.08097 -0.08097,-0.208212 v -0.404855 q -0.150375,0.219778 -0.404856,0.404855 -0.254481,0.185077 -0.6015,0.289183 -0.335451,0.115673 -0.786576,0.115673 z m 0.543663,-1.318672 q 0.335452,0 0.6015,-0.138808 0.277615,-0.150375 0.42799,-0.451125 0.161942,-0.312317 0.161942,-0.775009 v -0.161942 l -0.98322,0.173509 q -0.543664,0.09254 -0.798144,0.289183 -0.242913,0.185077 -0.242913,0.439557 0,0.196644 0.115673,0.335452 0.115673,0.138808 0.300749,0.219779 0.185077,0.0694 0.416423,0.0694 z m 6.951949,1.318672 q -0.751874,0 -1.28397,-0.161942 -0.520528,-0.17351 -0.85598,-0.416423 -0.323884,-0.242914 -0.485827,-0.497394 -0.161942,-0.266048 -0.173509,-0.451125 -0.01157,-0.12724 0.08097,-0.208211 0.09254,-0.09254 0.196644,-0.09254 h 1.318672 q 0.0347,0 0.05784,0.01157 0.02313,0.01157 0.0694,0.04627 0.150374,0.08097 0.300749,0.208211 0.150375,0.115673 0.347019,0.208212 0.196644,0.09254 0.47426,0.09254 0.323884,0 0.543663,-0.12724 0.219778,-0.127241 0.219778,-0.381721 0,-0.185077 -0.104105,-0.30075 -0.104106,-0.12724 -0.42799,-0.242913 -0.312317,-0.115673 -0.948519,-0.231346 -0.6015,-0.138808 -1.052624,-0.358587 -0.451125,-0.231346 -0.694038,-0.589932 -0.242914,-0.370153 -0.242914,-0.890682 0,-0.462692 0.30075,-0.890682 0.30075,-0.42799 0.879115,-0.694038 0.578365,-0.277615 1.422778,-0.277615 0.670903,0 1.15673,0.161942 0.497394,0.150375 0.832846,0.393288 0.347018,0.242914 0.520528,0.497394 0.173509,0.254481 0.185077,0.462692 0.01157,0.115673 -0.0694,0.208212 -0.08097,0.08097 -0.185077,0.08097 h -1.202999 q -0.04627,0 -0.09254,-0.01157 -0.04627,-0.02313 -0.08097,-0.04627 -0.138808,-0.0694 -0.277616,-0.185077 -0.138807,-0.115673 -0.323884,-0.208211 -0.185077,-0.09254 -0.462692,-0.09254 -0.312317,0 -0.485827,0.138807 -0.173509,0.138808 -0.173509,0.358586 0,0.150375 0.09254,0.277616 0.104106,0.12724 0.404856,0.231346 0.312317,0.104105 0.960086,0.231346 0.798143,0.12724 1.272403,0.416422 0.474259,0.277616 0.670903,0.659336 0.196644,0.370154 0.196644,0.786577 0,0.55523 -0.335452,0.98322 -0.323884,0.42799 -0.971653,0.670904 -0.647769,0.231346 -1.573153,0.231346 z"
         id="text170"
         aria-label="Notas" /></g></g></svg>
