<?xml version="1.0" encoding="UTF-8" standalone="no"?>
<!-- Created with Inkscape (http://www.inkscape.org/) -->

<svg
   width="55.074368mm"
   height="11.800411mm"
   viewBox="0 0 55.074368 11.800411"
   version="1.1"
   id="svg1"
   xml:space="preserve"
   xmlns="http://www.w3.org/2000/svg"
   xmlns:svg="http://www.w3.org/2000/svg"><defs
     id="defs1" /><g
     id="layer1"
     transform="translate(-62.209848,-174.9584)"><rect
       style="fill:#000000;fill-opacity:1;stroke-width:6.02271;stroke-linecap:round"
       id="rect41"
       width="55.074368"
       height="11.800417"
       x="62.20985"
       y="174.95839"
       ry="1.3929124" /><path
       d="m 72.959546,183.66566 v -4.02577 h 0.658763 v 0.76856 h 0.01464 q 0.05124,-0.38794 0.329382,-0.61485 0.278144,-0.22691 0.746598,-0.22691 0.629485,0 0.966186,0.38062 0.344021,0.3733 0.344021,1.06866 v 0.34402 h -0.658763 v -0.34402 q 0,-0.87835 -0.856392,-0.87835 -0.431856,0 -0.658763,0.24887 -0.226908,0.24886 -0.226908,0.71732 v 2.56185 z m 5.4165,0.0732 q -0.622165,0 -0.988145,-0.34402 -0.365979,-0.35134 -0.365979,-0.91495 0,-0.3733 0.16835,-0.65144 0.168351,-0.27815 0.468454,-0.43186 0.300103,-0.16103 0.688041,-0.16103 h 1.244331 v -0.31474 q 0,-0.7832 -0.856392,-0.7832 -0.380619,0 -0.614846,0.13907 -0.234227,0.13908 -0.248866,0.38794 h -0.658763 q 0.0366,-0.47577 0.439175,-0.78319 0.409897,-0.31475 1.0833,-0.31475 0.731959,0 1.119897,0.35134 0.395258,0.35134 0.395258,0.98083 v 2.7668 h -0.651444 v -0.73195 h -0.01464 q -0.05856,0.37329 -0.373299,0.59288 -0.314742,0.21227 -0.834433,0.21227 z m 0.161031,-0.55629 q 0.483093,0 0.768557,-0.23423 0.285464,-0.23422 0.285464,-0.6368 v -0.56361 h -1.171135 q -0.322062,0 -0.52701,0.19763 -0.197629,0.19031 -0.197629,0.51237 0,0.3367 0.219588,0.53433 0.226907,0.19031 0.622165,0.19031 z m 3.059591,0.48309 v -4.02577 h 0.658764 v 0.76856 h 0.0073 q 0.05124,-0.40258 0.329382,-0.62217 0.278144,-0.21959 0.739278,-0.21959 0.607526,0 0.966186,0.3733 0.35866,0.3733 0.35866,1.01743 v 2.70824 h -0.658763 v -2.59113 q 0,-0.46113 -0.234227,-0.70268 -0.226907,-0.24887 -0.622165,-0.24887 -0.409897,0 -0.651444,0.25619 -0.234226,0.25618 -0.234226,0.72464 v 2.56185 z m 5.680005,0.0732 q -0.600206,0 -0.966186,-0.40258 -0.35866,-0.40257 -0.35866,-1.09062 v -1.17845 q 0,-0.69536 0.35866,-1.09794 0.35866,-0.40258 0.966186,-0.40258 0.453815,0 0.746598,0.22691 0.300104,0.22691 0.35866,0.61485 h 0.0073 l -0.01464,-0.91495 v -1.17114 h 0.658763 v 5.3433 h -0.658763 v -0.76855 h -0.0073 q -0.05124,0.39526 -0.344021,0.62216 -0.292783,0.21959 -0.746597,0.21959 z m 0.219588,-0.57093 q 0.409897,0 0.644124,-0.25618 0.234227,-0.25619 0.234227,-0.71 v -1.09794 q 0,-0.45382 -0.234227,-0.71 -0.234227,-0.25619 -0.644124,-0.25619 -0.417217,0 -0.651444,0.21959 -0.234226,0.21227 -0.234226,0.71 v 1.17113 q 0,0.49042 0.234226,0.71 0.234227,0.21959 0.651444,0.21959 z m 4.406396,0.55629 q -0.724639,0 -1.156495,-0.42453 -0.424536,-0.42454 -0.424536,-1.18578 v -0.92227 q 0,-0.76855 0.424536,-1.18577 0.424536,-0.42454 1.156495,-0.42454 0.731959,0 1.156495,0.42454 0.424537,0.41722 0.424537,1.18577 v 0.92227 q 0,0.76124 -0.431856,1.18578 -0.424536,0.42453 -1.149176,0.42453 z m 0,-0.58557 q 0.431856,0 0.673402,-0.24154 0.248867,-0.24155 0.248867,-0.71 v -1.06866 q 0,-0.46846 -0.248867,-0.71 -0.241546,-0.24155 -0.673402,-0.24155 -0.424536,0 -0.673402,0.24155 -0.248866,0.24154 -0.248866,0.71 v 1.06866 q 0,0.46845 0.248866,0.71 0.248866,0.24154 0.673402,0.24154 z m 2.635057,0.52701 v -4.02577 h 0.570928 v 0.53433 h 0.01464 q 0.0366,-0.27082 0.212268,-0.43918 0.18299,-0.16835 0.461134,-0.16835 0.263505,0 0.446495,0.15372 0.18299,0.15371 0.263505,0.41721 h 0.0073 q 0.05124,-0.2635 0.226907,-0.41721 0.18299,-0.15372 0.461134,-0.15372 0.387939,0 0.614846,0.29279 0.234227,0.28546 0.234227,0.7466 v 3.05958 h -0.614846 v -3.0669 q 0,-0.24155 -0.117113,-0.38062 -0.117114,-0.14639 -0.322062,-0.14639 -0.197629,0 -0.314743,0.13907 -0.117113,0.13907 -0.117113,0.38062 v 3.07422 h -0.54165 v -3.0669 q 0,-0.24155 -0.117113,-0.38062 -0.117114,-0.14639 -0.314743,-0.14639 -0.204948,0 -0.322061,0.13907 -0.117114,0.13907 -0.117114,0.38062 v 3.07422 z m 4.977323,-2.12268 v -0.58556 h 2.342273 v 0.58556 z m 5.621443,2.19588 q -0.73196,0 -1.17113,-0.4099 -0.43918,-0.40989 -0.43918,-1.12721 v -1.09794 q 0,-0.71732 0.43918,-1.12722 0.43917,-0.4099 1.17113,-0.4099 0.69537,0 1.1199,0.3733 0.43186,0.3733 0.45382,1.01743 h -0.65877 q -0.022,-0.38794 -0.2635,-0.59289 -0.24155,-0.21227 -0.65145,-0.21227 -0.43185,0 -0.69536,0.24887 -0.25618,0.24154 -0.25618,0.69536 v 1.10526 q 0,0.45381 0.25618,0.70268 0.26351,0.24886 0.69536,0.24886 0.4099,0 0.65145,-0.21226 0.24154,-0.21227 0.2635,-0.59289 h 0.65877 q -0.022,0.64412 -0.45382,1.01742 -0.42453,0.3733 -1.1199,0.3733 z"
       id="text41"
       style="font-size:7.31959px;line-height:1;font-family:'JetBrainsMono Nerd Font';-inkscape-font-specification:'JetBrainsMono Nerd Font';text-align:center;text-anchor:middle;fill:#f2f2f2;stroke-width:0.953882;stroke-linecap:round"
       aria-label="random-c" /></g></svg>
