<?xml version="1.0" encoding="UTF-8" standalone="no"?>
<!-- Created with Inkscape (http://www.inkscape.org/) -->

<svg
   width="55.074371mm"
   height="11.800411mm"
   viewBox="0 0 55.074371 11.800411"
   version="1.1"
   id="svg1"
   xml:space="preserve"
   xmlns="http://www.w3.org/2000/svg"
   xmlns:svg="http://www.w3.org/2000/svg"><defs
     id="defs1" /><g
     id="layer1"
     transform="translate(-61.955644,-324.5017)"><rect
       style="fill:#000000;fill-opacity:1;stroke-width:6.02271;stroke-linecap:round"
       id="rect182"
       width="55.074368"
       height="11.800417"
       x="61.955647"
       y="324.50171"
       ry="1.3929124" /><rect
       style="fill:#000000;fill-opacity:1;stroke-width:6.02271;stroke-linecap:round"
       id="rect183"
       width="55.074368"
       height="11.800417"
       x="61.955647"
       y="324.50171"
       ry="1.3929124" /><path
       d="m 88.063358,335.50036 q -1.198032,0 -1.892346,-0.69431 -0.694314,-0.70793 -0.694314,-1.90596 v -0.776 q 0,-1.08912 0.61263,-1.74259 0.61263,-0.65347 1.647294,-0.70793 l -0.381192,-0.4901 q -0.735156,-0.9666 -0.735156,-1.71537 0,-0.96659 0.653472,-1.56561 0.653472,-0.59901 1.70175,-0.59901 0.74877,0 1.306944,0.32673 0.571788,0.32674 0.88491,0.91214 0.326736,0.57179 0.326736,1.34779 h -1.198032 q 0,-0.6807 -0.367578,-1.10274 -0.353964,-0.43564 -0.95298,-0.43564 -0.503718,0 -0.830454,0.31312 -0.313122,0.31312 -0.313122,0.83045 0,0.53095 0.394806,1.03467 l 2.65473,3.43072 1.238874,-1.55199 h 1.3614 l -1.946802,2.39606 1.97403,2.57305 h -1.347786 l -1.320558,-1.74259 -0.585402,0.73515 q -0.462876,0.57179 -1.034664,0.85768 -0.558174,0.27228 -1.15719,0.27228 z m 0.08168,-1.10273 q 0.775998,0 1.320558,-0.69431 l 0.707928,-0.89853 -1.70175,-2.17824 h -0.40842 q -0.639858,0 -1.02105,0.40842 -0.367578,0.39481 -0.367578,1.08912 v 0.776 q 0,0.69431 0.394806,1.10273 0.40842,0.39481 1.075506,0.39481 z"
       id="text183"
       style="font-size:13.614px;line-height:1;font-family:'JetBrainsMono Nerd Font';-inkscape-font-specification:'JetBrainsMono Nerd Font';text-align:center;text-anchor:middle;fill:#f2f2f2;stroke-width:1.77416;stroke-linecap:round"
       aria-label="&amp;" /><path
       d="m 64.344639,329.44754 q -0.488836,0 -0.759821,-0.21785 -0.265672,-0.22317 -0.265672,-0.62699 h 0.478209 q 0,0.20191 0.143463,0.31881 0.143463,0.11158 0.403821,0.11158 h 0.233792 q 0.265672,0 0.409135,-0.1169 0.148776,-0.11689 0.148776,-0.32943 0,-0.37725 -0.345374,-0.42508 l -0.807642,-0.11689 q -0.297553,-0.0425 -0.46227,-0.24442 -0.164716,-0.20722 -0.164716,-0.54197 0,-0.38257 0.260358,-0.60042 0.265672,-0.21785 0.727941,-0.21785 h 0.233792 q 0.425075,0 0.690747,0.21254 0.270985,0.20722 0.292239,0.54728 h -0.483523 q -0.01063,-0.15409 -0.148776,-0.25504 -0.132836,-0.10096 -0.350687,-0.10096 h -0.233792 q -0.244418,0 -0.382567,0.11158 -0.13815,0.11159 -0.13815,0.30287 0,0.30818 0.281613,0.35069 l 0.754508,0.10627 q 0.743882,0.10626 0.743882,0.8714 0,0.40913 -0.270986,0.63761 -0.265672,0.22317 -0.754508,0.22317 z m 3.34747,0.0106 q -0.531344,0 -0.850151,-0.29755 -0.318806,-0.29755 -0.318806,-0.81827 v -0.79701 q 0,-0.52072 0.318806,-0.81827 0.318807,-0.29756 0.850151,-0.29756 0.504776,0 0.812956,0.27099 0.313493,0.27098 0.329433,0.73857 h -0.478209 q -0.01594,-0.28162 -0.191284,-0.43039 -0.175344,-0.15409 -0.472896,-0.15409 -0.313493,0 -0.504777,0.18066 -0.185971,0.17534 -0.185971,0.50477 v 0.80233 q 0,0.32943 0.185971,0.51009 0.191284,0.18066 0.504777,0.18066 0.297552,0 0.472896,-0.15409 0.175343,-0.15409 0.191284,-0.43039 h 0.478209 q -0.01594,0.46758 -0.329433,0.73857 -0.30818,0.27098 -0.812956,0.27098 z m 2.146631,-0.0531 v -2.92239 h 0.47821 v 0.55791 h 0.01063 q 0.03719,-0.28161 0.239105,-0.44633 0.20191,-0.16472 0.541971,-0.16472 0.456955,0 0.701374,0.2763 0.249731,0.27099 0.249731,0.77576 v 0.24974 h -0.478209 v -0.24974 q 0,-0.63761 -0.621673,-0.63761 -0.313493,0 -0.478209,0.18066 -0.164717,0.18066 -0.164717,0.52072 v 1.8597 z m 3.044603,0 v -0.4357 h 1.036121 v -2.05099 h -0.929852 v -0.4357 h 1.408061 v 2.48669 h 0.982987 v 0.4357 z m 1.222091,-3.44842 q -0.175343,0 -0.276299,-0.0903 -0.100955,-0.0903 -0.100955,-0.24442 0,-0.1594 0.100955,-0.24973 0.100956,-0.0956 0.276299,-0.0956 0.175344,0 0.276299,0.0956 0.100955,0.0903 0.100955,0.24973 0,0.15409 -0.100955,0.24442 -0.100955,0.0903 -0.276299,0.0903 z m 2.00317,4.40484 v -3.87881 h 0.478209 v 0.55791 h 0.0053 q 0.03719,-0.28693 0.249731,-0.44633 0.212538,-0.16472 0.541971,-0.16472 0.441016,0 0.701374,0.29224 0.260359,0.28693 0.260359,0.7917 v 0.85547 q 0,0.50478 -0.260359,0.79701 -0.260358,0.29224 -0.701374,0.29224 -0.329433,0 -0.541971,-0.16471 -0.212537,-0.16472 -0.249731,-0.44633 h -0.01594 l 0.01063,0.66418 v 0.85015 z m 1.115822,-1.31773 q 0.302866,0 0.472896,-0.15941 0.17003,-0.1594 0.17003,-0.5154 v -0.85015 q 0,-0.36132 -0.17003,-0.51541 -0.17003,-0.1594 -0.472896,-0.1594 -0.292239,0 -0.467583,0.18597 -0.17003,0.18597 -0.17003,0.51541 v 0.79701 q 0,0.32943 0.17003,0.5154 0.175344,0.18598 0.467583,0.18598 z m 3.469679,0.36131 q -0.361314,0 -0.579165,-0.20722 -0.217851,-0.21254 -0.217851,-0.56323 v -1.71624 h -0.839524 v -0.4357 h 0.839524 v -0.82359 h 0.478209 v 0.82359 h 1.195524 v 0.4357 h -1.195524 v 1.71624 q 0,0.14878 0.08501,0.24442 0.09033,0.0903 0.233792,0.0903 h 0.85015 v 0.4357 z m 2.77893,0.0425 q -0.488837,0 -0.759822,-0.21785 -0.265672,-0.22317 -0.265672,-0.62699 h 0.478209 q 0,0.20191 0.143463,0.31881 0.143463,0.11158 0.403822,0.11158 h 0.233791 q 0.265672,0 0.409135,-0.1169 0.148776,-0.11689 0.148776,-0.32943 0,-0.37725 -0.345374,-0.42508 l -0.807642,-0.11689 q -0.297553,-0.0425 -0.46227,-0.24442 -0.164716,-0.20722 -0.164716,-0.54197 0,-0.38257 0.260358,-0.60042 0.265672,-0.21785 0.727942,-0.21785 h 0.233791 q 0.425075,0 0.690747,0.21254 0.270985,0.20722 0.292239,0.54728 h -0.483523 q -0.01063,-0.15409 -0.148776,-0.25504 -0.132836,-0.10096 -0.350687,-0.10096 h -0.233791 q -0.244419,0 -0.382568,0.11158 -0.13815,0.11159 -0.13815,0.30287 0,0.30818 0.281613,0.35069 l 0.754508,0.10627 q 0.743882,0.10626 0.743882,0.8714 0,0.40913 -0.270986,0.63761 -0.265672,0.22317 -0.754508,0.22317 z"
       id="text185"
       style="font-size:5.31344px;line-height:1;font-family:'JetBrainsMono Nerd Font';-inkscape-font-specification:'JetBrainsMono Nerd Font';text-align:center;text-anchor:middle;fill:#f2f2f2;stroke-width:0.692442;stroke-linecap:round"
       aria-label="scripts" /><path
       d="m 96.187188,334.39447 q -0.421819,0 -0.67615,-0.24192 -0.254332,-0.24813 -0.254332,-0.65755 v -2.00363 h -0.980107 v -0.50867 h 0.980107 v -0.96149 h 0.558289 v 0.96149 h 1.395722 v 0.50867 h -1.395722 v 2.00363 q 0,0.17369 0.09925,0.28535 0.105454,0.10546 0.272941,0.10546 h 0.992513 v 0.50866 z m 2.090484,0 v -4.52834 h 0.558289 v 1.76791 h 0.0062 q 0.04342,-0.34117 0.279144,-0.52727 0.235722,-0.1861 0.626525,-0.1861 0.51487,0 0.81883,0.31637 0.30395,0.31636 0.30395,0.86224 v 2.29519 h -0.55829 v -2.20214 q 0,-0.3846 -0.1985,-0.5893 -0.1923,-0.21091 -0.527274,-0.21091 -0.34738,0 -0.552085,0.21711 -0.198503,0.21711 -0.198503,0.61412 v 2.17112 z m 3.678508,0 v -0.50866 h 1.20962 v -2.39444 h -1.08556 v -0.50867 h 1.64385 v 2.90311 h 1.1476 v 0.50866 z m 1.42674,-4.02588 q -0.20471,0 -0.32257,-0.10546 -0.11786,-0.10545 -0.11786,-0.28535 0,-0.18609 0.11786,-0.29155 0.11786,-0.11165 0.32257,-0.11165 0.2047,0 0.32256,0.11165 0.11786,0.10546 0.11786,0.29155 0,0.1799 -0.11786,0.28535 -0.11786,0.10546 -0.32256,0.10546 z m 2.33861,4.02588 v -3.41177 h 0.55829 v 0.65134 h 0.006 q 0.0434,-0.34117 0.27914,-0.52727 0.23573,-0.1861 0.62653,-0.1861 0.51487,0 0.81882,0.31637 0.30396,0.31636 0.30396,0.86224 v 2.29519 h -0.55829 v -2.19594 q 0,-0.3908 -0.1985,-0.5955 -0.1923,-0.21091 -0.52727,-0.21091 -0.34738,0 -0.55209,0.21711 -0.1985,0.21711 -0.1985,0.61412 v 2.17112 z m 4.14995,1.11658 v -0.50867 h 0.9615 q 0.29155,0 0.45903,-0.16748 0.16749,-0.16129 0.16749,-0.44043 v -0.31016 l 0.0124,-0.55829 h -0.0186 q -0.0496,0.30396 -0.29155,0.47144 -0.24193,0.16129 -0.60792,0.16129 -0.52727,0 -0.83123,-0.33498 -0.30396,-0.33497 -0.30396,-0.91807 v -0.71957 q 0,-0.5831 0.30396,-0.92428 0.30396,-0.34118 0.83123,-0.34118 0.36599,0 0.60792,0.17369 0.24192,0.17369 0.29155,0.47765 h 0.0124 v -0.58931 h 0.55209 v 3.41177 q 0,0.51487 -0.32257,0.81262 -0.31636,0.30396 -0.86845,0.30396 z m 0.84984,-1.81754 q 0.34738,0 0.54588,-0.21711 0.1985,-0.21712 0.1985,-0.60172 v -0.65133 q 0,-0.3846 -0.1985,-0.60171 -0.1985,-0.21712 -0.54588,-0.21712 -0.35358,0 -0.55209,0.20471 -0.1923,0.2047 -0.1923,0.55208 v 0.77541 q 0,0.34738 0.1923,0.55208 0.19851,0.20471 0.55209,0.20471 z m 3.59786,0.75059 q -0.57069,0 -0.88706,-0.25434 -0.31016,-0.26053 -0.31016,-0.73197 h 0.55829 q 0,0.23572 0.16749,0.37219 0.16749,0.13027 0.47144,0.13027 h 0.27294 q 0.31016,0 0.47765,-0.13648 0.17369,-0.13647 0.17369,-0.38459 0,-0.44043 -0.40321,-0.49626 l -0.94289,-0.13647 q -0.34738,-0.0496 -0.53967,-0.28535 -0.1923,-0.24192 -0.1923,-0.63273 0,-0.44663 0.30395,-0.70096 0.31016,-0.25433 0.84984,-0.25433 h 0.27294 q 0.49626,0 0.80642,0.24813 0.31636,0.24192 0.34118,0.63893 h -0.56449 q -0.0124,-0.17989 -0.17369,-0.29776 -0.15508,-0.11786 -0.40942,-0.11786 h -0.27294 q -0.28535,0 -0.44663,0.13027 -0.16128,0.13027 -0.16128,0.35358 0,0.35979 0.32877,0.40942 l 0.88085,0.12406 q 0.86845,0.12406 0.86845,1.01733 0,0.47764 -0.31636,0.74438 -0.31016,0.26054 -0.88086,0.26054 z"
       id="text188"
       style="font-size:6.20321px;line-height:1;font-family:'JetBrainsMono Nerd Font';-inkscape-font-specification:'JetBrainsMono Nerd Font';text-align:center;text-anchor:middle;fill:#f2f2f2;stroke-width:0.808396;stroke-linecap:round"
       aria-label="things" /></g></svg>
