<?xml version="1.0" encoding="UTF-8" standalone="no"?>
<!-- Created with Inkscape (http://www.inkscape.org/) -->

<svg
   width="55.074368mm"
   height="23.603308mm"
   viewBox="0 0 55.074368 23.603308"
   version="1.1"
   id="svg1"
   xml:space="preserve"
   xmlns="http://www.w3.org/2000/svg"
   xmlns:svg="http://www.w3.org/2000/svg"><defs
     id="defs1" /><g
     id="layer1"
     transform="translate(-62.964155,-117.33863)"><rect
       style="fill:#241f31;fill-opacity:1;stroke-width:8.51785;stroke-linecap:round"
       id="rect19"
       width="55.074368"
       height="23.6033"
       x="62.964157"
       y="117.33862"
       ry="2.7861159" /><rect
       style="fill:#c01c28;fill-opacity:1;stroke-width:2.45108;stroke-linecap:round"
       id="rect20"
       width="49.760914"
       height="8.1225605"
       x="65.62088"
       y="125.07899"
       ry="1.0996057" /><path
       d="m 70.647639,130.36052 q 0,0.72907 -0.529535,1.16651 -0.521859,0.42976 -1.488835,0.42976 -0.867208,0 -1.550231,-0.32999 v -1.0821 q 0.391395,0.16884 0.805813,0.31465 0.422093,0.13814 0.836511,0.13814 0.429767,0 0.606278,-0.16116 0.184186,-0.16884 0.184186,-0.42209 0,-0.20721 -0.145814,-0.35302 -0.138139,-0.14582 -0.376046,-0.26861 -0.237906,-0.13046 -0.544883,-0.27628 -0.19186,-0.0921 -0.414418,-0.21488 -0.222558,-0.13047 -0.429767,-0.31465 -0.199535,-0.19186 -0.33,-0.46047 -0.130465,-0.2686 -0.130465,-0.64465 0,-0.73674 0.498837,-1.14348 0.498837,-0.41442 1.358371,-0.41442 0.429767,0 0.813487,0.0998 0.391395,0.0998 0.813488,0.28395 l -0.376047,0.90558 q -0.376046,-0.15349 -0.675348,-0.23791 -0.299302,-0.0844 -0.613952,-0.0844 -0.33,0 -0.506511,0.15349 -0.176512,0.15349 -0.176512,0.39907 0,0.29163 0.26093,0.46047 0.26093,0.16883 0.775115,0.41441 0.422093,0.19954 0.713721,0.41442 0.299302,0.21489 0.460464,0.50651 0.161163,0.29163 0.161163,0.7214 z m 2.632327,-2.74744 q 0.867208,0 1.373719,0.49884 0.506511,0.49116 0.506511,1.40441 v 0.55256 h -2.701392 q 0.01535,0.48349 0.283953,0.75977 0.276279,0.27628 0.759767,0.27628 0.406743,0 0.736743,-0.0768 0.33,-0.0844 0.683023,-0.25325 v 0.88255 q -0.306977,0.15349 -0.652325,0.22256 -0.337674,0.0767 -0.821162,0.0767 -0.629302,0 -1.11279,-0.23023 -0.483487,-0.2379 -0.759766,-0.71372 -0.276279,-0.47581 -0.276279,-1.19721 0,-0.73674 0.245581,-1.22023 0.253256,-0.49116 0.698371,-0.73674 0.445116,-0.24558 1.036046,-0.24558 z m 0.0077,0.81349 q -0.329999,0 -0.552557,0.21488 -0.214884,0.21488 -0.253256,0.66767 h 1.603952 q -0.0077,-0.38372 -0.199535,-0.6293 -0.19186,-0.25325 -0.598604,-0.25325 z m 4.504876,3.53022 q -0.936278,0 -1.450464,-0.51418 -0.506511,-0.52186 -0.506511,-1.63465 0,-0.76744 0.26093,-1.25093 0.26093,-0.48349 0.721395,-0.71372 0.468139,-0.23023 1.074417,-0.23023 0.429767,0 0.744418,0.0844 0.322325,0.0844 0.560232,0.19953 l -0.337674,0.88256 q -0.268605,-0.10744 -0.506511,-0.17651 -0.230233,-0.0691 -0.460465,-0.0691 -0.890232,0 -0.890232,1.26628 0,0.6293 0.230233,0.9286 0.237906,0.2993 0.659999,0.2993 0.360697,0 0.636976,-0.0921 0.276279,-0.0998 0.537209,-0.26861 v 0.97465 q -0.26093,0.16884 -0.552558,0.23791 -0.283953,0.0767 -0.721394,0.0767 z m 4.581622,-4.34371 q 0.08442,0 0.199534,0.008 0.115116,0.008 0.184186,0.023 l -0.08442,1.07441 q -0.05372,-0.0153 -0.161162,-0.023 -0.09977,-0.0153 -0.176512,-0.0153 -0.291627,0 -0.560231,0.10744 -0.268605,0.0998 -0.437442,0.33 -0.161162,0.23024 -0.161162,0.6293 v 2.13349 h -1.143488 v -4.19023 h 0.867209 l 0.168837,0.70605 h 0.05372 q 0.184186,-0.32233 0.506511,-0.55256 0.322325,-0.23023 0.744418,-0.23023 z m 2.71674,0 q 0.867208,0 1.373719,0.49884 0.506511,0.49116 0.506511,1.40441 v 0.55256 h -2.701392 q 0.01535,0.48349 0.283953,0.75977 0.276279,0.27628 0.759767,0.27628 0.406744,0 0.736743,-0.0768 0.33,-0.0844 0.683023,-0.25325 v 0.88255 q -0.306977,0.15349 -0.652325,0.22256 -0.337674,0.0767 -0.821162,0.0767 -0.629302,0 -1.112789,-0.23023 -0.483488,-0.2379 -0.759767,-0.71372 -0.276279,-0.47581 -0.276279,-1.19721 0,-0.73674 0.245581,-1.22023 0.253256,-0.49116 0.698372,-0.73674 0.445115,-0.24558 1.036045,-0.24558 z m 0.0077,0.81349 q -0.329999,0 -0.552557,0.21488 -0.214884,0.21488 -0.253256,0.66767 h 1.603952 q -0.0077,-0.38372 -0.199535,-0.6293 -0.19186,-0.25325 -0.598604,-0.25325 z m 4.566272,2.61697 q 0.19186,0 0.368372,-0.0384 0.176511,-0.0384 0.353022,-0.0921 v 0.85185 q -0.184185,0.0768 -0.460464,0.13047 -0.268604,0.0614 -0.59093,0.0614 -0.376046,0 -0.675348,-0.12279 -0.291627,-0.12279 -0.468139,-0.42209 -0.168837,-0.30697 -0.168837,-0.84418 v -2.01837 h -0.544883 v -0.48349 l 0.629302,-0.38372 0.329999,-0.88256 h 0.729069 v 0.89023 h 1.174185 v 0.85954 h -1.174185 v 2.01837 q 0,0.2379 0.13814,0.36069 0.138139,0.11512 0.360697,0.11512 z m 6.883947,-0.68302 q 0,0.72907 -0.529534,1.16651 -0.52186,0.42976 -1.488835,0.42976 -0.867209,0 -1.550231,-0.32999 v -1.0821 q 0.391395,0.16884 0.805813,0.31465 0.422092,0.13814 0.83651,0.13814 0.429767,0 0.606279,-0.16116 0.184186,-0.16884 0.184186,-0.42209 0,-0.20721 -0.145814,-0.35302 -0.138139,-0.14582 -0.376046,-0.26861 -0.237907,-0.13046 -0.544883,-0.27628 -0.191861,-0.0921 -0.414418,-0.21488 -0.222558,-0.13047 -0.429767,-0.31465 -0.199535,-0.19186 -0.33,-0.46047 -0.130465,-0.2686 -0.130465,-0.64465 0,-0.73674 0.498837,-1.14348 0.498836,-0.41442 1.35837,-0.41442 0.429767,0 0.813488,0.0998 0.391395,0.0998 0.813487,0.28395 l -0.376046,0.90558 q -0.376046,-0.15349 -0.675348,-0.23791 -0.299302,-0.0844 -0.613953,-0.0844 -0.329999,0 -0.506511,0.15349 -0.176511,0.15349 -0.176511,0.39907 0,0.29163 0.26093,0.46047 0.26093,0.16883 0.775115,0.41441 0.422093,0.19954 0.71372,0.41442 0.299302,0.21489 0.460465,0.50651 0.161162,0.29163 0.161162,0.7214 z m 2.624654,-2.75512 q 0.844183,0 1.289303,0.36838 0.45279,0.36069 0.45279,1.11279 v 2.79348 h -0.79814 l -0.222559,-0.56791 h -0.0307 q -0.268605,0.33768 -0.567906,0.49117 -0.299302,0.15348 -0.821162,0.15348 -0.560232,0 -0.928604,-0.32232 -0.368372,-0.33 -0.368372,-1.00535 0,-0.66767 0.468139,-0.98232 0.468139,-0.32233 1.404417,-0.35303 l 0.729069,-0.023 v -0.18418 q 0,-0.33 -0.176511,-0.48349 -0.168837,-0.15349 -0.475814,-0.15349 -0.306976,0 -0.598603,0.0921 -0.291628,0.0844 -0.583256,0.21489 l -0.376046,-0.77512 q 0.337674,-0.17651 0.744418,-0.27628 0.414418,-0.0998 0.859534,-0.0998 z m 0.161163,2.34837 q -0.552558,0.0154 -0.767441,0.19954 -0.214884,0.18418 -0.214884,0.48349 0,0.26093 0.153488,0.37604 0.153488,0.10744 0.39907,0.10744 0.368371,0 0.621627,-0.21488 0.253255,-0.22256 0.253255,-0.62163 v -0.34535 z m 5.13418,-2.34069 q 0.67534,0 1.08209,0.36837 0.40674,0.3607 0.40674,1.16651 v 2.73209 h -1.14349 v -2.44814 q 0,-0.45279 -0.16116,-0.67534 -0.16116,-0.23024 -0.51418,-0.23024 -0.52186,0 -0.71372,0.3607 -0.19186,0.35302 -0.19186,1.0207 v 1.97232 h -1.14349 v -4.19023 h 0.87488 l 0.15349,0.53721 h 0.0614 q 0.19954,-0.32232 0.54489,-0.46814 0.35302,-0.14581 0.74442,-0.14581 z m 4.42813,3.43046 q 0.19186,0 0.36837,-0.0384 0.17651,-0.0384 0.35303,-0.0921 v 0.85185 q -0.18419,0.0768 -0.46047,0.13047 -0.2686,0.0614 -0.59093,0.0614 -0.37605,0 -0.67535,-0.12279 -0.29162,-0.12279 -0.46814,-0.42209 -0.16883,-0.30697 -0.16883,-0.84418 v -2.01837 h -0.54489 v -0.48349 l 0.62931,-0.38372 0.33,-0.88256 h 0.72906 v 0.89023 h 1.17419 v 0.85954 h -1.17419 v 2.01837 q 0,0.2379 0.13814,0.36069 0.13814,0.11512 0.3607,0.11512 z m 3.28465,-3.43814 q 0.84418,0 1.2893,0.36838 0.45279,0.36069 0.45279,1.11279 v 2.79348 h -0.79814 l -0.22256,-0.56791 h -0.0307 q -0.2686,0.33768 -0.5679,0.49117 -0.2993,0.15348 -0.82116,0.15348 -0.56024,0 -0.92861,-0.32232 -0.36837,-0.33 -0.36837,-1.00535 0,-0.66767 0.46814,-0.98232 0.46814,-0.32233 1.40442,-0.35303 l 0.72906,-0.023 v -0.18418 q 0,-0.33 -0.17651,-0.48349 -0.16883,-0.15349 -0.47581,-0.15349 -0.30698,0 -0.5986,0.0921 -0.29163,0.0844 -0.58326,0.21489 l -0.37605,-0.77512 q 0.33768,-0.17651 0.74442,-0.27628 0.41442,-0.0998 0.85954,-0.0998 z m 0.16116,2.34837 q -0.55256,0.0154 -0.76744,0.19954 -0.21489,0.18418 -0.21489,0.48349 0,0.26093 0.15349,0.37604 0.15349,0.10744 0.39907,0.10744 0.36837,0 0.62163,-0.21488 0.25325,-0.22256 0.25325,-0.62163 v -0.34535 z"
       id="text20"
       style="font-weight:bold;font-size:7.67441px;line-height:1;font-family:'Noto Sans';-inkscape-font-specification:'Noto Sans Bold';text-align:center;text-anchor:middle;fill:#ffffff;stroke-width:1.55405;stroke-linecap:round"
       aria-label="Secret Santa" /></g></svg>
