<?xml version="1.0" encoding="UTF-8" standalone="no"?>
<!-- Created with Inkscape (http://www.inkscape.org/) -->

<svg
   width="55.074364mm"
   height="23.603304mm"
   viewBox="0 0 55.074364 23.603304"
   version="1.1"
   id="svg1"
   xml:space="preserve"
   xmlns="http://www.w3.org/2000/svg"
   xmlns:svg="http://www.w3.org/2000/svg"><defs
     id="defs1"><clipPath
       clipPathUnits="userSpaceOnUse"
       id="clipPath25"><rect
         style="fill:#999999;fill-opacity:1;stroke-width:8.51784;stroke-linecap:round"
         id="rect47"
         width="55.074368"
         height="23.6033"
         x="-32.2738"
         y="60.655563"
         ry="2.7861159" /></clipPath></defs><g
     id="layer1"
     transform="translate(-63.300832,-60.655562)"><g
       id="g61"
       transform="translate(59.606742)"><rect
         style="fill:#c01c28;fill-opacity:1;stroke-width:8.51785;stroke-linecap:round"
         id="rect59"
         width="55.074368"
         height="23.6033"
         x="3.6940897"
         y="60.655563"
         ry="2.7861159" /><path
         d="m 24.636566,73.885777 q 0,0 0,0 0,0 0,0 0,0.72874 -0.25448,1.318672 -0.242914,0.578365 -0.694038,0.994788 -0.439558,0.416422 -1.041057,0.636201 -0.589933,0.219779 -1.283971,0.219779 -0.705605,0 -1.295537,-0.219779 -0.589933,-0.219779 -1.02949,-0.624634 -0.42799,-0.416423 -0.670903,-0.994788 -0.242914,-0.578365 -0.242914,-1.307105 0,-1.214566 0,-2.452267 0,-1.237701 0,-2.452268 0.508961,0 1.017923,0 0.508961,0 1.006355,0 0,1.191432 0,2.394431 0,1.202999 0,2.394431 0,0.624635 0.347019,1.006355 0.347019,0.381721 0.890682,0.381721 0.543663,0 0.879115,-0.381721 0.347019,-0.38172 0.347019,-1.006355 0,-1.191432 0,-2.394431 0,-1.202999 0,-2.394431 0.508961,0 1.017922,0 0.508961,0 1.006355,0 0,1.202999 0,2.4407 0,1.237702 0,2.440701 z m 1.272407,2.984363 q 0,-1.480614 0,-2.984363 0,-1.515317 0,-2.995931 0.474259,0 0.960086,0 0.485826,0 0.948518,0 0,0.08097 0,0.150375 0,0.0694 0,0.150375 0.312318,-0.219779 0.694038,-0.335452 0.393289,-0.12724 0.844413,-0.12724 0.659336,0 1.15673,0.30075 0.508962,0.300749 0.786577,0.867547 0.289182,0.555231 0.289182,1.341807 0,0.902249 0,1.816066 0,0.913817 0,1.816066 -0.462692,0 -0.948518,0 -0.485827,0 -0.960086,0 0,-0.832846 0,-1.688826 0,-0.85598 0,-1.688825 0,-0.462692 -0.219779,-0.740308 -0.208211,-0.289182 -0.670903,-0.289182 -0.462692,0 -0.717173,0.266048 -0.254481,0.266048 -0.254481,0.763442 0,0.832845 0,1.688825 0,0.85598 0,1.688826 -0.462692,0 -0.948518,0 -0.485827,0 -0.960086,0 z m 7.877337,-6.662765 q 0,0 0,0 0,0 0,0 -0.335452,0 -0.613067,-0.161942 -0.266048,-0.161942 -0.42799,-0.42799 -0.161943,-0.266048 -0.161943,-0.589932 0,-0.323885 0.161943,-0.578365 0.161942,-0.266048 0.42799,-0.42799 0.277615,-0.161943 0.613067,-0.161943 0.323884,0 0.589932,0.161943 0.277615,0.161942 0.439557,0.42799 0.161942,0.25448 0.161942,0.578365 0,0.323884 -0.161942,0.589932 -0.161942,0.266048 -0.439557,0.42799 -0.266048,0.161942 -0.589932,0.161942 z m -0.960086,6.662765 q 0,-1.480614 0,-2.984363 0,-1.515317 0,-2.995931 0.474259,0 0.960086,0 0.485826,0 0.948518,0 0,1.480614 0,2.995931 0,1.503749 0,2.984363 -0.462692,0 -0.948518,0 -0.485827,0 -0.960086,0 z m 7.22956,0 q 0,-0.09254 0,-0.173509 0,-0.09254 0,-0.17351 -0.289182,0.242913 -0.659336,0.370154 -0.358586,0.138807 -0.775009,0.138807 -0.589932,0 -1.110461,-0.231346 -0.520528,-0.231346 -0.925384,-0.647769 -0.393288,-0.42799 -0.624634,-1.006355 -0.219779,-0.578365 -0.219779,-1.272403 0,-0.705605 0.219779,-1.28397 0.231346,-0.578365 0.624634,-0.994788 0.404856,-0.416422 0.925384,-0.636201 0.520529,-0.231346 1.098894,-0.231346 0.416422,0 0.786576,0.138807 0.370154,0.127241 0.659336,0.358587 0,-0.694038 0,-1.399644 0,-0.705605 0,-1.399643 0.474259,0 0.960086,0 0.485827,0 0.948519,0 0,2.093681 0,4.222065 0,2.128383 0,4.222064 -0.462692,0 -0.948519,0 -0.485827,0 -0.960086,0 z M 38.87592,75.343256 q 0,0 0,0 0,0 0,0 0.55523,0 0.890682,-0.404855 0.335451,-0.404855 0.335451,-1.064192 0,-0.659336 -0.335451,-1.052624 -0.335452,-0.404855 -0.890682,-0.404855 -0.566798,0 -0.90225,0.393288 -0.323884,0.393288 -0.323884,1.064191 0,0.670904 0.323884,1.075759 0.335452,0.393288 0.90225,0.393288 z m 8.409427,1.526884 q 0,-0.09254 0,-0.173509 0,-0.09254 0,-0.17351 -0.289183,0.242913 -0.659336,0.370154 -0.358587,0.138807 -0.775009,0.138807 -0.589933,0 -1.110461,-0.219778 -0.520529,-0.231346 -0.925384,-0.647769 -0.393288,-0.42799 -0.624634,-1.006355 -0.219779,-0.578365 -0.219779,-1.283971 0,-0.717172 0.219779,-1.295537 0.231346,-0.578365 0.624634,-0.983221 0.404855,-0.416422 0.925384,-0.636201 0.520528,-0.231346 1.098893,-0.231346 0.416423,0 0.786577,0.138807 0.370153,0.127241 0.659336,0.358587 0,-0.09254 0,-0.17351 0,-0.08097 0,-0.161942 0.474259,0 0.960086,0 0.485826,0 0.948518,0 0,1.480614 0,2.995931 0,1.503749 0,2.984363 -0.462692,0 -0.948518,0 -0.485827,0 -0.960086,0 z m -1.179865,-1.526884 q 0,0 0,0 0,0 0,0 0.555231,0 0.890682,-0.404855 0.335452,-0.404855 0.335452,-1.064192 0,-0.659336 -0.335452,-1.052624 -0.335451,-0.404855 -0.890682,-0.404855 -0.566797,0 -0.902249,0.393288 -0.323885,0.393288 -0.323885,1.064191 0,0.670904 0.323885,1.075759 0.335452,0.393288 0.902249,0.393288 z m 8.351599,1.526884 q 0,-0.09254 0,-0.173509 0,-0.09254 0,-0.17351 -0.289183,0.242913 -0.659336,0.370154 -0.358587,0.138807 -0.775009,0.138807 -0.589933,0 -1.110461,-0.231346 -0.520529,-0.231346 -0.925384,-0.647769 -0.393288,-0.42799 -0.624634,-1.006355 -0.219779,-0.578365 -0.219779,-1.272403 0,-0.705605 0.219779,-1.28397 0.231346,-0.578365 0.624634,-0.994788 0.404855,-0.416422 0.925384,-0.636201 0.520528,-0.231346 1.098893,-0.231346 0.416423,0 0.786577,0.138807 0.370153,0.127241 0.659336,0.358587 0,-0.694038 0,-1.399644 0,-0.705605 0,-1.399643 0.474259,0 0.960086,0 0.485826,0 0.948518,0 0,2.093681 0,4.222065 0,2.128383 0,4.222064 -0.462692,0 -0.948518,0 -0.485827,0 -0.960086,0 z m -1.179865,-1.526884 q 0,0 0,0 0,0 0,0 0.555231,0 0.890682,-0.404855 0.335452,-0.404855 0.335452,-1.064192 0,-0.659336 -0.335452,-1.052624 -0.335451,-0.404855 -0.890682,-0.404855 -0.566798,0 -0.902249,0.393288 -0.323885,0.393288 -0.323885,1.064191 0,0.670904 0.323885,1.075759 0.335451,0.393288 0.902249,0.393288 z"
         id="text59"
         style="font-size:11.5673px;line-height:1;font-family:'Tilt Warp';-inkscape-font-specification:'Tilt Warp';text-align:center;text-anchor:middle;fill:#f9f9f9;stroke-width:2.34236;stroke-linecap:round"
         aria-label="Unidad" /><g
         id="g60"
         clip-path="url(#clipPath25)"
         transform="translate(35.977297,0.02977854)"><path
           id="path59"
           style="fill:#241f31;fill-opacity:1;stroke-width:1.00012;stroke-linecap:round"
           transform="rotate(-30)"
           d="m -66.298283,41.468833 12.557329,0.0072 0.0013,17.130604 H -66.30124 Z" /><path
           style="fill:#c01c28;fill-opacity:1;stroke-width:1.00012;stroke-linecap:round"
           d="m -30.024422,69.18358 0.989293,-0.568857 4.569851,7.907737 0.987847,-0.570513 0.573193,0.991365 -2.968088,1.711108 -0.572365,-0.989706 0.990326,-0.570923 -3.426975,-5.929972 -0.987848,0.56968 -0.57154,-0.990536 0.989913,-0.57154 z"
           id="path60" /></g></g></g></svg>
